<svg width="610" height="464" viewBox="0 0 610 464" fill="none" xmlns="http://www.w3.org/2000/svg">
<path d="M24.425 315.154H1.5597V456.962H24.425V315.154Z" stroke="#CB6F03" stroke-miterlimit="10"/>
<path d="M77.0805 182.08H32.629V226.531H77.0805V182.08Z" stroke="#CB6F03" stroke-miterlimit="10"/>
<path d="M32.629 182.08L54.8392 59.6431L77.0494 182.08" stroke="#CB6F03" stroke-miterlimit="10"/>
<path d="M1.5597 315.154L12.9767 215.489L24.425 315.154" stroke="#CB6F03" stroke-miterlimit="10"/>
<path d="M61.9826 241.161H47.8517V301.865H61.9826V241.161Z" stroke="#CB6F03" stroke-miterlimit="10" stroke-linecap="round"/>
<path d="M47.8517 271.544H61.9826" stroke="#CB6F03" stroke-miterlimit="10" stroke-linecap="round"/>
<path d="M464.137 456.962H410.483" stroke="#CB6F03" stroke-miterlimit="10"/>
<path d="M608.44 456.962H542.777" stroke="#CB6F03" stroke-miterlimit="10"/>
<path d="M529.706 456.962H477.207" stroke="#CB6F03" stroke-miterlimit="10"/>
<path d="M397.444 456.962H349.685H253.109H132.45H84.9726H24.425H1.5597" stroke="#CB6F03" stroke-miterlimit="10"/>
<path d="M529.706 456.962H477.207" stroke="#CB6F03" stroke-miterlimit="10"/>
<path d="M397.444 456.962H349.686H253.109V336.334V315.122V226.5H334.868H364.503H567.794" stroke="#CB6F03" stroke-miterlimit="10"/>
<path d="M608.44 315.122V456.962H542.777" stroke="#CB6F03" stroke-miterlimit="10"/>
<path d="M464.137 456.962H410.483" stroke="#CB6F03" stroke-miterlimit="10"/>
<path d="M253.109 456.962V336.334V315.122V226.5V173.002H238.447H234.86H151.728H147.111H132.45V226.5V312.533V336.334V379.569V456.962V457.274" stroke="#CB6F03" stroke-miterlimit="10"/>
<path d="M24.4249 456.962V315.122V226.5H32.5978H77.0493H84.9726H132.45V312.533V336.334V379.569V456.962V457.274" stroke="#CB6F03" stroke-miterlimit="10"/>
<path d="M132.45 457.274V456.962V379.569V336.334V312.533V226.5H84.9726V312.533V379.569V456.962V457.274" stroke="#CB6F03" stroke-miterlimit="10"/>
<path d="M464.137 456.962H410.483" stroke="#CB6F03" stroke-miterlimit="10"/>
<path d="M397.444 456.962H349.686H253.109V336.334V315.122H349.686H397.444H410.483H464.137H477.207H529.706H542.777H608.44V456.962H542.777" stroke="#CB6F03" stroke-miterlimit="10"/>
<path d="M529.706 456.962H477.207" stroke="#CB6F03" stroke-miterlimit="10"/>
<path d="M364.534 173.002H334.868V226.5H364.534V173.002Z" stroke="#CB6F03" stroke-miterlimit="10"/>
<path d="M132.45 336.334H253.109" stroke="#CB6F03" stroke-miterlimit="10"/>
<path d="M85.0038 312.533H132.45" stroke="#CB6F03" stroke-miterlimit="10"/>
<path d="M132.45 379.569H85.0038L110.271 341.731L132.45 379.569Z" stroke="#CB6F03" stroke-miterlimit="10"/>
<path d="M334.868 173.002L349.685 68.3149L364.503 173.002" stroke="#CB6F03" stroke-miterlimit="10"/>
<path d="M175.311 122.717C175.311 122.717 159.215 127.24 159.215 144.959H226.625" stroke="#CB6F03" stroke-miterlimit="10"/>
<path d="M210.56 122.717C210.56 122.717 226.625 127.24 226.656 144.959H159.246" stroke="#CB6F03" stroke-miterlimit="10"/>
<path d="M151.697 173.002L168.136 144.959" stroke="#CB6F03" stroke-miterlimit="10"/>
<path d="M234.86 173.002L218.421 144.959" stroke="#CB6F03" stroke-miterlimit="10"/>
<path d="M211.246 92.6152H175.311V122.718H211.246V92.6152Z" stroke="#CB6F03" stroke-miterlimit="10"/>
<path d="M202.325 40.2402H184.201V66.2561H202.325V40.2402Z" stroke="#CB6F03" stroke-miterlimit="10"/>
<path d="M175.311 92.6148H169.727C169.727 92.6148 169.197 73.6177 184.201 66.2559" stroke="#CB6F03" stroke-miterlimit="10"/>
<path d="M211.246 92.6148H216.83C216.83 92.6148 217.36 73.6177 202.356 66.2559" stroke="#CB6F03" stroke-miterlimit="10"/>
<path d="M128.551 148.858C128.551 154.879 133.417 159.776 139.469 159.776C145.52 159.776 150.387 154.879 150.387 148.858" stroke="#CB6F03" stroke-miterlimit="10" stroke-linecap="round"/>
<path d="M128.551 148.827C128.551 148.827 139.687 132.855 139.469 116.791" stroke="#CB6F03" stroke-miterlimit="10" stroke-linecap="round"/>
<path d="M150.387 148.827C150.387 148.827 139.25 132.855 139.469 116.791" stroke="#CB6F03" stroke-miterlimit="10" stroke-linecap="round"/>
<path d="M234.86 149.451C234.86 155.471 239.726 160.369 245.778 160.369C251.83 160.369 256.696 155.471 256.696 149.451" stroke="#CB6F03" stroke-miterlimit="10" stroke-linecap="round"/>
<path d="M234.86 149.42C234.86 149.42 245.996 133.448 245.778 117.383" stroke="#CB6F03" stroke-miterlimit="10" stroke-linecap="round"/>
<path d="M256.727 149.42C256.727 149.42 245.591 133.448 245.809 117.383" stroke="#CB6F03" stroke-miterlimit="10" stroke-linecap="round"/>
<path d="M182.361 33.5957C182.361 39.6162 187.227 44.5136 193.278 44.5136C199.33 44.5136 204.196 39.6162 204.196 33.5957" stroke="#CB6F03" stroke-miterlimit="10" stroke-linecap="round"/>
<path d="M182.361 33.5959C182.361 33.5959 193.497 17.6245 193.278 1.55957" stroke="#CB6F03" stroke-miterlimit="10" stroke-linecap="round"/>
<path d="M204.196 33.5959C204.196 33.5959 193.06 17.6245 193.278 1.55957" stroke="#CB6F03" stroke-miterlimit="10" stroke-linecap="round"/>
<path d="M253.109 173.002V157.53" stroke="#CB6F03" stroke-miterlimit="10" stroke-linecap="round"/>
<path d="M238.447 157.53V173.002" stroke="#CB6F03" stroke-miterlimit="10" stroke-linecap="round"/>
<path d="M147.111 173.002V157.53" stroke="#CB6F03" stroke-miterlimit="10" stroke-linecap="round"/>
<path d="M132.45 157.53V173.002" stroke="#CB6F03" stroke-miterlimit="10" stroke-linecap="round"/>
<path d="M349.81 245.684L334.868 226.5H364.503L349.81 245.684ZM349.81 245.684L349.685 245.84V457.274" stroke="#CB6F03" stroke-miterlimit="10" stroke-linecap="round"/>
<path d="M410.514 315.154H397.444V462.358H410.514V315.154Z" stroke="#CB6F03" stroke-miterlimit="10" stroke-linecap="round"/>
<path d="M403.963 277.19L397.444 315.154H410.514L403.963 277.19Z" stroke="#CB6F03" stroke-miterlimit="10" stroke-linecap="round"/>
<path d="M477.207 315.154H464.137V462.358H477.207V315.154Z" stroke="#CB6F03" stroke-miterlimit="10" stroke-linecap="round"/>
<path d="M470.656 277.19L464.137 315.154H477.176L470.656 277.19Z" stroke="#CB6F03" stroke-miterlimit="10" stroke-linecap="round"/>
<path d="M542.777 315.154H529.706V462.358H542.777V315.154Z" stroke="#CB6F03" stroke-miterlimit="10" stroke-linecap="round"/>
<path d="M536.257 277.19L529.706 315.154H542.777L536.257 277.19Z" stroke="#CB6F03" stroke-miterlimit="10" stroke-linecap="round"/>
<path d="M608.44 315.154L567.763 226.5" stroke="#CB6F03" stroke-miterlimit="10" stroke-linecap="round"/>
<path d="M120.877 406.989V447.385H98.9788V406.989" stroke="#CB6F03" stroke-linecap="round" stroke-linejoin="round"/>
<path d="M98.9788 406.989C98.9788 397.069 109.959 387.586 109.959 387.586" stroke="#CB6F03" stroke-linecap="round" stroke-linejoin="round"/>
<path d="M109.928 387.586C109.928 387.586 120.877 397.069 120.877 406.989" stroke="#CB6F03" stroke-linecap="round" stroke-linejoin="round"/>
<path d="M173.72 456.962V404.712" stroke="#CB6F03" stroke-linecap="round" stroke-linejoin="round"/>
<path d="M215.988 456.962V404.712" stroke="#CB6F03" stroke-linecap="round" stroke-linejoin="round"/>
<path d="M173.72 404.712C173.72 391.86 194.901 379.569 194.901 379.569" stroke="#CB6F03" stroke-linecap="round" stroke-linejoin="round"/>
<path d="M194.869 379.569C194.869 379.569 215.988 391.86 215.988 404.712" stroke="#CB6F03" stroke-linecap="round" stroke-linejoin="round"/>
<path d="M216.019 244.686V305.515H170.663V244.686" stroke="#CB6F03" stroke-linecap="round" stroke-linejoin="round"/>
<path d="M170.663 244.686C170.663 229.775 193.372 215.489 193.372 215.489" stroke="#CB6F03" stroke-linecap="round" stroke-linejoin="round"/>
<path d="M193.372 215.489C193.372 215.489 216.019 229.775 216.019 244.686" stroke="#CB6F03" stroke-linecap="round" stroke-linejoin="round"/>
<path d="M294.878 406.989V447.385H272.948V406.989" stroke="#CB6F03" stroke-linecap="round" stroke-linejoin="round"/>
<path d="M272.948 406.989C272.948 397.069 283.928 387.586 283.928 387.586" stroke="#CB6F03" stroke-linecap="round" stroke-linejoin="round"/>
<path d="M283.928 387.586C283.928 387.586 294.878 397.069 294.878 406.989" stroke="#CB6F03" stroke-linecap="round" stroke-linejoin="round"/>
<path d="M331.811 406.989V447.385H309.882V406.989" stroke="#CB6F03" stroke-linecap="round" stroke-linejoin="round"/>
<path d="M309.882 406.989C309.882 397.069 320.862 387.586 320.862 387.586" stroke="#CB6F03" stroke-linecap="round" stroke-linejoin="round"/>
<path d="M320.862 387.586C320.862 387.586 331.811 397.069 331.811 406.989" stroke="#CB6F03" stroke-linecap="round" stroke-linejoin="round"/>
<path d="M159.932 191.032V208.158H143.898V191.032" stroke="#CB6F03" stroke-linecap="round" stroke-linejoin="round"/>
<path d="M143.898 191.001C143.898 191.001 144.647 186.166 147.205 184.606H156.594" stroke="#CB6F03" stroke-linecap="round" stroke-linejoin="round"/>
<path d="M159.932 191.001C159.932 191.001 159.183 186.166 156.625 184.606H147.236" stroke="#CB6F03" stroke-linecap="round" stroke-linejoin="round"/>
<path d="M62.856 198.925V216.05H46.8223V198.925" stroke="#CB6F03" stroke-linecap="round" stroke-linejoin="round"/>
<path d="M46.8223 198.893C46.8223 198.893 47.571 194.058 50.1289 192.499H59.5183" stroke="#CB6F03" stroke-linecap="round" stroke-linejoin="round"/>
<path d="M62.856 198.893C62.856 198.893 62.1074 194.058 59.5495 192.499H50.1601" stroke="#CB6F03" stroke-linecap="round" stroke-linejoin="round"/>
<path d="M187.975 191.032V208.158H171.942V191.032" stroke="#CB6F03" stroke-linecap="round" stroke-linejoin="round"/>
<path d="M171.973 191.001C171.973 191.001 172.722 186.166 175.279 184.606H184.669" stroke="#CB6F03" stroke-linecap="round" stroke-linejoin="round"/>
<path d="M187.975 191.001C187.975 191.001 187.227 186.166 184.669 184.606H175.279" stroke="#CB6F03" stroke-linecap="round" stroke-linejoin="round"/>
<path d="M216.019 191.032V208.158H199.985V191.032" stroke="#CB6F03" stroke-linecap="round" stroke-linejoin="round"/>
<path d="M199.985 191.001C199.985 191.001 200.734 186.166 203.292 184.606H212.681" stroke="#CB6F03" stroke-linecap="round" stroke-linejoin="round"/>
<path d="M216.019 191.001C216.019 191.001 215.27 186.166 212.712 184.606H203.323" stroke="#CB6F03" stroke-linecap="round" stroke-linejoin="round"/>
<path d="M242.877 190.346V207.472H226.843V190.346" stroke="#CB6F03" stroke-linecap="round" stroke-linejoin="round"/>
<path d="M226.843 190.315C226.843 190.315 227.592 185.48 230.15 183.92H239.539" stroke="#CB6F03" stroke-linecap="round" stroke-linejoin="round"/>
<path d="M242.877 190.315C242.877 190.315 242.128 185.48 239.57 183.92H230.181" stroke="#CB6F03" stroke-linecap="round" stroke-linejoin="round"/>
<path d="M355.737 194.37V211.527H344.632V194.37" stroke="#CB6F03" stroke-linecap="round" stroke-linejoin="round"/>
<path d="M344.632 194.37C344.632 194.37 345.162 189.535 346.94 187.975H353.429" stroke="#CB6F03" stroke-linecap="round" stroke-linejoin="round"/>
<path d="M355.737 194.37C355.737 194.37 355.207 189.535 353.429 187.975H346.94" stroke="#CB6F03" stroke-linecap="round" stroke-linejoin="round"/>
<path d="M329.316 339.641V376.481H275.912V339.641" stroke="#CB6F03" stroke-linecap="round" stroke-linejoin="round"/>
<path d="M275.912 339.61C275.912 339.61 278.438 329.222 286.954 325.885H318.242" stroke="#CB6F03" stroke-linecap="round" stroke-linejoin="round"/>
<path d="M329.285 339.61C329.285 339.61 326.758 329.222 318.242 325.885H286.954" stroke="#CB6F03" stroke-linecap="round" stroke-linejoin="round"/>
<path d="M153.288 456.962V392.172" stroke="#CB6F03" stroke-linecap="round" stroke-linejoin="round"/>
<path d="M234.86 456.962V392.172" stroke="#CB6F03" stroke-linecap="round" stroke-linejoin="round"/>
<path d="M153.288 392.109C153.288 392.109 157.125 373.643 170.164 367.747H217.953" stroke="#CB6F03" stroke-linecap="round" stroke-linejoin="round"/>
<path d="M234.86 392.109C234.86 392.109 231.023 373.643 217.984 367.747H170.195" stroke="#CB6F03" stroke-linecap="round" stroke-linejoin="round"/>
<path d="M193.341 265.306C199.526 265.306 204.539 260.292 204.539 254.107C204.539 247.922 199.526 242.908 193.341 242.908C187.156 242.908 182.142 247.922 182.142 254.107C182.142 260.292 187.156 265.306 193.341 265.306Z" stroke="#CB6F03" stroke-linecap="round" stroke-linejoin="round"/>
</svg>
