<svg width="708" height="740" viewBox="0 0 708 740" fill="none" xmlns="http://www.w3.org/2000/svg">
<path d="M247.214 257.956H195.395V409.602H247.214V257.956Z" stroke="#CB6F03" stroke-miterlimit="10"/>
<path d="M314.279 356.789H666.751L706.441 410.412" stroke="#CB6F03" stroke-miterlimit="10"/>
<path d="M128.299 356.789H105.258H105.196" stroke="#CB6F03" stroke-miterlimit="10"/>
<path d="M164.809 437.177V436.304" stroke="#CB6F03" stroke-miterlimit="10"/>
<path d="M262.304 437.176V435.026" stroke="#CB6F03" stroke-miterlimit="10"/>
<path d="M314.279 409.57L370.088 356.384" stroke="#CB6F03" stroke-miterlimit="10"/>
<path d="M313.811 613.25V612.969C313.811 607.61 310.319 603.279 305.985 603.279C301.651 603.279 298.128 607.61 298.128 612.969V613.25" stroke="#CB6F03" stroke-miterlimit="10"/>
<path d="M313.811 613V613.25V640.669H298.128V613.25V613" stroke="#CB6F03" stroke-linejoin="round"/>
<path d="M407.222 613.25V612.969C407.222 607.61 403.73 603.279 399.396 603.279C395.062 603.279 391.539 607.61 391.539 612.969V613.25" stroke="#CB6F03" stroke-miterlimit="10"/>
<path d="M407.222 613V613.25V640.669H391.539V613.25V613" stroke="#CB6F03" stroke-linejoin="round"/>
<path d="M503.906 613.25V612.969C503.906 607.61 500.414 603.279 496.08 603.279C491.746 603.279 488.223 607.61 488.223 612.969V613.25" stroke="#CB6F03" stroke-miterlimit="10"/>
<path d="M503.906 613V613.25V640.669H488.223V613.25V613" stroke="#CB6F03" stroke-linejoin="round"/>
<path d="M597.909 613.25V612.969C597.909 607.61 594.417 603.279 590.083 603.279C585.749 603.279 582.226 607.61 582.226 612.969V613.25" stroke="#CB6F03" stroke-miterlimit="10"/>
<path d="M597.909 613V613.25V640.669H582.226V613.25V613" stroke="#CB6F03" stroke-linejoin="round"/>
<path d="M221.149 613.25V612.969C221.149 607.61 217.657 603.279 213.323 603.279C208.989 603.279 205.466 607.61 205.466 612.969V613.25" stroke="#CB6F03" stroke-miterlimit="10"/>
<path d="M221.149 613V613.25V640.669H205.466V613.25V613" stroke="#CB6F03" stroke-linejoin="round"/>
<path d="M143.234 613.25V612.969C143.234 607.61 139.742 603.279 135.408 603.279C131.074 603.279 127.551 607.61 127.551 612.969V613.25" stroke="#CB6F03" stroke-miterlimit="10"/>
<path d="M143.234 613V613.25V640.669H127.551V613.25V613" stroke="#CB6F03" stroke-linejoin="round"/>
<path d="M706.441 674.288H546.932H533.089H454.8H440.957H358.552H344.709H262.304H248.461H178.652H164.809H105.258H1.77716" stroke="#CB6F03" stroke-miterlimit="10"/>
<path d="M68.8108 695.538H56.963V715.105H68.8108V695.538Z" stroke="#CB6F03" stroke-miterlimit="10"/>
<path d="M142.86 695.538H131.012V715.105H142.86V695.538Z" stroke="#CB6F03" stroke-miterlimit="10"/>
<path d="M220.962 695.538H209.114V715.105H220.962V695.538Z" stroke="#CB6F03" stroke-miterlimit="10"/>
<path d="M310.974 695.538H299.126V715.105H310.974V695.538Z" stroke="#CB6F03" stroke-miterlimit="10"/>
<path d="M409.934 695.538H398.086V715.105H409.934V695.538Z" stroke="#CB6F03" stroke-miterlimit="10"/>
<path d="M503.126 695.538H491.279V715.105H503.126V695.538Z" stroke="#CB6F03" stroke-miterlimit="10"/>
<path d="M595.695 695.538H583.847V715.105H595.695V695.538Z" stroke="#CB6F03" stroke-miterlimit="10"/>
<path d="M248.461 569.099H178.652" stroke="#CB6F03" stroke-miterlimit="10"/>
<path d="M440.957 569.099H358.552" stroke="#CB6F03" stroke-miterlimit="10"/>
<path d="M633.109 569.099H546.932" stroke="#CB6F03" stroke-miterlimit="10"/>
<path d="M706.441 569.099H683.806" stroke="#CB6F03" stroke-miterlimit="10"/>
<path d="M669.962 569.099H646.953" stroke="#CB6F03" stroke-miterlimit="10"/>
<path d="M533.089 569.099H454.8" stroke="#CB6F03" stroke-miterlimit="10"/>
<path d="M344.709 569.099H262.304" stroke="#CB6F03" stroke-miterlimit="10"/>
<path d="M214.321 436.803L248.929 465.219" stroke="#CB6F03" stroke-miterlimit="10"/>
<path d="M210.86 436.803L176.252 465.219" stroke="#CB6F03" stroke-miterlimit="10"/>
<path d="M164.809 464.658V569.099V594.056V640.793V674.288V675.815" stroke="#CB6F03" stroke-miterlimit="10"/>
<path d="M178.652 675.191V674.288V594.056V569.099V498.931V464.658V463.318V437.176V435.681" stroke="#CB6F03" stroke-miterlimit="10"/>
<path d="M248.461 675.191V674.288V594.056V569.099V498.931V464.876V464.658V437.176V435.681" stroke="#CB6F03" stroke-miterlimit="10"/>
<path d="M262.304 674.537V674.288V569.099V464.658" stroke="#CB6F03" stroke-miterlimit="10"/>
<path d="M344.709 436.273V675.815" stroke="#CB6F03" stroke-miterlimit="10"/>
<path d="M358.552 675.191V674.288V594.056V569.099V498.807V464.658V437.176V435.681" stroke="#CB6F03" stroke-miterlimit="10"/>
<path d="M440.957 676.438V674.288V640.793V594.057V569.099V498.807V464.658V437.177V436.927" stroke="#CB6F03" stroke-miterlimit="10"/>
<path d="M454.8 436.273V675.815" stroke="#CB6F03" stroke-miterlimit="10"/>
<path d="M533.089 436.927V676.438" stroke="#CB6F03" stroke-miterlimit="10"/>
<path d="M546.932 675.815V674.288V640.793V594.057V569.099V498.807V464.658V437.177V436.304" stroke="#CB6F03" stroke-miterlimit="10"/>
<path d="M633.109 673.821V569.099V464.658V437.176V434.279" stroke="#CB6F03" stroke-miterlimit="10"/>
<path d="M646.953 673.167V569.099V464.658V437.177V433.656" stroke="#CB6F03" stroke-miterlimit="10"/>
<path d="M669.962 673.821V569.099V464.658V437.176V434.279" stroke="#CB6F03" stroke-miterlimit="10"/>
<path d="M683.806 673.167V569.099V464.658V437.177V433.656" stroke="#CB6F03" stroke-miterlimit="10"/>
<path d="M597.909 512.547V512.267C597.909 506.908 594.417 502.577 590.083 502.577C585.749 502.577 582.226 506.908 582.226 512.267V512.547" stroke="#CB6F03" stroke-miterlimit="10"/>
<path d="M597.909 512.267V512.547V539.935H582.226V512.547V512.267" stroke="#CB6F03" stroke-linejoin="round"/>
<path d="M503.906 512.547V512.267C503.906 506.908 500.414 502.577 496.08 502.577C491.746 502.577 488.223 506.908 488.223 512.267V512.547" stroke="#CB6F03" stroke-miterlimit="10"/>
<path d="M503.906 512.267V512.547V539.935H488.223V512.547V512.267" stroke="#CB6F03" stroke-linejoin="round"/>
<path d="M407.222 512.547V512.267C407.222 506.908 403.73 502.577 399.396 502.577C395.062 502.577 391.539 506.908 391.539 512.267V512.547" stroke="#CB6F03" stroke-miterlimit="10"/>
<path d="M407.222 512.267V512.547V539.935H391.539V512.547V512.267" stroke="#CB6F03" stroke-linejoin="round"/>
<path d="M313.811 512.547V512.267C313.811 506.908 310.319 502.577 305.985 502.577C301.651 502.577 298.128 506.908 298.128 512.267V512.547" stroke="#CB6F03" stroke-miterlimit="10"/>
<path d="M313.811 512.267V512.547V539.935H298.128V512.547V512.267" stroke="#CB6F03" stroke-linejoin="round"/>
<path d="M221.149 512.547V512.267C221.149 506.908 217.657 502.577 213.323 502.577C208.989 502.577 205.466 506.908 205.466 512.267V512.547" stroke="#CB6F03" stroke-miterlimit="10"/>
<path d="M221.149 512.267V512.547V539.935H205.466V512.547V512.267" stroke="#CB6F03" stroke-linejoin="round"/>
<path d="M164.809 569.099H105.258" stroke="#CB6F03" stroke-miterlimit="10"/>
<path d="M66.753 616.397V616.116C66.753 610.757 60.5174 606.426 52.7539 606.426C44.9905 606.426 38.7236 610.757 38.7236 616.116V616.397" stroke="#CB6F03" stroke-miterlimit="10"/>
<path d="M66.753 616.116V616.397V643.784H38.7236V616.397V616.116" stroke="#CB6F03" stroke-linejoin="round"/>
<path d="M31.2096 601.69L30.8043 601.285L52.7228 579.381L74.6412 601.285L74.2359 601.69" stroke="#CB6F03" stroke-miterlimit="10"/>
<path d="M105.009 601.69H74.2358" stroke="#CB6F03" stroke-miterlimit="10"/>
<path d="M31.2096 601.69H1.77717H1.4342" stroke="#CB6F03" stroke-miterlimit="10"/>
<path d="M1.77717 572.589H1.4342" stroke="#CB6F03" stroke-miterlimit="10"/>
<path d="M1.77716 555.327C14.685 547.226 32.7997 542.21 52.8474 542.21C72.8952 542.21 92.257 547.6 105.258 556.2" stroke="#CB6F03" stroke-miterlimit="10"/>
<path d="M706.441 410.412H105.258V437.145H706.441V410.412Z" stroke="#CB6F03" stroke-miterlimit="10"/>
<path d="M1.77716 437.176V430.29V333.763H105.258V410.412V437.176" stroke="#CB6F03" stroke-miterlimit="10"/>
<path d="M314.248 257.956H128.299V409.602H314.248V257.956Z" stroke="#CB6F03" stroke-miterlimit="10"/>
<path d="M104.011 464.658H105.258H164.809H170.11H177H178.652" stroke="#CB6F03" stroke-miterlimit="10"/>
<path d="M706.753 464.658H706.441H683.806H669.962H646.953H633.109H546.932H533.089H454.8H440.957H358.552H344.709H262.304H248.461H248.18" stroke="#CB6F03" stroke-miterlimit="10"/>
<path d="M60.9538 381.559V381.217C60.9538 374.237 57.2748 368.598 52.7227 368.598C48.1707 368.598 44.4604 374.237 44.4604 381.217V381.559" stroke="#CB6F03" stroke-miterlimit="10"/>
<path d="M60.9538 381.217V381.56V417.204H44.4916V381.56V381.217" stroke="#CB6F03" stroke-linejoin="round"/>
<path d="M0 458.738H104.011" stroke="#CB6F03" stroke-miterlimit="10"/>
<path d="M11.006 458.488V473.724" stroke="#CB6F03" stroke-miterlimit="10"/>
<path d="M22.5108 458.488V473.724" stroke="#CB6F03" stroke-miterlimit="10"/>
<path d="M33.0179 458.488V473.724" stroke="#CB6F03" stroke-miterlimit="10"/>
<path d="M43.4939 458.488V473.724" stroke="#CB6F03" stroke-miterlimit="10"/>
<path d="M54.001 458.488V473.724" stroke="#CB6F03" stroke-miterlimit="10"/>
<path d="M64.2588 458.488V473.724" stroke="#CB6F03" stroke-miterlimit="10"/>
<path d="M74.5165 458.488V473.724" stroke="#CB6F03" stroke-miterlimit="10"/>
<path d="M83.9947 458.488V473.724" stroke="#CB6F03" stroke-miterlimit="10"/>
<path d="M94.5018 458.488V473.724" stroke="#CB6F03" stroke-miterlimit="10"/>
<path d="M143.234 512.547V512.267C143.234 506.908 139.742 502.577 135.408 502.577C131.074 502.577 127.551 506.908 127.551 512.267V512.547" stroke="#CB6F03" stroke-miterlimit="10"/>
<path d="M143.234 512.267V512.547V539.935H127.551V512.547V512.267" stroke="#CB6F03" stroke-linejoin="round"/>
<path d="M66.753 514.697V514.417C66.753 509.058 60.5174 504.727 52.7539 504.727C44.9905 504.727 38.7236 509.058 38.7236 514.417V514.697" stroke="#CB6F03" stroke-miterlimit="10"/>
<path d="M66.753 514.448V514.697V542.116H38.7236V514.697V514.448" stroke="#CB6F03" stroke-linejoin="round"/>
<path d="M105.258 437.176H178.652H210.454H214.726H248.461H344.709H358.552H440.957H454.8H533.089H546.932H633.109H646.953H669.962H683.806H706.441V464.658V569.099V674.288V738.442H1.77716V674.288V601.69V572.588V555.327V458.738V437.176" stroke="#CB6F03" stroke-miterlimit="10"/>
<path d="M105.258 674.288V640.793V569.099V556.199V464.658V437.176" stroke="#CB6F03" stroke-miterlimit="10"/>
<path d="M1.18475 430.602C14.0926 422.501 32.2073 417.485 52.255 417.485C72.3028 417.485 91.6646 422.875 104.666 431.475" stroke="#CB6F03" stroke-miterlimit="10"/>
<path d="M115.734 594.056C116.015 587.326 124.589 581.936 135.19 581.936C145.79 581.936 154.396 587.326 154.645 594.056" stroke="#CB6F03" stroke-miterlimit="10" stroke-linecap="square"/>
<path d="M164.03 594.056H154.645" stroke="#CB6F03" stroke-miterlimit="10" stroke-linecap="square"/>
<path d="M115.734 594.056H105.882" stroke="#CB6F03" stroke-miterlimit="10" stroke-linecap="square"/>
<path d="M194.117 594.056C194.398 587.326 202.972 581.936 213.572 581.936C224.173 581.936 232.778 587.326 233.028 594.056" stroke="#CB6F03" stroke-miterlimit="10" stroke-linecap="square"/>
<path d="M242.412 594.056H233.059" stroke="#CB6F03" stroke-miterlimit="10" stroke-linecap="square"/>
<path d="M194.117 594.056H184.265" stroke="#CB6F03" stroke-miterlimit="10" stroke-linecap="square"/>
<path d="M286.499 594.056C286.779 587.326 295.353 581.936 305.954 581.936C316.555 581.936 325.16 587.326 325.409 594.056" stroke="#CB6F03" stroke-miterlimit="10" stroke-linecap="square"/>
<path d="M336.509 594.056H327.124" stroke="#CB6F03" stroke-miterlimit="10" stroke-linecap="square"/>
<path d="M379.442 594.056C379.722 587.326 388.296 581.936 398.897 581.936C409.498 581.936 418.103 587.326 418.352 594.056" stroke="#CB6F03" stroke-miterlimit="10" stroke-linecap="square"/>
<path d="M427.737 594.056H418.383" stroke="#CB6F03" stroke-miterlimit="10" stroke-linecap="square"/>
<path d="M379.442 594.056H369.589" stroke="#CB6F03" stroke-miterlimit="10" stroke-linecap="square"/>
<path d="M476.375 594.056C476.656 587.326 485.23 581.936 495.831 581.936C506.431 581.936 515.037 587.326 515.286 594.056" stroke="#CB6F03" stroke-miterlimit="10" stroke-linecap="square"/>
<path d="M524.671 594.056H515.317" stroke="#CB6F03" stroke-miterlimit="10" stroke-linecap="square"/>
<path d="M476.375 594.056H466.523" stroke="#CB6F03" stroke-miterlimit="10" stroke-linecap="square"/>
<path d="M570.472 594.056C570.753 587.326 579.358 581.936 589.927 581.936C600.497 581.936 609.133 587.326 609.383 594.056" stroke="#CB6F03" stroke-miterlimit="10" stroke-linecap="square"/>
<path d="M618.767 594.056H609.383" stroke="#CB6F03" stroke-miterlimit="10" stroke-linecap="square"/>
<path d="M570.472 594.056H560.62" stroke="#CB6F03" stroke-miterlimit="10" stroke-linecap="square"/>
<path d="M572.623 498.9C572.904 492.17 581.478 486.78 592.079 486.78C602.679 486.78 611.284 492.17 611.534 498.9" stroke="#CB6F03" stroke-miterlimit="10" stroke-linecap="square"/>
<path d="M620.919 498.9H611.534" stroke="#CB6F03" stroke-miterlimit="10" stroke-linecap="square"/>
<path d="M572.623 498.9H562.771" stroke="#CB6F03" stroke-miterlimit="10" stroke-linecap="square"/>
<path d="M475.658 498.9C475.939 492.17 484.513 486.78 495.114 486.78C505.714 486.78 514.32 492.17 514.569 498.9" stroke="#CB6F03" stroke-miterlimit="10" stroke-linecap="square"/>
<path d="M523.954 498.9H514.6" stroke="#CB6F03" stroke-miterlimit="10" stroke-linecap="square"/>
<path d="M475.658 498.9H465.837" stroke="#CB6F03" stroke-miterlimit="10" stroke-linecap="square"/>
<path d="M380.876 498.9C381.156 492.17 389.731 486.78 400.331 486.78C410.932 486.78 419.537 492.17 419.787 498.9" stroke="#CB6F03" stroke-miterlimit="10" stroke-linecap="square"/>
<path d="M429.171 498.9H419.786" stroke="#CB6F03" stroke-miterlimit="10" stroke-linecap="square"/>
<path d="M380.876 498.9H371.023" stroke="#CB6F03" stroke-miterlimit="10" stroke-linecap="square"/>
<path d="M286.062 498.9C286.343 492.17 294.917 486.78 305.517 486.78C316.118 486.78 324.723 492.17 324.973 498.9" stroke="#CB6F03" stroke-miterlimit="10" stroke-linecap="square"/>
<path d="M334.358 498.9H325.004" stroke="#CB6F03" stroke-miterlimit="10" stroke-linecap="square"/>
<path d="M286.062 498.9H276.241" stroke="#CB6F03" stroke-miterlimit="10" stroke-linecap="square"/>
<path d="M194.117 498.9C194.398 492.17 202.972 486.78 213.572 486.78C224.173 486.78 232.778 492.17 233.028 498.9" stroke="#CB6F03" stroke-miterlimit="10" stroke-linecap="square"/>
<path d="M242.412 498.9H233.059" stroke="#CB6F03" stroke-miterlimit="10" stroke-linecap="square"/>
<path d="M194.117 498.9H184.265" stroke="#CB6F03" stroke-miterlimit="10" stroke-linecap="square"/>
<path d="M116.42 498.9C116.701 492.17 125.275 486.78 135.876 486.78C146.476 486.78 155.082 492.17 155.331 498.9" stroke="#CB6F03" stroke-miterlimit="10" stroke-linecap="square"/>
<path d="M164.716 498.9H155.362" stroke="#CB6F03" stroke-miterlimit="10" stroke-linecap="square"/>
<path d="M116.42 498.9H106.599" stroke="#CB6F03" stroke-miterlimit="10" stroke-linecap="square"/>
<path d="M154.645 594.056H164.03H164.809H178.652H184.265H194.117" stroke="#CB6F03" stroke-miterlimit="10" stroke-linecap="square"/>
<path d="M379.442 594.056H369.589H358.552H344.709H336.509H327.124" stroke="#CB6F03" stroke-miterlimit="10" stroke-linecap="square"/>
<path d="M570.472 594.056H560.62H546.932H533.089H524.671H515.317" stroke="#CB6F03" stroke-miterlimit="10" stroke-linecap="square"/>
<path d="M609.383 594.056H618.767H630.802" stroke="#CB6F03" stroke-miterlimit="10" stroke-linecap="square"/>
<path d="M476.375 594.056H466.523H454.8H440.957H427.737H418.383" stroke="#CB6F03" stroke-miterlimit="10" stroke-linecap="square"/>
<path d="M284.722 594.056H275.493H260.465H247.494H241.82H233.059" stroke="#CB6F03" stroke-miterlimit="10" stroke-linecap="square"/>
<path d="M115.734 594.056H105.882" stroke="#CB6F03" stroke-miterlimit="10" stroke-linecap="square"/>
<path d="M164.934 498.807H178.652H178.777H194.117" stroke="#CB6F03" stroke-miterlimit="10" stroke-linecap="square"/>
<path d="M325.004 498.807H344.709H344.834H358.552H358.677H380.876" stroke="#CB6F03" stroke-miterlimit="10" stroke-linecap="square"/>
<path d="M514.6 498.807H533.089H533.214H546.932H547.057H572.623" stroke="#CB6F03" stroke-miterlimit="10" stroke-linecap="square"/>
<path d="M632.08 498.807H611.534" stroke="#CB6F03" stroke-miterlimit="10" stroke-linecap="square"/>
<path d="M475.689 498.807H454.925H454.8H441.081H440.957H419.786" stroke="#CB6F03" stroke-miterlimit="10" stroke-linecap="square"/>
<path d="M286.062 498.807H262.429H262.304H248.586H248.461H233.059" stroke="#CB6F03" stroke-miterlimit="10" stroke-linecap="square"/>
<path d="M115.734 594.056V673.976" stroke="#CB6F03" stroke-miterlimit="10" stroke-linecap="square"/>
<path d="M154.645 594.056V673.976" stroke="#CB6F03" stroke-miterlimit="10" stroke-linecap="square"/>
<path d="M194.117 594.056V673.665" stroke="#CB6F03" stroke-miterlimit="10" stroke-linecap="square"/>
<path d="M233.059 594.056V672.045" stroke="#CB6F03" stroke-miterlimit="10" stroke-linecap="square"/>
<path d="M286.499 594.056V673.665" stroke="#CB6F03" stroke-miterlimit="10" stroke-linecap="square"/>
<path d="M325.441 594.056V674.257" stroke="#CB6F03" stroke-miterlimit="10" stroke-linecap="square"/>
<path d="M379.442 673.665V640.793V594.056" stroke="#CB6F03" stroke-miterlimit="10" stroke-linecap="square"/>
<path d="M418.383 594.056V673.945" stroke="#CB6F03" stroke-miterlimit="10" stroke-linecap="square"/>
<path d="M476.375 594.056V673.353" stroke="#CB6F03" stroke-miterlimit="10" stroke-linecap="square"/>
<path d="M515.317 594.056V674.257" stroke="#CB6F03" stroke-miterlimit="10" stroke-linecap="square"/>
<path d="M609.383 672.699V640.793V594.056" stroke="#CB6F03" stroke-miterlimit="10" stroke-linecap="square"/>
<path d="M570.472 594.056V672.637" stroke="#CB6F03" stroke-miterlimit="10" stroke-linecap="square"/>
<path d="M154.645 640.793H115.734" stroke="#CB6F03" stroke-miterlimit="10" stroke-linecap="square"/>
<path d="M233.059 640.793H194.117" stroke="#CB6F03" stroke-miterlimit="10" stroke-linecap="square"/>
<path d="M515.317 640.793H476.375" stroke="#CB6F03" stroke-miterlimit="10" stroke-linecap="square"/>
<path d="M609.383 640.793H570.472" stroke="#CB6F03" stroke-miterlimit="10" stroke-linecap="square"/>
<path d="M418.383 640.793H379.442" stroke="#CB6F03" stroke-miterlimit="10" stroke-linecap="square"/>
<path d="M325.409 640.793H286.499" stroke="#CB6F03" stroke-miterlimit="10" stroke-linecap="square"/>
<path d="M243.161 157.098H199.448C172.729 157.098 154.957 168.938 141.301 188.755C132.851 200.968 128.33 215.488 128.33 230.35V257.956H314.31V230.35C314.31 215.488 309.789 201 301.34 188.755C287.652 168.938 269.912 157.098 243.192 157.098H243.161Z" stroke="#CB6F03" stroke-miterlimit="10"/>
<path d="M202.753 99.8301H239.7C246.746 99.8301 252.483 105.563 252.483 112.605V157.098H189.97V112.605C189.97 105.563 195.707 99.8301 202.753 99.8301Z" stroke="#CB6F03" stroke-miterlimit="10"/>
<path d="M230.097 99.8298H212.481C209.956 99.8298 207.43 99.3624 205.185 98.2096C192.153 91.4483 195.021 77.4584 201.288 66.1792L221.273 30.3477L241.259 66.1792C247.557 77.4584 250.394 91.4483 237.361 98.2096C235.117 99.3624 232.591 99.8298 230.066 99.8298H230.097Z" stroke="#CB6F03" stroke-miterlimit="10"/>
<path d="M235.678 296.499V368.598H210.86V296.499C210.86 289.675 216.41 284.098 223.269 284.098C230.128 284.098 235.678 289.675 235.678 296.499Z" stroke="#CB6F03" stroke-miterlimit="10"/>
<path d="M223.269 284.098V368.598" stroke="#CB6F03" stroke-miterlimit="10"/>
<path d="M293.14 296.499V368.598H268.322V296.499C268.322 289.675 273.871 284.098 280.731 284.098C287.59 284.098 293.14 289.675 293.14 296.499Z" stroke="#CB6F03" stroke-miterlimit="10"/>
<path d="M280.731 284.098V368.598" stroke="#CB6F03" stroke-miterlimit="10"/>
<path d="M174.256 296.499V368.598H149.438V296.499C149.438 289.675 154.988 284.098 161.847 284.098C168.707 284.098 174.256 289.675 174.256 296.499Z" stroke="#CB6F03" stroke-miterlimit="10"/>
<path d="M161.847 284.098V368.598" stroke="#CB6F03" stroke-miterlimit="10"/>
<path d="M247.183 257.956L221.367 157.815C221.305 157.628 221.055 157.628 220.993 157.815L195.333 257.956" stroke="#CB6F03" stroke-miterlimit="10"/>
<path d="M221.305 214.958H221.273C218.518 214.958 216.285 217.19 216.285 219.944V226.954C216.285 229.708 218.518 231.94 221.273 231.94H221.305C224.06 231.94 226.293 229.708 226.293 226.954V219.944C226.293 217.19 224.06 214.958 221.305 214.958Z" stroke="#CB6F03" stroke-miterlimit="10"/>
<path d="M275.773 214.958H275.742C272.987 214.958 270.754 217.19 270.754 219.944V226.954C270.754 229.708 272.987 231.94 275.742 231.94H275.773C278.528 231.94 280.762 229.708 280.762 226.954V219.944C280.762 217.19 278.528 214.958 275.773 214.958Z" stroke="#CB6F03" stroke-miterlimit="10"/>
<path d="M221.242 119.958H221.211C218.456 119.958 216.222 122.19 216.222 124.943V131.954C216.222 134.707 218.456 136.939 221.211 136.939H221.242C223.997 136.939 226.231 134.707 226.231 131.954V124.943C226.231 122.19 223.997 119.958 221.242 119.958Z" stroke="#CB6F03" stroke-miterlimit="10"/>
<path d="M163.593 214.958H163.562C160.807 214.958 158.574 217.19 158.574 219.944V226.954C158.574 229.708 160.807 231.94 163.562 231.94H163.593C166.348 231.94 168.582 229.708 168.582 226.954V219.944C168.582 217.19 166.348 214.958 163.593 214.958Z" stroke="#CB6F03" stroke-miterlimit="10"/>
<path d="M221.305 30.3477V9.53418" stroke="#CB6F03" stroke-miterlimit="10"/>
<path d="M221.305 9.53453C223.509 9.53453 225.295 7.74894 225.295 5.54632C225.295 3.34369 223.509 1.55811 221.305 1.55811C219.101 1.55811 217.314 3.34369 217.314 5.54632C217.314 7.74894 219.101 9.53453 221.305 9.53453Z" stroke="#CB6F03" stroke-miterlimit="10"/>
<path d="M56.5577 103.912H50.4779C49.6049 103.912 48.7319 103.756 47.9525 103.351C43.4628 101.045 44.4293 96.3092 46.6118 92.4768L53.5022 80.3252L60.3927 92.4768C62.5752 96.3092 63.5417 101.045 59.052 103.351C58.2725 103.756 57.3995 103.912 56.5265 103.912H56.5577Z" stroke="#CB6F03" stroke-miterlimit="10"/>
<path d="M53.5334 222.623C62.5908 222.623 69.9333 215.286 69.9333 206.234C69.9333 197.183 62.5908 189.845 53.5334 189.845C44.476 189.845 37.1335 197.183 37.1335 206.234C37.1335 215.286 44.476 222.623 53.5334 222.623Z" stroke="#CB6F03" stroke-miterlimit="10"/>
<path d="M72.9264 185.639H64.8511C61.4839 183.77 57.6489 182.741 53.5334 182.741C49.4178 182.741 45.5829 183.77 42.2156 185.639H34.1092L35.6681 143.981H71.3986L72.9264 185.639Z" stroke="#CB6F03" stroke-miterlimit="10"/>
<path d="M82.8723 185.639V154.138" stroke="#CB6F03" stroke-miterlimit="10"/>
<path d="M24.1633 185.639V154.138" stroke="#CB6F03" stroke-miterlimit="10"/>
<path d="M61.328 103.912H45.7387L32.1138 142.111C31.802 143.015 32.4567 143.981 33.4233 143.981H73.5811C74.5476 143.981 75.2336 143.015 74.8906 142.111L61.2656 103.912H61.328Z" stroke="#CB6F03" stroke-miterlimit="10"/>
<path d="M53.5334 80.2941V36.8911" stroke="#CB6F03" stroke-miterlimit="10"/>
<path d="M72.9264 226.861V296.405H34.1092V226.861H42.1532C45.5205 228.73 49.3866 229.79 53.5334 229.79C57.6801 229.79 61.5462 228.73 64.9135 226.861H72.9264Z" stroke="#CB6F03" stroke-miterlimit="10"/>
<path d="M82.8723 185.639V226.861H64.9135C61.5462 228.73 57.6801 229.79 53.5334 229.79C49.3866 229.79 45.5205 228.73 42.1532 226.861H24.1633V185.639H42.2156C45.5829 183.769 49.4178 182.741 53.5334 182.741C57.6489 182.741 61.4839 183.769 64.8511 185.639H82.8723Z" stroke="#CB6F03" stroke-miterlimit="10"/>
<path d="M88.4221 296.405H18.6135L24.2256 226.861H42.1533C45.5205 228.73 49.3866 229.79 53.5334 229.79C57.6801 229.79 61.5462 228.73 64.9135 226.861H82.8099L88.4221 296.405Z" stroke="#CB6F03" stroke-miterlimit="10"/>
<path d="M53.6269 254.093C49.8232 254.093 46.7677 256.585 46.7677 259.639L46.1753 296.374H61.1098L60.5174 259.639C60.5174 256.554 57.4307 254.093 53.6581 254.093H53.6269Z" stroke="#CB6F03" stroke-miterlimit="10"/>
<path d="M14.8721 296.405H92.1635C99.3969 296.405 105.258 302.263 105.258 309.492V333.764H1.77716V309.492C1.77716 302.263 7.63871 296.405 14.8721 296.405Z" stroke="#CB6F03" stroke-miterlimit="10"/>
<path d="M80.5339 296.405H26.5328V333.764H80.5339V296.405Z" stroke="#CB6F03" stroke-miterlimit="10"/>
</svg>
