<svg width="773" height="401" viewBox="0 0 773 401" fill="none" xmlns="http://www.w3.org/2000/svg">
<path d="M71.042 27.0932V0" stroke="#CB6F03" stroke-miterlimit="10"/>
<path d="M128.92 305.129L104.474 279.986H37.6453L13.1985 305.129" stroke="#CB6F03" stroke-miterlimit="10"/>
<path d="M13.1985 110.497H21.5912H37.1578H104.961" stroke="#CB6F03" stroke-miterlimit="10"/>
<path d="M13.1985 167.783H128.92" stroke="#CB6F03" stroke-miterlimit="10"/>
<path d="M13.1985 70.6582L4.77094 110.532H21.5912L13.1985 70.6582Z" stroke="#CB6F03" stroke-miterlimit="10"/>
<path d="M128.92 70.6582L120.493 110.532H137.348L128.92 70.6582Z" stroke="#CB6F03" stroke-miterlimit="10"/>
<path d="M71.042 26.8147L37.1577 110.532H104.961L71.042 26.8147Z" stroke="#CB6F03" stroke-miterlimit="10"/>
<path d="M100.643 100.607L124.428 90.5776" stroke="#CB6F03" stroke-miterlimit="10"/>
<path d="M41.5457 100.607L17.3774 90.5776" stroke="#CB6F03" stroke-miterlimit="10"/>
<path d="M137.104 110.462H4.97992V123.069H137.104V110.462Z" stroke="#CB6F03" stroke-miterlimit="10"/>
<path d="M13.1985 70.6582V50.9478" stroke="#CB6F03" stroke-miterlimit="10"/>
<path d="M128.92 74.2103V50.9478" stroke="#CB6F03" stroke-miterlimit="10"/>
<path d="M57.1122 140.341C57.1122 140.098 57.1122 139.819 57.1122 139.61C56.7292 134.421 52.4457 130.347 47.1872 130.347C41.9287 130.347 37.6105 134.421 37.2274 139.61C37.2274 139.819 37.2274 140.098 37.2274 140.341" stroke="#CB6F03" stroke-miterlimit="10"/>
<path d="M57.0773 139.61H57.1122V140.341V167.783H37.1577V140.341V139.61H37.1925" stroke="#CB6F03" stroke-miterlimit="10"/>
<path d="M85.0413 139.61C85.4243 134.421 89.7426 130.347 95.0011 130.347C100.26 130.347 104.578 134.421 104.961 139.61" stroke="#CB6F03" stroke-miterlimit="10"/>
<path d="M85.0414 139.61C85.0414 139.819 85.0414 140.098 85.0414 140.341V139.61Z" stroke="#CB6F03" stroke-miterlimit="10"/>
<path d="M104.961 139.61V140.341C104.961 140.098 104.961 139.819 104.961 139.61Z" stroke="#CB6F03" stroke-miterlimit="10"/>
<path d="M104.961 140.342V167.783H85.0066V140.342" stroke="#CB6F03" stroke-miterlimit="10"/>
<path d="M336.927 305.129H169.526" stroke="#CB6F03" stroke-miterlimit="10"/>
<path d="M733.788 305.129H561.615" stroke="#CB6F03" stroke-miterlimit="10"/>
<path d="M141.945 305.129H128.92H13.1985H1.74121V399.259H132.298H179.451H193.276H314.709H386.9H508.368H587.525H709.027H771.259V396.055V357.574" stroke="#CB6F03" stroke-miterlimit="10"/>
<path d="M534.034 305.129H364.439" stroke="#CB6F03" stroke-miterlimit="10"/>
<path d="M128.92 123.069V167.783V227.053V305.129H13.1985V227.053V167.783V123.069" stroke="#CB6F03" stroke-miterlimit="10"/>
<path d="M314.709 399.259C315.336 395.776 315.649 392.155 315.649 388.463C315.649 354.371 288.034 326.79 253.975 326.79C219.917 326.79 192.301 354.371 192.301 388.463C192.301 392.155 192.649 395.776 193.241 399.259" stroke="#CB6F03" stroke-miterlimit="10"/>
<path d="M508.368 399.259C508.995 395.776 509.309 392.155 509.309 388.463C509.309 354.371 481.693 326.79 447.634 326.79C413.576 326.79 385.96 354.371 385.96 388.463C385.96 392.155 386.308 395.776 386.9 399.259" stroke="#CB6F03" stroke-miterlimit="10"/>
<path d="M709.027 399.259C709.654 395.776 709.967 392.155 709.967 388.463C709.967 354.371 682.352 326.79 648.293 326.79C614.235 326.79 586.584 354.371 586.584 388.463C586.584 392.155 586.898 395.776 587.525 399.259" stroke="#CB6F03" stroke-miterlimit="10"/>
<path d="M57.8783 183.593H38.1328V212.567H57.8783V183.593Z" stroke="#CB6F03" stroke-miterlimit="10"/>
<path d="M104.857 183.593H85.1111V212.567H104.857V183.593Z" stroke="#CB6F03" stroke-miterlimit="10"/>
<path d="M13.1985 227.053H128.92" stroke="#CB6F03" stroke-miterlimit="10"/>
<path d="M179.451 360.743V399.259H132.298V360.743" stroke="#CB6F03" stroke-miterlimit="10"/>
<path d="M179.451 360.743L169.526 343.749H142.223L132.298 360.743" stroke="#CB6F03" stroke-miterlimit="10"/>
<path d="M169.526 298.408H141.979V343.749H169.526V298.408Z" stroke="#CB6F03" stroke-miterlimit="10"/>
<path d="M160.924 274.449H150.268V298.408H160.924V274.449Z" stroke="#CB6F03" stroke-miterlimit="10"/>
<path d="M374.364 360.743V399.259H327.246V360.743" stroke="#CB6F03" stroke-miterlimit="10"/>
<path d="M374.364 360.743L364.439 343.749H337.171L327.246 360.743" stroke="#CB6F03" stroke-miterlimit="10"/>
<path d="M364.439 298.408H336.892V343.749H364.439V298.408Z" stroke="#CB6F03" stroke-miterlimit="10"/>
<path d="M355.837 274.449H345.181V298.408H355.837V274.449Z" stroke="#CB6F03" stroke-miterlimit="10"/>
<path d="M571.54 360.743V399.259H524.388V360.743" stroke="#CB6F03" stroke-miterlimit="10"/>
<path d="M571.505 360.743L561.58 343.749H534.313L524.388 360.743" stroke="#CB6F03" stroke-miterlimit="10"/>
<path d="M561.58 298.408H534.034V343.749H561.58V298.408Z" stroke="#CB6F03" stroke-miterlimit="10"/>
<path d="M552.979 274.449H542.322V298.408H552.979V274.449Z" stroke="#CB6F03" stroke-miterlimit="10"/>
<path d="M724.106 360.743V399.259H771.259V360.743" stroke="#CB6F03" stroke-miterlimit="10"/>
<path d="M771.259 360.743L761.334 343.749H734.066L724.141 360.743" stroke="#CB6F03" stroke-miterlimit="10"/>
<path d="M761.334 298.408H733.788V343.749H761.334V298.408Z" stroke="#CB6F03" stroke-miterlimit="10"/>
<path d="M752.732 274.449H742.076V298.408H752.732V274.449Z" stroke="#CB6F03" stroke-miterlimit="10"/>
<path d="M13.1985 242.968H128.92" stroke="#CB6F03" stroke-miterlimit="10"/>
<path d="M336.927 313.104H169.526" stroke="#CB6F03" stroke-miterlimit="10"/>
<path d="M733.788 313.104H561.615" stroke="#CB6F03" stroke-miterlimit="10"/>
<path d="M534.034 313.104H364.439" stroke="#CB6F03" stroke-miterlimit="10"/>
<path d="M141.945 313.104H1.74121" stroke="#CB6F03" stroke-miterlimit="10"/>
<path d="M392.507 360.743H374.364" stroke="#CB6F03" stroke-miterlimit="10"/>
<path d="M524.388 360.743H502.727" stroke="#CB6F03" stroke-miterlimit="10"/>
<path d="M198.883 360.743H179.451" stroke="#CB6F03" stroke-miterlimit="10"/>
<path d="M327.246 360.743H309.103" stroke="#CB6F03" stroke-miterlimit="10"/>
<path d="M724.106 360.743H703.386" stroke="#CB6F03" stroke-miterlimit="10"/>
<path d="M593.166 360.743H571.54" stroke="#CB6F03" stroke-miterlimit="10"/>
<path d="M132.298 360.743H1.74121" stroke="#CB6F03" stroke-miterlimit="10"/>
<path d="M37.1926 123.069L37.2274 139.157L37.3319 167.783" stroke="#CB6F03" stroke-miterlimit="10"/>
<path d="M37.6452 279.986L37.5408 242.933" stroke="#CB6F03" stroke-miterlimit="10"/>
<path d="M104.961 123.069V139.61V140.341V167.783" stroke="#CB6F03" stroke-miterlimit="10"/>
<path d="M104.961 279.986V242.933" stroke="#CB6F03" stroke-miterlimit="10"/>
</svg>
