<svg width="561" height="317" viewBox="0 0 561 317" fill="none" xmlns="http://www.w3.org/2000/svg">
<g clip-path="url(#clip0_524_1254)">
<path d="M288.157 94.9905H272.843V105.253H288.157V94.9905Z" stroke="#CB6F03" stroke-miterlimit="10"/>
<path d="M275.302 256.154V264.908" stroke="#CB6F03" stroke-miterlimit="10"/>
<path d="M275.302 270.113V278.868" stroke="#CB6F03" stroke-miterlimit="10"/>
<path d="M285.698 256.154V264.908" stroke="#CB6F03" stroke-miterlimit="10"/>
<path d="M285.698 270.113V278.868" stroke="#CB6F03" stroke-miterlimit="10"/>
<path d="M280.512 118.264H121.398V86.6248H280.512" stroke="#CB6F03" stroke-miterlimit="10"/>
<path d="M280.512 74.4165H126.39H121.398V86.6247H280.512" stroke="#CB6F03" stroke-miterlimit="10"/>
<path d="M280.512 28.3318H186.432V20.574H280.512" stroke="#CB6F03" stroke-miterlimit="10"/>
<path d="M280.512 133.755H105.353H59.0679H56.1948V148.931H59.0679H105.353H280.512" stroke="#CB6F03" stroke-miterlimit="10"/>
<path d="M59.0679 148.93V156.129V166.294V180.01V236.577V242.802V249.028V291.951H87.3358H105.353V249.028V242.802V236.577V231.713V205.108V192.145V180.01V156.129V148.93V133.755V118.264H59.0679V133.755" stroke="#CB6F03" stroke-miterlimit="10"/>
<path d="M280.512 291.951H189.451H170.898H161.451H142.873H133.061H114.508H105.353H87.3358H59.0679H39.1026H31.8713H14.2434H1.21729V302.214V315.784H39.1026H87.3358H280.512" stroke="#CB6F03" stroke-miterlimit="10"/>
<path d="M49.0609 145.915H8.83813V156.129H49.0609V145.915Z" stroke="#CB6F03" stroke-miterlimit="10"/>
<path d="M108.251 108.244H56.1948V118.24H108.251V108.244Z" stroke="#CB6F03" stroke-miterlimit="10"/>
<path d="M37.9826 122.204H14.2434V145.915H37.9826V122.204Z" stroke="#CB6F03" stroke-miterlimit="10"/>
<path d="M59.068 156.129H4.65039V166.294H59.068V156.129Z" stroke="#CB6F03" stroke-miterlimit="10"/>
<path d="M59.0678 148.906H49.0608V156.129H59.0678V148.906Z" stroke="#CB6F03" stroke-miterlimit="10"/>
<path d="M59.0679 166.294H8.83813V180.01H59.0679V166.294Z" stroke="#CB6F03" stroke-miterlimit="10"/>
<path d="M105.353 236.552H8.83813V249.028H105.353V236.552Z" stroke="#CB6F03" stroke-miterlimit="10"/>
<path d="M14.2434 249.028V291.951H31.8713V249.028V236.577V180.01H14.2434V236.577" stroke="#CB6F03" stroke-miterlimit="10"/>
<path d="M39.0783 291.927H1.21729V315.76H39.0783V291.927Z" stroke="#CB6F03" stroke-miterlimit="10"/>
<path d="M280.512 242.802H105.353V249.028V291.951H114.508H133.061H142.873H161.451H170.898H189.451H280.512" stroke="#CB6F03" stroke-miterlimit="10"/>
<path d="M280.488 180.01H59.0679V242.802H280.488V180.01Z" stroke="#CB6F03" stroke-miterlimit="10"/>
<path d="M280.488 156.129H59.0679V180.01H280.488V156.129Z" stroke="#CB6F03" stroke-miterlimit="10"/>
<path d="M91.3289 202.36H73.0923V235.969H91.3289V202.36Z" stroke="#CB6F03" stroke-miterlimit="10"/>
<path d="M87.3359 192.121H77.0854V202.359H87.3359V192.121Z" stroke="#CB6F03" stroke-miterlimit="10"/>
<path d="M87.3359 255.473H77.0854V265.711H87.3359V255.473Z" stroke="#CB6F03" stroke-miterlimit="10"/>
<path d="M87.3359 162.938H77.0854V173.177H87.3359V162.938Z" stroke="#CB6F03" stroke-miterlimit="10"/>
<path d="M87.3359 273.712H77.0854V283.95H87.3359V273.712Z" stroke="#CB6F03" stroke-miterlimit="10"/>
<path d="M280.512 231.713H105.353V242.802H280.512V231.713Z" stroke="#CB6F03" stroke-miterlimit="10"/>
<path d="M134.206 179.84H112.658V231.543H134.206V179.84Z" stroke="#CB6F03" stroke-miterlimit="10"/>
<path d="M162.619 179.84H141.072V231.543H162.619V179.84Z" stroke="#CB6F03" stroke-miterlimit="10"/>
<path d="M190.644 180.01H169.096V231.713H190.644V180.01Z" stroke="#CB6F03" stroke-miterlimit="10"/>
<path d="M218.668 180.01H197.121V231.713H218.668V180.01Z" stroke="#CB6F03" stroke-miterlimit="10"/>
<path d="M246.035 180.01H224.488V231.713H246.035V180.01Z" stroke="#CB6F03" stroke-miterlimit="10"/>
<path d="M273.719 180.01H252.171V231.713H273.719V180.01Z" stroke="#CB6F03" stroke-miterlimit="10"/>
<path d="M123.419 173.979C126.781 173.979 129.506 171.257 129.506 167.899C129.506 164.542 126.781 161.82 123.419 161.82C120.058 161.82 117.333 164.542 117.333 167.899C117.333 171.257 120.058 173.979 123.419 173.979Z" stroke="#CB6F03" stroke-miterlimit="10"/>
<path d="M151.858 173.979C155.219 173.979 157.945 171.257 157.945 167.899C157.945 164.542 155.219 161.82 151.858 161.82C148.496 161.82 145.771 164.542 145.771 167.899C145.771 171.257 148.496 173.979 151.858 173.979Z" stroke="#CB6F03" stroke-miterlimit="10"/>
<path d="M179.882 174.149C183.244 174.149 185.969 171.427 185.969 168.07C185.969 164.712 183.244 161.99 179.882 161.99C176.52 161.99 173.795 164.712 173.795 168.07C173.795 171.427 176.52 174.149 179.882 174.149Z" stroke="#CB6F03" stroke-miterlimit="10"/>
<path d="M207.907 174.149C211.268 174.149 213.994 171.427 213.994 168.07C213.994 164.712 211.268 161.99 207.907 161.99C204.545 161.99 201.82 164.712 201.82 168.07C201.82 171.427 204.545 174.149 207.907 174.149Z" stroke="#CB6F03" stroke-miterlimit="10"/>
<path d="M235.249 174.149C238.611 174.149 241.336 171.427 241.336 168.07C241.336 164.712 238.611 161.99 235.249 161.99C231.888 161.99 229.162 164.712 229.162 168.07C229.162 171.427 231.888 174.149 235.249 174.149Z" stroke="#CB6F03" stroke-miterlimit="10"/>
<path d="M262.933 174.149C266.295 174.149 269.02 171.427 269.02 168.07C269.02 164.712 266.295 161.99 262.933 161.99C259.571 161.99 256.846 164.712 256.846 168.07C256.846 171.427 259.571 174.149 262.933 174.149Z" stroke="#CB6F03" stroke-miterlimit="10"/>
<path d="M280.512 118.264H121.399H108.251H105.353V133.755H280.512" stroke="#CB6F03" stroke-miterlimit="10"/>
<path d="M126.39 74.3923C126.39 74.3923 121.788 40.1023 185.969 28.3075V0" stroke="#CB6F03" stroke-miterlimit="10"/>
<path d="M121.398 74.3923V57.7336" stroke="#CB6F03" stroke-miterlimit="10"/>
<path d="M167.173 94.9905H151.858V105.253H167.173V94.9905Z" stroke="#CB6F03" stroke-miterlimit="10"/>
<path d="M196.853 94.9905H181.538V105.253H196.853V94.9905Z" stroke="#CB6F03" stroke-miterlimit="10"/>
<path d="M226.63 94.9905H211.315V105.253H226.63V94.9905Z" stroke="#CB6F03" stroke-miterlimit="10"/>
<path d="M256.578 94.9905H241.263V105.253H256.578V94.9905Z" stroke="#CB6F03" stroke-miterlimit="10"/>
<path d="M189.207 63.0109C194.156 63.0109 198.167 59.0041 198.167 54.0615C198.167 49.1189 194.156 45.1121 189.207 45.1121C184.259 45.1121 180.247 49.1189 180.247 54.0615C180.247 59.0041 184.259 63.0109 189.207 63.0109Z" stroke="#CB6F03" stroke-miterlimit="10"/>
<path d="M248.909 63.0109C253.857 63.0109 257.869 59.0041 257.869 54.0615C257.869 49.1189 253.857 45.1121 248.909 45.1121C243.96 45.1121 239.948 49.1189 239.948 54.0615C239.948 59.0041 243.96 63.0109 248.909 63.0109Z" stroke="#CB6F03" stroke-miterlimit="10"/>
<path d="M133.061 253.649H114.508V291.951H133.061V253.649Z" stroke="#CB6F03" stroke-miterlimit="10"/>
<path d="M161.426 253.649H142.873V291.951H161.426V253.649Z" stroke="#CB6F03" stroke-miterlimit="10"/>
<path d="M189.451 253.649H170.898V291.951H189.451V253.649Z" stroke="#CB6F03" stroke-miterlimit="10"/>
<path d="M39.0783 302.214H1.21729V315.784H39.0783V302.214Z" stroke="#CB6F03" stroke-miterlimit="10"/>
<path d="M280.512 291.951H189.451H170.898H161.451H142.873H133.061H114.508H105.353H87.3357V315.784H280.512" stroke="#CB6F03" stroke-miterlimit="10"/>
<path d="M37.9826 137.719H14.2434V145.939H37.9826V137.719Z" stroke="#CB6F03" stroke-miterlimit="10"/>
<path d="M37.9826 122.204H26.1008V137.695H37.9826V122.204Z" stroke="#CB6F03" stroke-miterlimit="10"/>
<path d="M204.279 256.154V264.908" stroke="#CB6F03" stroke-miterlimit="10"/>
<path d="M204.279 270.113V278.868" stroke="#CB6F03" stroke-miterlimit="10"/>
<path d="M214.7 256.154V264.908" stroke="#CB6F03" stroke-miterlimit="10"/>
<path d="M214.7 270.113V278.868" stroke="#CB6F03" stroke-miterlimit="10"/>
<path d="M239.802 256.008V264.762" stroke="#CB6F03" stroke-miterlimit="10"/>
<path d="M239.802 269.967V278.722" stroke="#CB6F03" stroke-miterlimit="10"/>
<path d="M250.199 256.008V264.762" stroke="#CB6F03" stroke-miterlimit="10"/>
<path d="M250.199 269.967V278.722" stroke="#CB6F03" stroke-miterlimit="10"/>
<path d="M134.206 205.108H112.658" stroke="#CB6F03" stroke-miterlimit="10"/>
<path d="M190.644 205.108H169.096" stroke="#CB6F03" stroke-miterlimit="10"/>
<path d="M246.011 205.108H224.488" stroke="#CB6F03" stroke-miterlimit="10"/>
<path d="M273.719 205.108H252.171" stroke="#CB6F03" stroke-miterlimit="10"/>
<path d="M218.668 205.108H197.121" stroke="#CB6F03" stroke-miterlimit="10"/>
<path d="M162.619 205.108H141.072" stroke="#CB6F03" stroke-miterlimit="10"/>
<path d="M134.206 192.146H112.658" stroke="#CB6F03" stroke-miterlimit="10"/>
<path d="M190.644 192.146H169.096" stroke="#CB6F03" stroke-miterlimit="10"/>
<path d="M246.011 192.146H224.488" stroke="#CB6F03" stroke-miterlimit="10"/>
<path d="M273.719 192.146H252.171" stroke="#CB6F03" stroke-miterlimit="10"/>
<path d="M218.668 192.146H197.121" stroke="#CB6F03" stroke-miterlimit="10"/>
<path d="M162.619 192.146H141.072" stroke="#CB6F03" stroke-miterlimit="10"/>
<path d="M272.843 105.229H288.157V94.9663H272.843V105.229Z" stroke="#CB6F03" stroke-miterlimit="10"/>
<path d="M285.698 256.154V264.908" stroke="#CB6F03" stroke-miterlimit="10"/>
<path d="M285.698 270.113V278.868" stroke="#CB6F03" stroke-miterlimit="10"/>
<path d="M275.302 256.154V264.908" stroke="#CB6F03" stroke-miterlimit="10"/>
<path d="M275.302 270.113V278.868" stroke="#CB6F03" stroke-miterlimit="10"/>
<path d="M280.512 118.264H439.601V86.6248H280.512" stroke="#CB6F03" stroke-miterlimit="10"/>
<path d="M280.512 74.4165H434.634H439.601V86.6247H280.512" stroke="#CB6F03" stroke-miterlimit="10"/>
<path d="M280.512 20.574H374.593V28.3318H280.512" stroke="#CB6F03" stroke-miterlimit="10"/>
<path d="M280.512 133.755H455.647H501.932H504.829V148.931H501.932H455.647H280.512" stroke="#CB6F03" stroke-miterlimit="10"/>
<path d="M501.932 133.755V118.264H455.646V133.755V148.93V156.129V180.01V192.145V205.108V231.713V236.577V242.802V249.028V291.951H473.664H501.932V249.028V242.802V236.577V180.01V166.294V156.129V148.93" stroke="#CB6F03" stroke-miterlimit="10"/>
<path d="M280.512 291.951H371.549H390.102H399.573H418.127H427.939H446.492H455.647H473.664H501.932H521.922H529.129H546.757H559.783V302.214V315.784H521.922H473.664H280.512" stroke="#CB6F03" stroke-miterlimit="10"/>
<path d="M511.963 156.129H552.186V145.915H511.963V156.129Z" stroke="#CB6F03" stroke-miterlimit="10"/>
<path d="M452.774 118.264H504.829V108.269H452.774V118.264Z" stroke="#CB6F03" stroke-miterlimit="10"/>
<path d="M523.042 145.939H546.781V122.228H523.042V145.939Z" stroke="#CB6F03" stroke-miterlimit="10"/>
<path d="M501.932 166.294H556.35V156.129H501.932V166.294Z" stroke="#CB6F03" stroke-miterlimit="10"/>
<path d="M501.956 156.129H511.963V148.906H501.956V156.129Z" stroke="#CB6F03" stroke-miterlimit="10"/>
<path d="M501.932 180.01H552.162V166.294H501.932V180.01Z" stroke="#CB6F03" stroke-miterlimit="10"/>
<path d="M455.671 249.028H552.186V236.552H455.671V249.028Z" stroke="#CB6F03" stroke-miterlimit="10"/>
<path d="M546.757 236.577V180.01H529.129V236.577V249.028V291.951H546.757V249.028" stroke="#CB6F03" stroke-miterlimit="10"/>
<path d="M521.921 315.784H559.782V291.951H521.921V315.784Z" stroke="#CB6F03" stroke-miterlimit="10"/>
<path d="M280.512 242.802H455.647V249.028V291.951H446.492H427.939H418.127H399.573H390.102H371.549H280.512" stroke="#CB6F03" stroke-miterlimit="10"/>
<path d="M280.512 242.778L501.932 242.778V179.986L280.512 179.986V242.778Z" stroke="#CB6F03" stroke-miterlimit="10"/>
<path d="M280.512 180.01L501.932 180.01V156.129L280.512 156.129V180.01Z" stroke="#CB6F03" stroke-miterlimit="10"/>
<path d="M469.671 235.969H487.907V202.359H469.671V235.969Z" stroke="#CB6F03" stroke-miterlimit="10"/>
<path d="M473.664 202.36H483.915V192.121H473.664V202.36Z" stroke="#CB6F03" stroke-miterlimit="10"/>
<path d="M473.664 265.711H483.915V255.473H473.664V265.711Z" stroke="#CB6F03" stroke-miterlimit="10"/>
<path d="M473.664 173.201H483.915V162.963H473.664V173.201Z" stroke="#CB6F03" stroke-miterlimit="10"/>
<path d="M473.664 283.926H483.915V273.688H473.664V283.926Z" stroke="#CB6F03" stroke-miterlimit="10"/>
<path d="M280.488 242.778L455.646 242.778V231.689L280.488 231.689V242.778Z" stroke="#CB6F03" stroke-miterlimit="10"/>
<path d="M426.819 231.542H448.366V179.84H426.819V231.542Z" stroke="#CB6F03" stroke-miterlimit="10"/>
<path d="M398.38 231.542H419.928V179.84H398.38V231.542Z" stroke="#CB6F03" stroke-miterlimit="10"/>
<path d="M370.38 231.713H391.928V180.01H370.38V231.713Z" stroke="#CB6F03" stroke-miterlimit="10"/>
<path d="M342.332 231.713H363.879V180.01H342.332V231.713Z" stroke="#CB6F03" stroke-miterlimit="10"/>
<path d="M314.989 231.713H336.537V180.01H314.989V231.713Z" stroke="#CB6F03" stroke-miterlimit="10"/>
<path d="M287.281 231.713H308.829V180.01H287.281V231.713Z" stroke="#CB6F03" stroke-miterlimit="10"/>
<path d="M437.58 173.979C440.942 173.979 443.667 171.257 443.667 167.899C443.667 164.542 440.942 161.82 437.58 161.82C434.219 161.82 431.493 164.542 431.493 167.899C431.493 171.257 434.219 173.979 437.58 173.979Z" stroke="#CB6F03" stroke-miterlimit="10"/>
<path d="M409.167 173.979C412.528 173.979 415.254 171.257 415.254 167.899C415.254 164.542 412.528 161.82 409.167 161.82C405.805 161.82 403.08 164.542 403.08 167.899C403.08 171.257 405.805 173.979 409.167 173.979Z" stroke="#CB6F03" stroke-miterlimit="10"/>
<path d="M381.142 174.149C384.504 174.149 387.229 171.427 387.229 168.07C387.229 164.712 384.504 161.99 381.142 161.99C377.78 161.99 375.055 164.712 375.055 168.07C375.055 171.427 377.78 174.149 381.142 174.149Z" stroke="#CB6F03" stroke-miterlimit="10"/>
<path d="M353.117 174.149C356.479 174.149 359.204 171.427 359.204 168.07C359.204 164.712 356.479 161.99 353.117 161.99C349.756 161.99 347.031 164.712 347.031 168.07C347.031 171.427 349.756 174.149 353.117 174.149Z" stroke="#CB6F03" stroke-miterlimit="10"/>
<path d="M325.775 174.149C329.137 174.149 331.862 171.427 331.862 168.07C331.862 164.712 329.137 161.99 325.775 161.99C322.413 161.99 319.688 164.712 319.688 168.07C319.688 171.427 322.413 174.149 325.775 174.149Z" stroke="#CB6F03" stroke-miterlimit="10"/>
<path d="M298.067 174.149C301.429 174.149 304.154 171.427 304.154 168.07C304.154 164.712 301.429 161.99 298.067 161.99C294.705 161.99 291.98 164.712 291.98 168.07C291.98 171.427 294.705 174.149 298.067 174.149Z" stroke="#CB6F03" stroke-miterlimit="10"/>
<path d="M280.512 118.264H439.601H452.774H455.647V133.755H280.512" stroke="#CB6F03" stroke-miterlimit="10"/>
<path d="M434.634 74.3923C434.634 74.3923 439.236 40.1023 375.055 28.3075V0" stroke="#CB6F03" stroke-miterlimit="10"/>
<path d="M439.601 74.3923V57.7336" stroke="#CB6F03" stroke-miterlimit="10"/>
<path d="M393.852 105.229H409.167V94.9663H393.852V105.229Z" stroke="#CB6F03" stroke-miterlimit="10"/>
<path d="M364.147 105.229H379.462V94.9663H364.147V105.229Z" stroke="#CB6F03" stroke-miterlimit="10"/>
<path d="M334.394 105.229H349.709V94.9663H334.394V105.229Z" stroke="#CB6F03" stroke-miterlimit="10"/>
<path d="M304.446 105.229H319.761V94.9663H304.446V105.229Z" stroke="#CB6F03" stroke-miterlimit="10"/>
<path d="M371.817 63.0109C376.765 63.0109 380.777 59.0041 380.777 54.0615C380.777 49.1189 376.765 45.1121 371.817 45.1121C366.868 45.1121 362.857 49.1189 362.857 54.0615C362.857 59.0041 366.868 63.0109 371.817 63.0109Z" stroke="#CB6F03" stroke-miterlimit="10"/>
<path d="M312.116 63.0109C317.064 63.0109 321.076 59.0041 321.076 54.0615C321.076 49.1189 317.064 45.1121 312.116 45.1121C307.167 45.1121 303.156 49.1189 303.156 54.0615C303.156 59.0041 307.167 63.0109 312.116 63.0109Z" stroke="#CB6F03" stroke-miterlimit="10"/>
<path d="M427.939 291.927H446.492V253.624H427.939V291.927Z" stroke="#CB6F03" stroke-miterlimit="10"/>
<path d="M399.573 291.927H418.126V253.624H399.573V291.927Z" stroke="#CB6F03" stroke-miterlimit="10"/>
<path d="M371.549 291.927H390.102V253.624H371.549V291.927Z" stroke="#CB6F03" stroke-miterlimit="10"/>
<path d="M521.921 315.76H559.782V302.19H521.921V315.76Z" stroke="#CB6F03" stroke-miterlimit="10"/>
<path d="M280.512 291.951H371.549H390.102H399.573H418.127H427.939H446.492H455.647H473.664V315.784H280.512" stroke="#CB6F03" stroke-miterlimit="10"/>
<path d="M523.042 145.915H546.781V137.695H523.042V145.915Z" stroke="#CB6F03" stroke-miterlimit="10"/>
<path d="M523.017 137.719H534.899V122.228H523.017V137.719Z" stroke="#CB6F03" stroke-miterlimit="10"/>
<path d="M356.721 256.154V264.908" stroke="#CB6F03" stroke-miterlimit="10"/>
<path d="M356.721 270.113V278.868" stroke="#CB6F03" stroke-miterlimit="10"/>
<path d="M346.324 256.154V264.908" stroke="#CB6F03" stroke-miterlimit="10"/>
<path d="M346.324 270.113V278.868" stroke="#CB6F03" stroke-miterlimit="10"/>
<path d="M321.222 256.008V264.762" stroke="#CB6F03" stroke-miterlimit="10"/>
<path d="M321.222 269.967V278.722" stroke="#CB6F03" stroke-miterlimit="10"/>
<path d="M310.801 256.008V264.762" stroke="#CB6F03" stroke-miterlimit="10"/>
<path d="M310.801 269.967V278.722" stroke="#CB6F03" stroke-miterlimit="10"/>
<path d="M448.342 205.108H426.794" stroke="#CB6F03" stroke-miterlimit="10"/>
<path d="M391.904 205.108H370.356" stroke="#CB6F03" stroke-miterlimit="10"/>
<path d="M336.512 205.108H314.989" stroke="#CB6F03" stroke-miterlimit="10"/>
<path d="M308.829 205.108H287.281" stroke="#CB6F03" stroke-miterlimit="10"/>
<path d="M363.879 205.108H342.332" stroke="#CB6F03" stroke-miterlimit="10"/>
<path d="M419.928 205.108H398.38" stroke="#CB6F03" stroke-miterlimit="10"/>
<path d="M448.342 192.146H426.794" stroke="#CB6F03" stroke-miterlimit="10"/>
<path d="M391.904 192.146H370.356" stroke="#CB6F03" stroke-miterlimit="10"/>
<path d="M336.512 192.146H314.989" stroke="#CB6F03" stroke-miterlimit="10"/>
<path d="M308.829 192.146H287.281" stroke="#CB6F03" stroke-miterlimit="10"/>
<path d="M363.879 192.146H342.332" stroke="#CB6F03" stroke-miterlimit="10"/>
<path d="M419.928 192.146H398.38" stroke="#CB6F03" stroke-miterlimit="10"/>
<path d="M87.3604 302.068H473.664" stroke="#CB6F03" stroke-miterlimit="10"/>
</g>
<defs>
<clipPath id="clip0_524_1254">
<rect width="561" height="317" fill="white"/>
</clipPath>
</defs>
</svg>
