<svg width="577" height="311" viewBox="0 0 577 311" fill="none" xmlns="http://www.w3.org/2000/svg">
<g clip-path="url(#clip0_524_1637)">
<path d="M288.524 86.2566H288.476H280.86H275.219H256.891H249.608V116.762V133.775V147.267L275.219 134.013L275.671 133.775L288.476 127.136H288.5H288.524V127.113" stroke="#CB6F03" stroke-miterlimit="10"/>
<path d="M84.6863 269.264H5.7124V309.786H84.6863V269.264Z" stroke="#CB6F03" stroke-miterlimit="10"/>
<path d="M220.261 231.001H84.6863V269.264H220.261V231.001Z" stroke="#CB6F03" stroke-miterlimit="10"/>
<path d="M21.6595 193.572H12.4244" stroke="#CB6F03" stroke-miterlimit="10"/>
<path d="M76.9032 193.572H69.3342" stroke="#CB6F03" stroke-miterlimit="10"/>
<path d="M62.0748 193.572H28.9191" stroke="#CB6F03" stroke-miterlimit="10"/>
<path d="M5.7124 224.386H84.6863" stroke="#CB6F03" stroke-miterlimit="10"/>
<path d="M84.6863 236.403H220.261" stroke="#CB6F03" stroke-miterlimit="10"/>
<path d="M115.153 219.247H107.036V231.001H115.153V219.247Z" stroke="#CB6F03" stroke-miterlimit="10"/>
<path d="M107.845 170.348V219.247" stroke="#CB6F03" stroke-miterlimit="10"/>
<path d="M114.343 170.348V219.247" stroke="#CB6F03" stroke-miterlimit="10"/>
<path d="M142.382 219.247H134.265V231.001H142.382V219.247Z" stroke="#CB6F03" stroke-miterlimit="10"/>
<path d="M135.074 170.348V219.247" stroke="#CB6F03" stroke-miterlimit="10"/>
<path d="M141.572 170.348V219.247" stroke="#CB6F03" stroke-miterlimit="10"/>
<path d="M170.872 219.247H162.756V231.001H170.872V219.247Z" stroke="#CB6F03" stroke-miterlimit="10"/>
<path d="M163.565 170.348V219.247" stroke="#CB6F03" stroke-miterlimit="10"/>
<path d="M170.063 170.348V219.247" stroke="#CB6F03" stroke-miterlimit="10"/>
<path d="M199.625 219.032H191.508V230.787H199.625V219.032Z" stroke="#CB6F03" stroke-miterlimit="10"/>
<path d="M192.317 170.157V219.032" stroke="#CB6F03" stroke-miterlimit="10"/>
<path d="M198.815 170.157V219.032" stroke="#CB6F03" stroke-miterlimit="10"/>
<path d="M102.419 176.82H90.3274V197.022H102.419V176.82Z" stroke="#CB6F03" stroke-miterlimit="10"/>
<path d="M130.743 176.82H118.651V197.022H130.743V176.82Z" stroke="#CB6F03" stroke-miterlimit="10"/>
<path d="M158.614 176.82H146.523V197.022H158.614V176.82Z" stroke="#CB6F03" stroke-miterlimit="10"/>
<path d="M187.248 176.82H175.156V197.022H187.248V176.82Z" stroke="#CB6F03" stroke-miterlimit="10"/>
<path d="M238.088 168.587H225.997V188.789H238.088V168.587Z" stroke="#CB6F03" stroke-miterlimit="10"/>
<path d="M215.572 176.82H203.48V197.022H215.572V176.82Z" stroke="#CB6F03" stroke-miterlimit="10"/>
<path d="M215.929 215.987V215.844C215.929 212.893 213.239 210.514 209.931 210.514C206.622 210.514 203.957 212.893 203.957 215.844V215.987" stroke="#CB6F03" stroke-miterlimit="10"/>
<path d="M215.929 215.82V215.987V231.001H203.957V215.987V215.82" stroke="#CB6F03" stroke-linejoin="round"/>
<path d="M238.041 206.135V205.993C238.041 203.304 235.351 201.115 232.043 201.115C228.734 201.115 226.068 203.28 226.068 205.993V206.135" stroke="#CB6F03" stroke-miterlimit="10"/>
<path d="M238.041 205.993V206.135V219.889H226.068V206.135V205.993" stroke="#CB6F03" stroke-linejoin="round"/>
<path d="M187.129 215.987V215.844C187.129 212.893 184.439 210.514 181.131 210.514C177.822 210.514 175.156 212.893 175.156 215.844V215.987" stroke="#CB6F03" stroke-miterlimit="10"/>
<path d="M187.129 215.82V215.987V231.001H175.156V215.987V215.82" stroke="#CB6F03" stroke-linejoin="round"/>
<path d="M158.567 215.987V215.844C158.567 212.893 155.877 210.514 152.569 210.514C149.26 210.514 146.594 212.893 146.594 215.844V215.987" stroke="#CB6F03" stroke-miterlimit="10"/>
<path d="M158.567 215.82V215.987V231.001H146.594V215.987V215.82" stroke="#CB6F03" stroke-linejoin="round"/>
<path d="M130.695 215.987V215.844C130.695 212.893 128.005 210.514 124.697 210.514C121.388 210.514 118.723 212.893 118.723 215.844V215.987" stroke="#CB6F03" stroke-miterlimit="10"/>
<path d="M130.695 215.82V215.987V231.001H118.723V215.987V215.82" stroke="#CB6F03" stroke-linejoin="round"/>
<path d="M102.371 215.987V215.844C102.371 212.893 99.6813 210.514 96.3729 210.514C93.0645 210.514 90.3987 212.893 90.3987 215.844V215.987" stroke="#CB6F03" stroke-miterlimit="10"/>
<path d="M102.371 215.82V215.987V231.001H90.3987V215.987V215.82" stroke="#CB6F03" stroke-linejoin="round"/>
<path d="M215.334 253.892V253.749C215.334 250.799 212.644 248.419 209.336 248.419C206.027 248.419 203.362 250.799 203.362 253.749V253.892" stroke="#CB6F03" stroke-miterlimit="10"/>
<path d="M215.334 253.749V253.892V268.93H203.362V253.892V253.749" stroke="#CB6F03" stroke-linejoin="round"/>
<path d="M186.534 253.892V253.749C186.534 250.799 183.844 248.419 180.536 248.419C177.227 248.419 174.562 250.799 174.562 253.749V253.892" stroke="#CB6F03" stroke-miterlimit="10"/>
<path d="M186.534 253.749V253.892V268.93H174.562V253.892V253.749" stroke="#CB6F03" stroke-linejoin="round"/>
<path d="M157.972 253.892V253.749C157.972 250.799 155.282 248.419 151.974 248.419C148.665 248.419 146 250.799 146 253.749V253.892" stroke="#CB6F03" stroke-miterlimit="10"/>
<path d="M157.972 253.749V253.892V268.93H146V253.892V253.749" stroke="#CB6F03" stroke-linejoin="round"/>
<path d="M130.1 253.892V253.749C130.1 250.799 127.41 248.419 124.102 248.419C120.793 248.419 118.128 250.799 118.128 253.749V253.892" stroke="#CB6F03" stroke-miterlimit="10"/>
<path d="M130.1 253.749V253.892V268.93H118.128V253.892V253.749" stroke="#CB6F03" stroke-linejoin="round"/>
<path d="M101.776 253.892V253.749C101.776 250.799 99.0864 248.419 95.7779 248.419C92.4695 248.419 89.8037 250.799 89.8037 253.749V253.892" stroke="#CB6F03" stroke-miterlimit="10"/>
<path d="M101.776 253.749V253.892V268.93H89.8037V253.892V253.749" stroke="#CB6F03" stroke-linejoin="round"/>
<path d="M51.1973 246.397V246.254C51.1973 243.303 48.5077 240.924 45.1993 240.924C41.8909 240.924 39.2251 243.303 39.2251 246.254V246.397" stroke="#CB6F03" stroke-miterlimit="10"/>
<path d="M51.1973 246.254V246.397V261.411H39.2251V246.397V246.254" stroke="#CB6F03" stroke-linejoin="round"/>
<path d="M50.9117 204.208V204.065C50.9117 201.115 48.2221 198.735 44.9137 198.735C41.6052 198.735 38.9395 201.115 38.9395 204.065V204.208" stroke="#CB6F03" stroke-miterlimit="10"/>
<path d="M50.9117 204.065V204.208V219.223H38.9395V204.208V204.065" stroke="#CB6F03" stroke-linejoin="round"/>
<path d="M270.554 98.6776V98.4873C270.554 94.9418 268.602 92.0864 266.174 92.0864C263.746 92.0864 261.818 94.9418 261.818 98.4873V98.6776" stroke="#CB6F03" stroke-miterlimit="10"/>
<path d="M270.554 98.511V98.6776V116.762H261.818V98.6776V98.511" stroke="#CB6F03" stroke-linejoin="round"/>
<path d="M284.168 32.0754V32.0041C284.168 30.5764 286.072 29.4342 288.476 29.4104H288.524" stroke="#CB6F03" stroke-miterlimit="10"/>
<path d="M284.168 32.0042V32.0755V39.4044H288.476H288.524" stroke="#CB6F03" stroke-linejoin="round"/>
<path d="M284.168 18.1078V18.0364C284.168 16.6087 286.096 15.4666 288.524 15.4666" stroke="#CB6F03" stroke-miterlimit="10"/>
<path d="M288.524 25.4366H288.5H288.476H284.168V18.1078V18.0364" stroke="#CB6F03" stroke-linejoin="round"/>
<path d="M288.524 25.4368H288.476C283.978 25.4368 280.384 27.1262 280.384 29.244V29.3391" stroke="#CB6F03" stroke-miterlimit="10"/>
<path d="M280.384 29.2439V29.3391V40.0706H288.476H288.524" stroke="#CB6F03" stroke-linejoin="round"/>
<path d="M284.144 98.6776V98.5111C284.144 94.9894 286.072 92.134 288.476 92.0864H288.524" stroke="#CB6F03" stroke-miterlimit="10"/>
<path d="M292.903 98.6776V98.511" stroke="#CB6F03" stroke-miterlimit="10"/>
<path d="M284.144 98.511V98.6776V116.762H288.476H288.524" stroke="#CB6F03" stroke-linejoin="round"/>
<path d="M292.903 98.6776V98.511" stroke="#CB6F03" stroke-linejoin="round"/>
<path d="M243.848 152.954H220.261V162.9H243.848V152.954Z" stroke="#CB6F03" stroke-miterlimit="10"/>
<path d="M249.608 147.267V133.775H235.041H227.782V152.954H243.848H249.608" stroke="#CB6F03" stroke-miterlimit="10"/>
<path d="M275.671 133.775H275.219H260.509H249.608V116.762H256.891H260.509H261.818H270.554H275.219H280.86H284.144H288.476H288.524" stroke="#CB6F03" stroke-miterlimit="10"/>
<path d="M288.524 127.136V127.113" stroke="#CB6F03" stroke-miterlimit="10"/>
<path d="M256.891 71.5989H249.608V86.2566H256.891V71.5989Z" stroke="#CB6F03" stroke-miterlimit="10"/>
<path d="M260.509 116.762V133.775" stroke="#CB6F03" stroke-miterlimit="10"/>
<path d="M275.219 116.762V134.346" stroke="#CB6F03" stroke-miterlimit="10"/>
<path d="M288.524 127.113L288.5 127.136H288.476L275.671 133.775L275.219 134.013L249.608 147.267" stroke="#CB6F03" stroke-miterlimit="10"/>
<path d="M256.891 86.2803V116.762" stroke="#CB6F03" stroke-miterlimit="10"/>
<path d="M275.219 86.2803V117.904" stroke="#CB6F03" stroke-miterlimit="10"/>
<path d="M280.86 116.762V86.2566" stroke="#CB6F03" stroke-miterlimit="10"/>
<path d="M249.608 71.6226L253.25 44.3298L256.891 71.6226C256.891 71.6226 257.272 46.8045 278.123 44.9961" stroke="#CB6F03" stroke-miterlimit="10"/>
<path d="M288.524 12.3495H288.476C286.834 12.3257 285.525 10.9694 285.525 9.32751C285.525 7.68566 286.834 6.35314 288.476 6.32935H288.524" stroke="#CB6F03" stroke-miterlimit="10"/>
<path d="M288.524 44.9723H288.476H282.312H278.099V40.0706H280.384H288.476H288.524" stroke="#CB6F03" stroke-miterlimit="10"/>
<path d="M288.524 78.9277H288.476H276.099H256.891H249.608H245.252" stroke="#CB6F03" stroke-miterlimit="10"/>
<path d="M283.168 73.8594H282.954H282.312H269.078H256.891" stroke="#CB6F03" stroke-miterlimit="10"/>
<path d="M288.524 69.7429L288.5 69.7667H288.476L282.954 73.8594L276.099 78.9278" stroke="#CB6F03" stroke-miterlimit="10"/>
<path d="M288.524 59.6301H288.476H282.312H269.078H259.414" stroke="#CB6F03" stroke-miterlimit="10"/>
<path d="M269.078 47.7087V73.8594" stroke="#CB6F03" stroke-miterlimit="10"/>
<path d="M282.312 73.8595V59.6301V44.9724" stroke="#CB6F03" stroke-miterlimit="10"/>
<path d="M235.065 133.775C239.456 133.775 243.015 130.217 243.015 125.828C243.015 121.438 239.456 117.88 235.065 117.88C230.675 117.88 227.115 121.438 227.115 125.828C227.115 130.217 230.675 133.775 235.065 133.775Z" stroke="#CB6F03" stroke-miterlimit="10"/>
<path d="M235.065 109.028V117.904" stroke="#CB6F03" stroke-miterlimit="10"/>
<path d="M31.5372 293.416H21.6595V309.81H31.5372V293.416Z" stroke="#CB6F03" stroke-miterlimit="10"/>
<path d="M31.5372 305.36L84.6864 294.058L166.826 276.569H220.261H230.448H288.476H288.524" stroke="#CB6F03" stroke-miterlimit="10"/>
<path d="M31.5372 298.27L166.826 269.478" stroke="#CB6F03" stroke-miterlimit="10"/>
<path d="M230.448 276.569H220.261V309.786H230.448V276.569Z" stroke="#CB6F03" stroke-miterlimit="10"/>
<path d="M288.548 283.874H230.448" stroke="#CB6F03" stroke-miterlimit="10"/>
<path d="M187.248 309.81L220.261 283.874" stroke="#CB6F03" stroke-miterlimit="10"/>
<path d="M176.608 309.81L220.261 276.569" stroke="#CB6F03" stroke-miterlimit="10"/>
<path d="M249.608 152.954H287.477H288.476H288.524H289.524" stroke="#CB6F03" stroke-miterlimit="10"/>
<path d="M84.6863 163.019H5.7124V231.001H84.6863V163.019Z" stroke="#CB6F03" stroke-miterlimit="10"/>
<path d="M220.237 163.019H84.6863V231.001H220.237V163.019Z" stroke="#CB6F03" stroke-miterlimit="10"/>
<path d="M135.075 202.447H114.343" stroke="#CB6F03" stroke-miterlimit="10"/>
<path d="M192.318 202.447H170.063" stroke="#CB6F03" stroke-miterlimit="10"/>
<path d="M198.815 202.447H220.261V193.572V170.348H198.815H192.317H170.063H163.565H141.572H135.074H114.343H107.845H84.6863V202.447H107.845" stroke="#CB6F03" stroke-miterlimit="10"/>
<path d="M163.565 202.447H141.572" stroke="#CB6F03" stroke-miterlimit="10"/>
<path d="M51.5783 167.231H38.2732V186.409H51.5783V167.231Z" stroke="#CB6F03" stroke-miterlimit="10"/>
<path d="M12.4244 224.386V193.572V163.019" stroke="#CB6F03" stroke-miterlimit="10"/>
<path d="M76.9033 224.386V193.572V163.019" stroke="#CB6F03" stroke-miterlimit="10"/>
<path d="M21.6595 163.019V224.386" stroke="#CB6F03" stroke-miterlimit="10"/>
<path d="M28.9191 163.019V224.386" stroke="#CB6F03" stroke-miterlimit="10"/>
<path d="M62.0747 162.9V224.267" stroke="#CB6F03" stroke-miterlimit="10"/>
<path d="M69.3342 162.9V224.267" stroke="#CB6F03" stroke-miterlimit="10"/>
<path d="M77.641 143.293H12.4244V150.884H77.641V143.293Z" stroke="#CB6F03" stroke-miterlimit="10"/>
<path d="M67.8348 136.868H22.207V143.293H67.8348V136.868Z" stroke="#CB6F03" stroke-miterlimit="10"/>
<path d="M70.4529 130.682H19.5887V136.868H70.4529V130.682Z" stroke="#CB6F03" stroke-miterlimit="10"/>
<path d="M84.6864 163.019L88.4232 150.884H1.64233L5.71242 163.019" stroke="#CB6F03" stroke-miterlimit="10"/>
<path d="M67.8586 121.901V121.545C67.8586 114.668 57.6001 109.124 45.009 109.124C44.0808 109.124 43.1763 109.147 42.2956 109.219C30.966 109.956 22.2308 115.167 22.2308 121.545V121.901" stroke="#CB6F03" stroke-miterlimit="10"/>
<path d="M22.2308 121.544V121.901V130.682" stroke="#CB6F03" stroke-linejoin="round"/>
<path d="M22.2308 143.293V136.868" stroke="#CB6F03" stroke-linejoin="round"/>
<path d="M67.8586 121.544V121.901V130.682" stroke="#CB6F03" stroke-linejoin="round"/>
<path d="M67.8586 143.293V136.868" stroke="#CB6F03" stroke-linejoin="round"/>
<path d="M77.6411 138.534C79.8101 138.534 81.5684 136.776 81.5684 134.608C81.5684 132.439 79.8101 130.682 77.6411 130.682C75.4722 130.682 73.7139 132.439 73.7139 134.608C73.7139 136.776 75.4722 138.534 77.6411 138.534Z" stroke="#CB6F03" stroke-miterlimit="10"/>
<path d="M77.6411 143.293V138.51" stroke="#CB6F03" stroke-miterlimit="10"/>
<path d="M12.4245 138.534C14.5934 138.534 16.3517 136.776 16.3517 134.608C16.3517 132.439 14.5934 130.682 12.4245 130.682C10.2555 130.682 8.49719 132.439 8.49719 134.608C8.49719 136.776 10.2555 138.534 12.4245 138.534Z" stroke="#CB6F03" stroke-miterlimit="10"/>
<path d="M12.4244 143.293V138.51" stroke="#CB6F03" stroke-miterlimit="10"/>
<path d="M288.524 250.132H288.476H282.55H272.172H260.2H243.848V258.342H260.2H272.172H282.55H288.476H288.524" stroke="#CB6F03" stroke-miterlimit="10"/>
<path d="M288.524 40.0706V39.4043" stroke="#CB6F03" stroke-miterlimit="10"/>
<path d="M288.524 69.7661V69.7427" stroke="#CB6F03" stroke-miterlimit="10"/>
<path d="M288.524 15.4665V12.3494" stroke="#CB6F03" stroke-miterlimit="10"/>
<path d="M288.524 127.136V127.112" stroke="#CB6F03" stroke-miterlimit="10"/>
<path d="M288.524 269.263V268.764" stroke="#CB6F03" stroke-miterlimit="10"/>
<path d="M288.524 309.786H288.476H230.448H220.261H187.248H176.608H84.6863H31.5372H21.6595H5.7124V269.264V231.001V224.386V163.019H12.4245H21.6595H28.919H62.0748H69.3343H76.9032H84.6863H220.261H243.848H288.476H288.524" stroke="#CB6F03" stroke-miterlimit="10"/>
<path d="M288.524 269.263V268.764" stroke="#CB6F03" stroke-miterlimit="10"/>
<path d="M288.524 268.764V269.264H288.476H243.848H220.261V236.403V231.001V226.385H243.848H284.692H288.476H288.524" stroke="#CB6F03" stroke-miterlimit="10"/>
<path d="M288.524 268.764V269.264H288.476H243.848V258.342V250.132V226.385H284.692H288.476H288.524" stroke="#CB6F03" stroke-miterlimit="10"/>
<path d="M243.848 162.9V163.019V186.409V193.572V209.229V226.385" stroke="#CB6F03" stroke-miterlimit="10"/>
<path d="M220.261 193.595H243.848" stroke="#CB6F03" stroke-miterlimit="10"/>
<path d="M272.172 243.137V242.875C272.172 237.806 269.482 233.738 266.174 233.738C262.865 233.738 260.2 237.806 260.2 242.875V243.137" stroke="#CB6F03" stroke-miterlimit="10"/>
<path d="M272.172 258.342V268.93H260.2V258.342" stroke="#CB6F03" stroke-linejoin="round"/>
<path d="M260.2 250.132V243.137V242.875" stroke="#CB6F03" stroke-linejoin="round"/>
<path d="M272.172 250.132V243.137V242.875" stroke="#CB6F03" stroke-linejoin="round"/>
<path d="M288.524 233.571H288.476C285.192 233.619 282.55 237.664 282.55 242.708V242.97" stroke="#CB6F03" stroke-miterlimit="10"/>
<path d="M282.55 250.132V242.97V242.708" stroke="#CB6F03" stroke-linejoin="round"/>
<path d="M288.524 268.764H288.476H282.55V258.342" stroke="#CB6F03" stroke-linejoin="round"/>
<path d="M270.744 203.637V203.423C270.744 199.021 269.03 195.475 266.912 195.475C264.794 195.475 263.104 199.021 263.104 203.423V203.637" stroke="#CB6F03" stroke-miterlimit="10"/>
<path d="M270.744 203.423V203.637V226.076H263.08V203.637V203.423" stroke="#CB6F03" stroke-linejoin="round"/>
<path d="M288.524 195.808H288.476C286.382 195.856 284.692 199.378 284.692 203.756V203.97" stroke="#CB6F03" stroke-miterlimit="10"/>
<path d="M288.524 226.385H288.476H284.692V209.229V203.97V203.756" stroke="#CB6F03" stroke-linejoin="round"/>
<path d="M259.39 163.638H254.392V213.916H259.39V163.638Z" stroke="#CB6F03" stroke-miterlimit="10"/>
<path d="M280.217 163.638H275.219V213.916H280.217V163.638Z" stroke="#CB6F03" stroke-miterlimit="10"/>
<path d="M288.524 186.409H288.476H280.217" stroke="#CB6F03" stroke-miterlimit="10"/>
<path d="M254.392 186.409H243.848" stroke="#CB6F03" stroke-miterlimit="10"/>
<path d="M275.219 186.409H259.391" stroke="#CB6F03" stroke-miterlimit="10"/>
<path d="M284.692 209.229H280.217" stroke="#CB6F03" stroke-miterlimit="10"/>
<path d="M254.392 209.229H243.848" stroke="#CB6F03" stroke-miterlimit="10"/>
<path d="M87.114 155.143H220.261" stroke="#CB6F03" stroke-miterlimit="10"/>
<path d="M34.2983 130.682C34.2983 130.682 31.8229 117.142 42.2719 109.242" stroke="#CB6F03" stroke-miterlimit="10"/>
<path d="M55.8388 130.682C55.8388 130.682 58.3142 117.142 47.8652 109.242" stroke="#CB6F03" stroke-miterlimit="10"/>
<path d="M45.0089 104.436L44.9851 109.147" stroke="#CB6F03" stroke-miterlimit="10"/>
<path d="M45.0328 93.7756L45.009 98.8678" stroke="#CB6F03" stroke-miterlimit="10"/>
<path d="M45.0804 104.436C46.6184 104.436 47.8652 103.189 47.8652 101.652C47.8652 100.114 46.6184 98.8679 45.0804 98.8679C43.5424 98.8679 42.2957 100.114 42.2957 101.652C42.2957 103.189 43.5424 104.436 45.0804 104.436Z" stroke="#CB6F03" stroke-miterlimit="10"/>
<path d="M288.476 127.113V127.136H288.5H288.524L301.329 133.775L301.781 134.013L327.392 147.267V133.775V116.762V86.2566H320.109H301.781H296.14H288.524H288.476" stroke="#CB6F03" stroke-miterlimit="10"/>
<path d="M492.314 309.81H571.288V269.288H492.314V309.81Z" stroke="#CB6F03" stroke-miterlimit="10"/>
<path d="M356.763 269.264H492.314V231.001H356.763V269.264Z" stroke="#CB6F03" stroke-miterlimit="10"/>
<path d="M564.576 193.572H555.341" stroke="#CB6F03" stroke-miterlimit="10"/>
<path d="M507.666 193.572H500.097" stroke="#CB6F03" stroke-miterlimit="10"/>
<path d="M548.081 193.572H514.925" stroke="#CB6F03" stroke-miterlimit="10"/>
<path d="M571.264 224.386H492.29" stroke="#CB6F03" stroke-miterlimit="10"/>
<path d="M492.29 236.403H356.739" stroke="#CB6F03" stroke-miterlimit="10"/>
<path d="M461.847 231.001H469.964V219.247H461.847V231.001Z" stroke="#CB6F03" stroke-miterlimit="10"/>
<path d="M469.155 170.348V219.247" stroke="#CB6F03" stroke-miterlimit="10"/>
<path d="M462.657 170.348V219.247" stroke="#CB6F03" stroke-miterlimit="10"/>
<path d="M434.618 231.001H442.735V219.247H434.618V231.001Z" stroke="#CB6F03" stroke-miterlimit="10"/>
<path d="M441.926 170.348V219.247" stroke="#CB6F03" stroke-miterlimit="10"/>
<path d="M435.428 170.348V219.247" stroke="#CB6F03" stroke-miterlimit="10"/>
<path d="M406.128 231.001H414.244V219.247H406.128V231.001Z" stroke="#CB6F03" stroke-miterlimit="10"/>
<path d="M413.435 170.348V219.247" stroke="#CB6F03" stroke-miterlimit="10"/>
<path d="M406.913 170.348V219.247" stroke="#CB6F03" stroke-miterlimit="10"/>
<path d="M377.352 230.811H385.468V219.056H377.352V230.811Z" stroke="#CB6F03" stroke-miterlimit="10"/>
<path d="M384.682 170.158V219.033" stroke="#CB6F03" stroke-miterlimit="10"/>
<path d="M378.185 170.158V219.033" stroke="#CB6F03" stroke-miterlimit="10"/>
<path d="M474.581 196.998H486.673V176.796H474.581V196.998Z" stroke="#CB6F03" stroke-miterlimit="10"/>
<path d="M446.257 196.998H458.349V176.796H446.257V196.998Z" stroke="#CB6F03" stroke-miterlimit="10"/>
<path d="M418.386 196.998H430.477V176.796H418.386V196.998Z" stroke="#CB6F03" stroke-miterlimit="10"/>
<path d="M389.752 196.998H401.844V176.796H389.752V196.998Z" stroke="#CB6F03" stroke-miterlimit="10"/>
<path d="M338.888 188.789H350.979V168.587H338.888V188.789Z" stroke="#CB6F03" stroke-miterlimit="10"/>
<path d="M361.428 196.998H373.52V176.796H361.428V196.998Z" stroke="#CB6F03" stroke-miterlimit="10"/>
<path d="M373.044 215.987V215.844C373.044 212.893 370.378 210.514 367.069 210.514C363.761 210.514 361.071 212.893 361.071 215.844V215.987" stroke="#CB6F03" stroke-miterlimit="10"/>
<path d="M373.044 215.82V215.987V231.001H361.071V215.987V215.82" stroke="#CB6F03" stroke-linejoin="round"/>
<path d="M350.932 206.136V205.993C350.932 203.304 348.266 201.115 344.957 201.115C341.649 201.115 338.959 203.28 338.959 205.993V206.136" stroke="#CB6F03" stroke-miterlimit="10"/>
<path d="M350.932 205.993V206.136V219.889H338.959V206.136V205.993" stroke="#CB6F03" stroke-linejoin="round"/>
<path d="M401.844 215.987V215.844C401.844 212.893 399.178 210.514 395.869 210.514C392.561 210.514 389.871 212.893 389.871 215.844V215.987" stroke="#CB6F03" stroke-miterlimit="10"/>
<path d="M401.844 215.82V215.987V231.001H389.871V215.987V215.82" stroke="#CB6F03" stroke-linejoin="round"/>
<path d="M430.406 215.987V215.844C430.406 212.893 427.74 210.514 424.431 210.514C421.123 210.514 418.433 212.893 418.433 215.844V215.987" stroke="#CB6F03" stroke-miterlimit="10"/>
<path d="M430.406 215.82V215.987V231.001H418.433V215.987V215.82" stroke="#CB6F03" stroke-linejoin="round"/>
<path d="M458.277 215.987V215.844C458.277 212.893 455.611 210.514 452.303 210.514C448.995 210.514 446.305 212.893 446.305 215.844V215.987" stroke="#CB6F03" stroke-miterlimit="10"/>
<path d="M458.277 215.82V215.987V231.001H446.305V215.987V215.82" stroke="#CB6F03" stroke-linejoin="round"/>
<path d="M486.601 215.987V215.844C486.601 212.893 483.935 210.514 480.627 210.514C477.318 210.514 474.629 212.893 474.629 215.844V215.987" stroke="#CB6F03" stroke-miterlimit="10"/>
<path d="M486.601 215.82V215.987V231.001H474.629V215.987V215.82" stroke="#CB6F03" stroke-linejoin="round"/>
<path d="M373.615 253.892V253.749C373.615 250.799 370.949 248.419 367.641 248.419C364.332 248.419 361.643 250.799 361.643 253.749V253.892" stroke="#CB6F03" stroke-miterlimit="10"/>
<path d="M373.615 253.749V253.892V268.93H361.643V253.892V253.749" stroke="#CB6F03" stroke-linejoin="round"/>
<path d="M402.439 253.892V253.749C402.439 250.799 399.773 248.419 396.464 248.419C393.156 248.419 390.466 250.799 390.466 253.749V253.892" stroke="#CB6F03" stroke-miterlimit="10"/>
<path d="M402.439 253.749V253.892V268.93H390.466V253.892V253.749" stroke="#CB6F03" stroke-linejoin="round"/>
<path d="M431.001 253.892V253.749C431.001 250.799 428.335 248.419 425.026 248.419C421.718 248.419 419.028 250.799 419.028 253.749V253.892" stroke="#CB6F03" stroke-miterlimit="10"/>
<path d="M431.001 253.749V253.892V268.93H419.028V253.892V253.749" stroke="#CB6F03" stroke-linejoin="round"/>
<path d="M458.848 253.892V253.749C458.848 250.799 456.183 248.419 452.874 248.419C449.566 248.419 446.876 250.799 446.876 253.749V253.892" stroke="#CB6F03" stroke-miterlimit="10"/>
<path d="M458.848 253.749V253.892V268.93H446.876V253.892V253.749" stroke="#CB6F03" stroke-linejoin="round"/>
<path d="M487.196 253.892V253.749C487.196 250.799 484.531 248.419 481.222 248.419C477.914 248.419 475.224 250.799 475.224 253.749V253.892" stroke="#CB6F03" stroke-miterlimit="10"/>
<path d="M487.196 253.749V253.892V268.93H475.224V253.892V253.749" stroke="#CB6F03" stroke-linejoin="round"/>
<path d="M537.775 246.397V246.254C537.775 243.303 535.109 240.924 531.8 240.924C528.492 240.924 525.802 243.303 525.802 246.254V246.397" stroke="#CB6F03" stroke-miterlimit="10"/>
<path d="M537.775 246.254V246.397V261.411H525.802V246.397V246.254" stroke="#CB6F03" stroke-linejoin="round"/>
<path d="M538.06 204.208V204.065C538.06 201.115 535.395 198.735 532.086 198.735C528.778 198.735 526.088 201.115 526.088 204.065V204.208" stroke="#CB6F03" stroke-miterlimit="10"/>
<path d="M538.06 204.065V204.208V219.223H526.088V204.208V204.065" stroke="#CB6F03" stroke-linejoin="round"/>
<path d="M315.181 98.6776V98.4873C315.181 94.9418 313.23 92.0864 310.826 92.0864C308.422 92.0864 306.446 94.9418 306.446 98.4873V98.6776" stroke="#CB6F03" stroke-miterlimit="10"/>
<path d="M315.182 98.511V98.6776V116.762H306.423V98.6776V98.511" stroke="#CB6F03" stroke-linejoin="round"/>
<path d="M288.476 29.4106H288.524C290.928 29.4344 292.832 30.5766 292.832 32.0043V32.0757" stroke="#CB6F03" stroke-miterlimit="10"/>
<path d="M288.476 39.4046H288.524H292.832V32.0758V32.0044" stroke="#CB6F03" stroke-linejoin="round"/>
<path d="M288.476 15.4668C290.904 15.4668 292.832 16.609 292.832 18.0367V18.108" stroke="#CB6F03" stroke-miterlimit="10"/>
<path d="M292.832 18.0366V18.108V25.4369H288.524H288.5H288.476" stroke="#CB6F03" stroke-linejoin="round"/>
<path d="M296.616 29.3391V29.244C296.616 27.1262 293.022 25.4368 288.524 25.4368H288.476" stroke="#CB6F03" stroke-miterlimit="10"/>
<path d="M288.476 40.0706H288.524H296.616V29.3391V29.2439" stroke="#CB6F03" stroke-linejoin="round"/>
<path d="M288.476 92.0864H288.524C290.928 92.134 292.856 94.9894 292.856 98.5111V98.6776" stroke="#CB6F03" stroke-miterlimit="10"/>
<path d="M284.097 98.511V98.6776" stroke="#CB6F03" stroke-miterlimit="10"/>
<path d="M288.476 116.762H288.524H292.856V98.6776V98.511" stroke="#CB6F03" stroke-linejoin="round"/>
<path d="M284.097 98.511V98.6776" stroke="#CB6F03" stroke-linejoin="round"/>
<path d="M333.152 162.9H356.739V152.954H333.152V162.9Z" stroke="#CB6F03" stroke-miterlimit="10"/>
<path d="M327.392 152.954H333.128H333.152H349.218V133.775H341.958H341.935H327.392V147.267" stroke="#CB6F03" stroke-miterlimit="10"/>
<path d="M288.476 127.136V127.113" stroke="#CB6F03" stroke-miterlimit="10"/>
<path d="M288.476 116.762H288.524H292.856H296.14H301.781H306.423H306.446H315.158H315.182H316.491H320.109H327.392V133.775H316.491H301.781H301.329" stroke="#CB6F03" stroke-miterlimit="10"/>
<path d="M327.392 71.5991H320.109V86.2568H327.392V71.5991Z" stroke="#CB6F03" stroke-miterlimit="10"/>
<path d="M316.491 116.762V133.775" stroke="#CB6F03" stroke-miterlimit="10"/>
<path d="M301.781 116.762V134.346" stroke="#CB6F03" stroke-miterlimit="10"/>
<path d="M288.476 127.113L288.5 127.136H288.524L301.329 133.775L301.781 134.013L327.392 147.267" stroke="#CB6F03" stroke-miterlimit="10"/>
<path d="M320.109 86.2805V116.762" stroke="#CB6F03" stroke-miterlimit="10"/>
<path d="M301.781 86.2805V117.904" stroke="#CB6F03" stroke-miterlimit="10"/>
<path d="M296.14 116.762V86.2566" stroke="#CB6F03" stroke-miterlimit="10"/>
<path d="M327.392 71.6229L323.75 44.3301L320.109 71.6229C320.109 71.6229 319.728 46.8048 298.877 44.9963" stroke="#CB6F03" stroke-miterlimit="10"/>
<path d="M288.476 12.3496H288.524C290.166 12.3258 291.475 10.9695 291.475 9.32762C291.475 7.68577 290.166 6.35325 288.524 6.32946H288.476V0" stroke="#CB6F03" stroke-miterlimit="10"/>
<path d="M288.476 40.0708H288.524H296.616H298.901V44.9726H298.877H294.688H288.524H288.476" stroke="#CB6F03" stroke-miterlimit="10"/>
<path d="M288.476 78.9277H288.524H300.901H320.109H327.392H331.748" stroke="#CB6F03" stroke-miterlimit="10"/>
<path d="M293.832 73.8596H294.046H294.688H307.922H320.109" stroke="#CB6F03" stroke-miterlimit="10"/>
<path d="M288.476 69.7429L288.5 69.7667H288.524L294.046 73.8594L300.901 78.9278" stroke="#CB6F03" stroke-miterlimit="10"/>
<path d="M288.476 59.6301H288.524H294.688H307.922H317.562" stroke="#CB6F03" stroke-miterlimit="10"/>
<path d="M307.922 47.709V73.8596" stroke="#CB6F03" stroke-miterlimit="10"/>
<path d="M294.688 73.8595V59.6301V44.9724" stroke="#CB6F03" stroke-miterlimit="10"/>
<path d="M341.935 133.775C346.325 133.775 349.884 130.217 349.884 125.828C349.884 121.438 346.325 117.88 341.935 117.88C337.544 117.88 333.985 121.438 333.985 125.828C333.985 130.217 337.544 133.775 341.935 133.775Z" stroke="#CB6F03" stroke-miterlimit="10"/>
<path d="M341.935 109.029V117.904" stroke="#CB6F03" stroke-miterlimit="10"/>
<path d="M545.463 309.786H555.341V293.392H545.463V309.786Z" stroke="#CB6F03" stroke-miterlimit="10"/>
<path d="M545.463 305.361L492.29 294.034L410.174 276.569H356.739H346.552H288.524H288.476" stroke="#CB6F03" stroke-miterlimit="10"/>
<path d="M545.463 298.27L410.174 269.478" stroke="#CB6F03" stroke-miterlimit="10"/>
<path d="M346.552 309.81H356.739V276.569H346.552V309.81Z" stroke="#CB6F03" stroke-miterlimit="10"/>
<path d="M288.452 283.874H346.552" stroke="#CB6F03" stroke-miterlimit="10"/>
<path d="M389.752 309.81L356.739 283.874" stroke="#CB6F03" stroke-miterlimit="10"/>
<path d="M400.392 309.81L356.739 276.569" stroke="#CB6F03" stroke-miterlimit="10"/>
<path d="M327.392 152.954H289.524H288.524H288.476H287.477" stroke="#CB6F03" stroke-miterlimit="10"/>
<path d="M492.314 231.001H571.288V163.019H492.314V231.001Z" stroke="#CB6F03" stroke-miterlimit="10"/>
<path d="M356.763 231.001L492.313 231.001V163.019H356.763V231.001Z" stroke="#CB6F03" stroke-miterlimit="10"/>
<path d="M462.657 202.448H441.925" stroke="#CB6F03" stroke-miterlimit="10"/>
<path d="M406.937 202.448H384.682" stroke="#CB6F03" stroke-miterlimit="10"/>
<path d="M469.155 202.448H492.314V170.348H469.155H462.657H441.925H435.428H413.435H406.937H384.682H378.185H356.739V193.572V202.448H378.185" stroke="#CB6F03" stroke-miterlimit="10"/>
<path d="M435.428 202.448H413.435" stroke="#CB6F03" stroke-miterlimit="10"/>
<path d="M525.422 186.41H538.727V167.231H525.422V186.41Z" stroke="#CB6F03" stroke-miterlimit="10"/>
<path d="M564.575 163.019V193.572V224.386" stroke="#CB6F03" stroke-miterlimit="10"/>
<path d="M500.097 163.019V193.572V224.386" stroke="#CB6F03" stroke-miterlimit="10"/>
<path d="M555.34 163.019V224.386" stroke="#CB6F03" stroke-miterlimit="10"/>
<path d="M548.057 163.019V224.386" stroke="#CB6F03" stroke-miterlimit="10"/>
<path d="M514.925 162.9V224.268" stroke="#CB6F03" stroke-miterlimit="10"/>
<path d="M507.642 162.9V224.268" stroke="#CB6F03" stroke-miterlimit="10"/>
<path d="M499.335 150.884H564.552V143.293H499.335V150.884Z" stroke="#CB6F03" stroke-miterlimit="10"/>
<path d="M509.141 143.293H554.769V136.869H509.141V143.293Z" stroke="#CB6F03" stroke-miterlimit="10"/>
<path d="M506.523 136.869H557.387V130.682H506.523V136.869Z" stroke="#CB6F03" stroke-miterlimit="10"/>
<path d="M492.29 163.019L488.577 150.884H575.334L571.264 163.019" stroke="#CB6F03" stroke-miterlimit="10"/>
<path d="M554.769 121.902V121.545C554.769 115.168 546.034 109.957 534.704 109.219C533.824 109.171 532.919 109.124 531.991 109.124C519.376 109.124 509.141 114.668 509.141 121.545V121.902" stroke="#CB6F03" stroke-miterlimit="10"/>
<path d="M554.769 130.682V121.902V121.545" stroke="#CB6F03" stroke-linejoin="round"/>
<path d="M554.769 136.869V143.293" stroke="#CB6F03" stroke-linejoin="round"/>
<path d="M509.141 130.682V121.902V121.545" stroke="#CB6F03" stroke-linejoin="round"/>
<path d="M509.141 136.869V143.293" stroke="#CB6F03" stroke-linejoin="round"/>
<path d="M499.359 138.534C501.528 138.534 503.286 136.776 503.286 134.608C503.286 132.44 501.528 130.682 499.359 130.682C497.19 130.682 495.432 132.44 495.432 134.608C495.432 136.776 497.19 138.534 499.359 138.534Z" stroke="#CB6F03" stroke-miterlimit="10"/>
<path d="M499.359 143.293V138.51" stroke="#CB6F03" stroke-miterlimit="10"/>
<path d="M564.575 138.534C566.744 138.534 568.503 136.776 568.503 134.608C568.503 132.44 566.744 130.682 564.575 130.682C562.406 130.682 560.648 132.44 560.648 134.608C560.648 136.776 562.406 138.534 564.575 138.534Z" stroke="#CB6F03" stroke-miterlimit="10"/>
<path d="M564.575 143.293V138.51" stroke="#CB6F03" stroke-miterlimit="10"/>
<path d="M288.476 250.133H288.524H294.45H304.828H316.8H333.128V258.342H316.8H304.828H294.45H288.524H288.476" stroke="#CB6F03" stroke-miterlimit="10"/>
<path d="M288.476 269.264V268.764" stroke="#CB6F03" stroke-miterlimit="10"/>
<path d="M288.476 127.136V127.113" stroke="#CB6F03" stroke-miterlimit="10"/>
<path d="M288.476 15.4667V12.3496" stroke="#CB6F03" stroke-miterlimit="10"/>
<path d="M288.476 40.0708V39.4045" stroke="#CB6F03" stroke-miterlimit="10"/>
<path d="M288.476 69.7663V69.7429" stroke="#CB6F03" stroke-miterlimit="10"/>
<path d="M288.476 309.787H288.524H346.552H356.739H389.752H400.392H492.29H545.463H555.34H571.264V269.264V231.001V224.386V163.019H564.575H555.34H548.057H514.925H507.642H500.097H492.29H356.739H333.128H288.524H288.476" stroke="#CB6F03" stroke-miterlimit="10"/>
<path d="M288.476 269.264V268.764" stroke="#CB6F03" stroke-miterlimit="10"/>
<path d="M288.476 226.385H288.524H292.308H333.128H356.739V231.001V236.403V269.264H333.128H288.524H288.476V268.764" stroke="#CB6F03" stroke-miterlimit="10"/>
<path d="M288.476 226.385H288.524H292.308H333.128V250.133V258.342V269.264H288.524H288.476V268.764" stroke="#CB6F03" stroke-miterlimit="10"/>
<path d="M333.128 162.9V163.019V186.41V193.572V209.229V226.385" stroke="#CB6F03" stroke-miterlimit="10"/>
<path d="M356.739 193.596H333.128" stroke="#CB6F03" stroke-miterlimit="10"/>
<path d="M316.776 243.137V242.875C316.776 237.807 314.11 233.738 310.802 233.738C307.494 233.738 304.804 237.807 304.804 242.875V243.137" stroke="#CB6F03" stroke-miterlimit="10"/>
<path d="M316.8 258.342V268.931H304.828V258.342" stroke="#CB6F03" stroke-linejoin="round"/>
<path d="M316.8 242.875V243.137V250.132" stroke="#CB6F03" stroke-linejoin="round"/>
<path d="M304.828 242.875V243.137V250.132" stroke="#CB6F03" stroke-linejoin="round"/>
<path d="M294.45 242.97V242.709C294.45 237.664 291.808 233.619 288.524 233.571H288.476" stroke="#CB6F03" stroke-miterlimit="10"/>
<path d="M294.45 242.708V242.97V250.133" stroke="#CB6F03" stroke-linejoin="round"/>
<path d="M294.45 258.342V268.764H288.524H288.476" stroke="#CB6F03" stroke-linejoin="round"/>
<path d="M313.92 203.637V203.423C313.92 199.021 312.206 195.476 310.112 195.476C308.017 195.476 306.28 199.021 306.28 203.423V203.637" stroke="#CB6F03" stroke-miterlimit="10"/>
<path d="M313.92 203.423V203.637V226.076H306.256V203.637V203.423" stroke="#CB6F03" stroke-linejoin="round"/>
<path d="M292.308 203.97V203.756C292.308 199.378 290.618 195.856 288.524 195.809H288.476" stroke="#CB6F03" stroke-miterlimit="10"/>
<path d="M292.308 203.756V203.97V209.229V226.385H288.524H288.476" stroke="#CB6F03" stroke-linejoin="round"/>
<path d="M322.608 163.638H317.609V213.917H322.608V163.638Z" stroke="#CB6F03" stroke-miterlimit="10"/>
<path d="M301.781 163.638H296.783V213.917H301.781V163.638Z" stroke="#CB6F03" stroke-miterlimit="10"/>
<path d="M296.783 186.41H288.524H288.476" stroke="#CB6F03" stroke-miterlimit="10"/>
<path d="M322.608 186.41H333.128H333.152" stroke="#CB6F03" stroke-miterlimit="10"/>
<path d="M317.609 186.41H301.781" stroke="#CB6F03" stroke-miterlimit="10"/>
<path d="M296.783 209.229H292.308" stroke="#CB6F03" stroke-miterlimit="10"/>
<path d="M333.152 209.229H322.608" stroke="#CB6F03" stroke-miterlimit="10"/>
<path d="M489.886 155.143H356.739" stroke="#CB6F03" stroke-miterlimit="10"/>
<path d="M542.678 130.682C542.678 130.682 545.153 117.143 534.704 109.243" stroke="#CB6F03" stroke-miterlimit="10"/>
<path d="M521.161 130.682C521.161 130.682 518.686 117.143 529.135 109.243" stroke="#CB6F03" stroke-miterlimit="10"/>
<path d="M532.015 109.147L531.991 104.436" stroke="#CB6F03" stroke-miterlimit="10"/>
<path d="M531.991 98.868L531.967 93.7759" stroke="#CB6F03" stroke-miterlimit="10"/>
<path d="M531.92 104.436C533.458 104.436 534.704 103.19 534.704 101.652C534.704 100.115 533.458 98.8682 531.92 98.8682C530.382 98.8682 529.135 100.115 529.135 101.652C529.135 103.19 530.382 104.436 531.92 104.436Z" stroke="#CB6F03" stroke-miterlimit="10"/>
</g>
<defs>
<clipPath id="clip0_524_1637">
<rect width="577" height="311" fill="white"/>
</clipPath>
</defs>
</svg>
