<svg width="886" height="436" viewBox="0 0 886 436" fill="none" xmlns="http://www.w3.org/2000/svg">
<g clip-path="url(#clip0_524_546)">
<path d="M44.7842 48.1723V35.0039" stroke="#CB6F03" stroke-width="0.90669" stroke-miterlimit="10"/>
<path d="M44.7842 27.9668V18.1616" stroke="#CB6F03" stroke-width="0.90669" stroke-miterlimit="10"/>
<path d="M44.7834 34.9779C46.7266 34.9779 48.3018 33.4026 48.3018 31.4594C48.3018 29.5162 46.7266 27.9409 44.7834 27.9409C42.8402 27.9409 41.2649 29.5162 41.2649 31.4594C41.2649 33.4026 42.8402 34.9779 44.7834 34.9779Z" stroke="#CB6F03" stroke-width="0.90669" stroke-miterlimit="10"/>
<path d="M14.6675 131.891L14.6675 121.724" stroke="#CB6F03" stroke-width="0.90669" stroke-miterlimit="10"/>
<path d="M14.6675 116.291L14.6675 108.736" stroke="#CB6F03" stroke-width="0.90669" stroke-miterlimit="10"/>
<path d="M14.6679 121.723C16.1681 121.723 17.3844 120.507 17.3844 119.007C17.3844 117.507 16.1681 116.291 14.6679 116.291C13.1676 116.291 11.9514 117.507 11.9514 119.007C11.9514 120.507 13.1676 121.723 14.6679 121.723Z" stroke="#CB6F03" stroke-width="0.90669" stroke-miterlimit="10"/>
<path d="M123.042 131.71V121.542" stroke="#CB6F03" stroke-width="0.90669" stroke-miterlimit="10"/>
<path d="M123.042 116.11V108.555" stroke="#CB6F03" stroke-width="0.90669" stroke-miterlimit="10"/>
<path d="M123.042 121.542C124.543 121.542 125.759 120.326 125.759 118.826C125.759 117.326 124.543 116.109 123.042 116.109C121.542 116.109 120.326 117.326 120.326 118.826C120.326 120.326 121.542 121.542 123.042 121.542Z" stroke="#CB6F03" stroke-width="0.90669" stroke-miterlimit="10"/>
<path d="M92.4895 48.1723V35.0039" stroke="#CB6F03" stroke-width="0.90669" stroke-miterlimit="10"/>
<path d="M92.4895 27.9668V18.1616" stroke="#CB6F03" stroke-width="0.90669" stroke-miterlimit="10"/>
<path d="M92.4887 34.9779C94.4319 34.9779 96.0072 33.4026 96.0072 31.4594C96.0072 29.5162 94.4319 27.9409 92.4887 27.9409C90.5455 27.9409 88.9702 29.5162 88.9702 31.4594C88.9702 33.4026 90.5455 34.9779 92.4887 34.9779Z" stroke="#CB6F03" stroke-width="0.90669" stroke-miterlimit="10"/>
<path d="M67.937 93.6277V105.554" stroke="#CB6F03" stroke-width="0.90669" stroke-miterlimit="10"/>
<path d="M43.5161 48.146L43.5161 169.689" stroke="#CB6F03" stroke-width="0.90669" stroke-miterlimit="10"/>
<path d="M94.2224 48.146L94.2224 169.999" stroke="#CB6F03" stroke-width="0.90669" stroke-miterlimit="10"/>
<path d="M22.3518 168.706L22.3518 197.992" stroke="#CB6F03" stroke-width="0.90669" stroke-miterlimit="10"/>
<path d="M116.602 170.051V197.992" stroke="#CB6F03" stroke-width="0.90669" stroke-miterlimit="10"/>
<path d="M1.29346 183.349H22.3526" stroke="#CB6F03" stroke-width="0.90669" stroke-miterlimit="10"/>
<path d="M116.602 183.349H133.677" stroke="#CB6F03" stroke-width="0.90669" stroke-miterlimit="10"/>
<path d="M106.898 184.021H105.76H92.6433" stroke="#CB6F03" stroke-width="0.90669" stroke-miterlimit="10"/>
<path d="M44.7059 184.021H31.5892H30.2698" stroke="#CB6F03" stroke-width="0.90669" stroke-miterlimit="10"/>
<path d="M31.5886 170.025V184.358" stroke="#CB6F03" stroke-width="0.90669" stroke-miterlimit="10"/>
<path d="M44.7061 170.335V184.358" stroke="#CB6F03" stroke-width="0.90669" stroke-miterlimit="10"/>
<path d="M51.8965 170.025V184.358" stroke="#CB6F03" stroke-width="0.90669" stroke-miterlimit="10"/>
<path d="M92.6433 170.18V185.289" stroke="#CB6F03" stroke-width="0.90669" stroke-miterlimit="10"/>
<path d="M105.761 170.491V184.513" stroke="#CB6F03" stroke-width="0.90669" stroke-miterlimit="10"/>
<path d="M15.4443 328.434H122.033" stroke="#CB6F03" stroke-width="0.90669" stroke-miterlimit="10"/>
<path d="M16.9705 328.46C20.0233 320.698 27.5776 315.214 36.3997 315.214C45.2217 315.214 52.802 320.698 55.8289 328.46" stroke="#CB6F03" stroke-width="0.90669" stroke-miterlimit="10"/>
<path d="M79.761 328.46C82.7879 320.698 90.3423 315.214 99.1902 315.214C108.038 315.214 115.592 320.698 118.619 328.46" stroke="#CB6F03" stroke-width="0.90669" stroke-miterlimit="10"/>
<path d="M15.4443 356.97H122.033" stroke="#CB6F03" stroke-width="0.90669" stroke-miterlimit="10"/>
<path d="M122.034 310.868H179.235" stroke="#CB6F03" stroke-width="0.90669" stroke-miterlimit="10"/>
<path d="M464.101 67.3428H502.675" stroke="#CB6F03" stroke-width="0.90669" stroke-miterlimit="10"/>
<path d="M464.101 51.5869L502.675 51.5869" stroke="#CB6F03" stroke-width="0.90669" stroke-miterlimit="10"/>
<path d="M473.002 40.7988H492.328" stroke="#CB6F03" stroke-width="0.90669" stroke-miterlimit="10"/>
<path d="M473.002 25.3794L492.509 25.3794" stroke="#CB6F03" stroke-width="0.90669" stroke-miterlimit="10"/>
<path d="M482.418 16.1436V0" stroke="#CB6F03" stroke-width="0.90669" stroke-miterlimit="10"/>
<path d="M778.152 176.26V230.719" stroke="#CB6F03" stroke-width="0.90669" stroke-miterlimit="10"/>
<path d="M588.568 186.66V217.292" stroke="#CB6F03" stroke-width="0.90669" stroke-miterlimit="10"/>
<path d="M641.682 186.66V217.292" stroke="#CB6F03" stroke-width="0.90669" stroke-miterlimit="10"/>
<path d="M695.779 186.66V217.292" stroke="#CB6F03" stroke-width="0.90669" stroke-miterlimit="10"/>
<path d="M749.848 186.66V217.292" stroke="#CB6F03" stroke-width="0.90669" stroke-miterlimit="10"/>
<path d="M243.55 186.66V217.292" stroke="#CB6F03" stroke-width="0.90669" stroke-miterlimit="10"/>
<path d="M297.129 186.66V217.292" stroke="#CB6F03" stroke-width="0.90669" stroke-miterlimit="10"/>
<path d="M351.693 186.66V217.292" stroke="#CB6F03" stroke-width="0.90669" stroke-miterlimit="10"/>
<path d="M179.236 342.172L877.575 342.172" stroke="#CB6F03" stroke-width="0.90669" stroke-miterlimit="10" stroke-linecap="square"/>
<path d="M778.152 176.26V434.376" stroke="#CB6F03" stroke-width="0.90669" stroke-miterlimit="10" stroke-linecap="square"/>
<path d="M179.236 328.434L877.575 328.434" stroke="#CB6F03" stroke-width="0.90669" stroke-miterlimit="10" stroke-linecap="square"/>
<path d="M778.928 230.719H877.575" stroke="#CB6F03" stroke-width="0.90669" stroke-miterlimit="10" stroke-linecap="square"/>
<path d="M778.928 186.66H884.146" stroke="#CB6F03" stroke-width="0.90669" stroke-miterlimit="10" stroke-linecap="square"/>
<path d="M179.236 318.655L877.575 318.655" stroke="#CB6F03" stroke-width="0.90669" stroke-miterlimit="10"/>
<path d="M405.479 305.305H556.101" stroke="#CB6F03" stroke-width="0.90669" stroke-miterlimit="10"/>
<path d="M405.479 434.376V304.012" stroke="#CB6F03" stroke-width="0.90669" stroke-miterlimit="10"/>
<path d="M556.1 434.376V304.141" stroke="#CB6F03" stroke-width="0.90669" stroke-miterlimit="10"/>
<path d="M14.7722 418.077H122.034" stroke="#CB6F03" stroke-width="0.90669" stroke-miterlimit="10"/>
<path d="M67.937 136.056V148.682" stroke="#CB6F03" stroke-width="0.90669" stroke-miterlimit="10"/>
<path d="M1.29346 169.378L133.676 170.361" stroke="#CB6F03" stroke-width="0.90669" stroke-miterlimit="10"/>
<path d="M1.29346 197.992L133.676 197.992" stroke="#CB6F03" stroke-width="0.90669" stroke-miterlimit="10"/>
<path d="M65.0131 184.021H51.8965" stroke="#CB6F03" stroke-width="0.90669" stroke-miterlimit="10"/>
<path d="M85.3486 184.021H72.2319" stroke="#CB6F03" stroke-width="0.90669" stroke-miterlimit="10"/>
<path d="M72.2319 169.689V184.021" stroke="#CB6F03" stroke-width="0.90669" stroke-miterlimit="10"/>
<path d="M85.3494 169.999V184.021" stroke="#CB6F03" stroke-width="0.90669" stroke-miterlimit="10"/>
<path d="M65.0139 170.335V184.358" stroke="#CB6F03" stroke-width="0.90669" stroke-miterlimit="10"/>
<path d="M133.676 170.284V197.319L133.107 197.992L122.034 211.393L122.034 279.718H99.1898V228.933C99.1898 228.675 99.1898 228.442 99.1639 228.209H67.834C67.8081 228.442 67.8081 228.675 67.8081 228.933C67.8081 228.675 67.8081 228.442 67.7823 228.209H36.4264C36.4006 228.442 36.4006 228.675 36.4006 228.933L36.4006 279.718H15.833L16.2211 228.209L16.3246 213.954V210.979L1.29346 197.992L1.29346 169.378H8.04582L14.643 130.002L22.3526 168.705H31.1487L43.5151 48.1719L94.2225 48.1719L105.192 169.999L116.601 170.077L123.095 131.477L130.313 170.206L133.676 170.284Z" stroke="#CB6F03" stroke-width="0.90669" stroke-miterlimit="10"/>
<path d="M122.034 228.209H99.216H99.1902H99.1643" stroke="#CB6F03" stroke-width="0.90669" stroke-miterlimit="10"/>
<path d="M67.8368 228.209H67.8099H67.783" stroke="#CB6F03" stroke-width="0.90669" stroke-miterlimit="10"/>
<path d="M36.4253 228.209H36.3736H16.22" stroke="#CB6F03" stroke-width="0.90669" stroke-miterlimit="10"/>
<path d="M36.4268 228.209C36.8148 219.93 43.6965 213.333 52.1047 213.333C60.5128 213.333 67.3945 219.93 67.7826 228.209" stroke="#CB6F03" stroke-width="0.90669" stroke-miterlimit="10"/>
<path d="M16.3235 213.954C17.7205 213.54 19.1952 213.333 20.7216 213.333C29.1297 213.333 35.9855 219.93 36.3736 228.209C36.3995 228.442 36.3995 228.675 36.3995 228.934" stroke="#CB6F03" stroke-width="0.90669" stroke-miterlimit="10"/>
<path d="M67.8335 228.209C68.2216 219.93 75.0774 213.333 83.4855 213.333C91.8936 213.333 98.7754 219.93 99.1634 228.209" stroke="#CB6F03" stroke-width="0.90669" stroke-miterlimit="10"/>
<path d="M99.1895 228.934C99.1895 228.675 99.1895 228.442 99.1895 228.209C99.5775 219.93 106.433 213.333 114.841 213.333C117.429 213.333 119.86 213.954 122.008 215.067" stroke="#CB6F03" stroke-width="0.90669" stroke-miterlimit="10"/>
<path d="M36.4014 228.934V228.235" stroke="#CB6F03" stroke-width="0.90669" stroke-miterlimit="10"/>
<path d="M36.4014 316.766L36.4014 279.719" stroke="#CB6F03" stroke-width="0.90669" stroke-miterlimit="10"/>
<path d="M99.1895 228.934V228.209" stroke="#CB6F03" stroke-width="0.90669" stroke-miterlimit="10"/>
<path d="M99.1895 316.766V279.719" stroke="#CB6F03" stroke-width="0.90669" stroke-miterlimit="10"/>
<path d="M55.8301 328.46V356.97" stroke="#CB6F03" stroke-width="0.90669" stroke-miterlimit="10"/>
<path d="M79.761 328.46V356.97" stroke="#CB6F03" stroke-width="0.90669" stroke-miterlimit="10"/>
<path d="M99.1895 333.556V346.311" stroke="#CB6F03" stroke-width="0.90669" stroke-miterlimit="10"/>
<path d="M37.7708 333.556V346.311" stroke="#CB6F03" stroke-width="0.90669" stroke-miterlimit="10"/>
<path d="M73.0076 304.762H62.5557V328.434H73.0076V304.762Z" stroke="#CB6F03" stroke-width="0.90669" stroke-miterlimit="10"/>
<path d="M58.935 234.366H45.896L45.896 264.325H58.935V234.366Z" stroke="#CB6F03" stroke-width="0.90669" stroke-miterlimit="10"/>
<path d="M90.0056 234.366H76.9666V264.325H90.0056V234.366Z" stroke="#CB6F03" stroke-width="0.90669" stroke-miterlimit="10"/>
<path d="M67.783 228.209V272.501C50.8116 278.296 36.4014 292.809 36.4014 292.809" stroke="#CB6F03" stroke-width="0.90669" stroke-miterlimit="10"/>
<path d="M67.8081 228.209V228.934V272.501C84.7796 278.296 99.1898 292.809 99.1898 292.809" stroke="#CB6F03" stroke-width="0.90669" stroke-miterlimit="10"/>
<path d="M36.4014 434.402V398.105C36.4014 398.105 37.8243 370.423 67.783 356.97" stroke="#CB6F03" stroke-width="0.90669" stroke-miterlimit="10"/>
<path d="M101.752 434.402L101.752 398.105C101.752 398.105 100.329 370.423 70.3699 356.97" stroke="#CB6F03" stroke-width="0.90669" stroke-miterlimit="10"/>
<path d="M93.0076 434.402V401.52C93.0076 401.52 91.921 376.425 68.7405 364.24" stroke="#CB6F03" stroke-width="0.90669" stroke-miterlimit="10"/>
<path d="M46.1033 434.402V401.52C46.1033 401.52 47.1899 376.425 70.3704 364.24" stroke="#CB6F03" stroke-width="0.90669" stroke-miterlimit="10"/>
<path d="M122.034 294.051L122.034 434.376" stroke="#CB6F03" stroke-width="0.90669" stroke-miterlimit="10"/>
<path d="M179.236 294.051L179.236 434.376" stroke="#CB6F03" stroke-width="0.90669" stroke-miterlimit="10"/>
<path d="M122.034 387.653C122.034 373.683 134.84 362.351 150.647 362.351C166.454 362.351 179.235 373.683 179.235 387.653" stroke="#CB6F03" stroke-width="0.90669" stroke-miterlimit="10"/>
<path d="M197.421 271.129C197.421 262.1 204.742 254.779 213.745 254.779C222.749 254.779 230.096 262.1 230.096 271.129" stroke="#CB6F03" stroke-width="0.90669" stroke-miterlimit="10"/>
<path d="M197.421 271.104V318.655" stroke="#CB6F03" stroke-width="0.90669" stroke-miterlimit="10"/>
<path d="M230.096 271.104V318.655" stroke="#CB6F03" stroke-width="0.90669" stroke-miterlimit="10"/>
<path d="M129.613 348.406H170.593" stroke="#CB6F03" stroke-width="0.90669" stroke-miterlimit="10"/>
<path d="M129.613 329.288C129.613 325.407 132.744 322.277 136.624 322.277C140.505 322.277 143.635 325.407 143.635 329.288" stroke="#CB6F03" stroke-width="0.90669" stroke-miterlimit="10"/>
<path d="M129.639 329.288V349.674" stroke="#CB6F03" stroke-width="0.90669" stroke-miterlimit="10"/>
<path d="M143.635 329.288V349.674" stroke="#CB6F03" stroke-width="0.90669" stroke-miterlimit="10"/>
<path d="M143.635 329.055C143.635 325.174 146.766 322.044 150.646 322.044C154.527 322.044 157.657 325.174 157.657 329.055" stroke="#CB6F03" stroke-width="0.90669" stroke-miterlimit="10"/>
<path d="M143.636 329.055V349.441" stroke="#CB6F03" stroke-width="0.90669" stroke-miterlimit="10"/>
<path d="M157.632 329.055V349.441" stroke="#CB6F03" stroke-width="0.90669" stroke-miterlimit="10"/>
<path d="M157.632 329.288C157.632 325.407 160.762 322.277 164.643 322.277C168.524 322.277 171.654 325.407 171.654 329.288" stroke="#CB6F03" stroke-width="0.90669" stroke-miterlimit="10"/>
<path d="M157.633 329.288V349.674" stroke="#CB6F03" stroke-width="0.90669" stroke-miterlimit="10"/>
<path d="M171.655 329.288V349.674" stroke="#CB6F03" stroke-width="0.90669" stroke-miterlimit="10"/>
<path d="M250.871 271.129C250.871 262.1 258.192 254.779 267.195 254.779C276.198 254.779 283.546 262.1 283.546 271.129" stroke="#CB6F03" stroke-width="0.90669" stroke-miterlimit="10"/>
<path d="M250.896 271.104V318.655" stroke="#CB6F03" stroke-width="0.90669" stroke-miterlimit="10"/>
<path d="M283.545 271.104V318.655" stroke="#CB6F03" stroke-width="0.90669" stroke-miterlimit="10"/>
<path d="M305.021 271.129C305.021 262.1 312.342 254.779 321.345 254.779C330.349 254.779 337.696 262.1 337.696 271.129" stroke="#CB6F03" stroke-width="0.90669" stroke-miterlimit="10"/>
<path d="M305.021 271.104V318.655" stroke="#CB6F03" stroke-width="0.90669" stroke-miterlimit="10"/>
<path d="M337.67 271.104V318.655" stroke="#CB6F03" stroke-width="0.90669" stroke-miterlimit="10"/>
<path d="M358.057 271.854C358.057 262.825 365.379 255.503 374.382 255.503C383.385 255.503 390.733 262.825 390.733 271.854" stroke="#CB6F03" stroke-width="0.90669" stroke-miterlimit="10"/>
<path d="M358.057 271.828V319.379" stroke="#CB6F03" stroke-width="0.90669" stroke-miterlimit="10"/>
<path d="M390.707 271.828V319.379" stroke="#CB6F03" stroke-width="0.90669" stroke-miterlimit="10"/>
<path d="M465.785 271.129C465.785 262.1 473.106 254.779 482.109 254.779C491.113 254.779 498.46 262.1 498.46 271.129" stroke="#CB6F03" stroke-width="0.90669" stroke-miterlimit="10"/>
<path d="M465.785 271.104V318.655" stroke="#CB6F03" stroke-width="0.90669" stroke-miterlimit="10"/>
<path d="M498.46 271.104V318.655" stroke="#CB6F03" stroke-width="0.90669" stroke-miterlimit="10"/>
<path d="M572.246 271.129C572.246 262.1 579.567 254.779 588.57 254.779C597.573 254.779 604.921 262.1 604.921 271.129" stroke="#CB6F03" stroke-width="0.90669" stroke-miterlimit="10"/>
<path d="M572.246 271.104V318.655" stroke="#CB6F03" stroke-width="0.90669" stroke-miterlimit="10"/>
<path d="M604.895 271.104V318.655" stroke="#CB6F03" stroke-width="0.90669" stroke-miterlimit="10"/>
<path d="M625.356 271.129C625.356 262.1 632.678 254.779 641.681 254.779C650.684 254.779 658.031 262.1 658.031 271.129" stroke="#CB6F03" stroke-width="0.90669" stroke-miterlimit="10"/>
<path d="M625.356 271.104V318.655" stroke="#CB6F03" stroke-width="0.90669" stroke-miterlimit="10"/>
<path d="M658.005 271.104V318.655" stroke="#CB6F03" stroke-width="0.90669" stroke-miterlimit="10"/>
<path d="M679.428 271.129C679.428 262.1 686.749 254.779 695.752 254.779C704.756 254.779 712.103 262.1 712.103 271.129" stroke="#CB6F03" stroke-width="0.90669" stroke-miterlimit="10"/>
<path d="M679.427 271.104V318.655" stroke="#CB6F03" stroke-width="0.90669" stroke-miterlimit="10"/>
<path d="M712.102 271.104V318.655" stroke="#CB6F03" stroke-width="0.90669" stroke-miterlimit="10"/>
<path d="M733.497 271.129C733.497 262.1 740.819 254.779 749.822 254.779C758.825 254.779 766.172 262.1 766.172 271.129" stroke="#CB6F03" stroke-width="0.90669" stroke-miterlimit="10"/>
<path d="M733.497 271.104V318.655" stroke="#CB6F03" stroke-width="0.90669" stroke-miterlimit="10"/>
<path d="M766.172 271.104V318.655" stroke="#CB6F03" stroke-width="0.90669" stroke-miterlimit="10"/>
<path d="M811.911 271.854C811.911 262.825 819.233 255.503 828.236 255.503C837.239 255.503 844.586 262.825 844.586 271.854" stroke="#CB6F03" stroke-width="0.90669" stroke-miterlimit="10"/>
<path d="M811.91 271.828V319.379" stroke="#CB6F03" stroke-width="0.90669" stroke-miterlimit="10"/>
<path d="M844.585 271.828V319.379" stroke="#CB6F03" stroke-width="0.90669" stroke-miterlimit="10"/>
<path d="M231.986 244.534C231.986 251.002 235.789 256.254 240.498 256.254C245.206 256.254 248.983 251.002 248.983 244.534" stroke="#CB6F03" stroke-width="0.90669" stroke-miterlimit="10"/>
<path d="M285.772 244.534C285.772 251.002 289.576 256.254 294.284 256.254C298.993 256.254 302.77 251.002 302.77 244.534" stroke="#CB6F03" stroke-width="0.90669" stroke-miterlimit="10"/>
<path d="M339.377 244.534C339.377 251.002 343.18 256.254 347.888 256.254C352.597 256.254 356.374 251.002 356.374 244.534" stroke="#CB6F03" stroke-width="0.90669" stroke-miterlimit="10"/>
<path d="M607.118 244.534C607.118 251.002 610.921 256.254 615.629 256.254C620.338 256.254 624.115 251.002 624.115 244.534" stroke="#CB6F03" stroke-width="0.90669" stroke-miterlimit="10"/>
<path d="M660.904 244.534C660.904 251.002 664.707 256.254 669.415 256.254C674.124 256.254 677.901 251.002 677.901 244.534" stroke="#CB6F03" stroke-width="0.90669" stroke-miterlimit="10"/>
<path d="M714.483 244.534C714.483 251.002 718.286 256.254 722.994 256.254C727.703 256.254 731.48 251.002 731.48 244.534" stroke="#CB6F03" stroke-width="0.90669" stroke-miterlimit="10"/>
<path d="M193.881 318.655V328.434" stroke="#CB6F03" stroke-width="0.90669" stroke-miterlimit="10" stroke-linecap="square"/>
<path d="M233.309 318.655V328.434" stroke="#CB6F03" stroke-width="0.90669" stroke-miterlimit="10" stroke-linecap="square"/>
<path d="M247.509 318.655V328.434" stroke="#CB6F03" stroke-width="0.90669" stroke-miterlimit="10" stroke-linecap="square"/>
<path d="M286.937 318.655V328.434" stroke="#CB6F03" stroke-width="0.90669" stroke-miterlimit="10" stroke-linecap="square"/>
<path d="M301.631 318.655V328.434" stroke="#CB6F03" stroke-width="0.90669" stroke-miterlimit="10" stroke-linecap="square"/>
<path d="M341.059 318.655V328.434" stroke="#CB6F03" stroke-width="0.90669" stroke-miterlimit="10" stroke-linecap="square"/>
<path d="M354.667 318.655V328.434" stroke="#CB6F03" stroke-width="0.90669" stroke-miterlimit="10" stroke-linecap="square"/>
<path d="M394.096 318.655V328.434" stroke="#CB6F03" stroke-width="0.90669" stroke-miterlimit="10" stroke-linecap="square"/>
<path d="M569.295 318.655V328.434" stroke="#CB6F03" stroke-width="0.90669" stroke-miterlimit="10" stroke-linecap="square"/>
<path d="M608.723 318.655V328.434" stroke="#CB6F03" stroke-width="0.90669" stroke-miterlimit="10" stroke-linecap="square"/>
<path d="M622.925 318.655V328.434" stroke="#CB6F03" stroke-width="0.90669" stroke-miterlimit="10" stroke-linecap="square"/>
<path d="M662.353 318.655V328.434" stroke="#CB6F03" stroke-width="0.90669" stroke-miterlimit="10" stroke-linecap="square"/>
<path d="M677.073 318.655V328.434" stroke="#CB6F03" stroke-width="0.90669" stroke-miterlimit="10" stroke-linecap="square"/>
<path d="M716.476 318.655V328.434" stroke="#CB6F03" stroke-width="0.90669" stroke-miterlimit="10" stroke-linecap="square"/>
<path d="M730.084 318.655V328.434" stroke="#CB6F03" stroke-width="0.90669" stroke-miterlimit="10" stroke-linecap="square"/>
<path d="M769.512 318.655V328.434" stroke="#CB6F03" stroke-width="0.90669" stroke-miterlimit="10" stroke-linecap="square"/>
<path d="M230.097 364.214H197.421V434.402H230.097V364.214Z" stroke="#CB6F03" stroke-width="0.90669" stroke-miterlimit="10"/>
<path d="M283.547 364.214H250.872V434.402H283.547V364.214Z" stroke="#CB6F03" stroke-width="0.90669" stroke-miterlimit="10"/>
<path d="M337.697 364.214H305.021V434.402H337.697V364.214Z" stroke="#CB6F03" stroke-width="0.90669" stroke-miterlimit="10"/>
<path d="M390.733 364.214H358.057V434.402H390.733V364.214Z" stroke="#CB6F03" stroke-width="0.90669" stroke-miterlimit="10"/>
<path d="M605.435 364.214H572.76V434.402H605.435V364.214Z" stroke="#CB6F03" stroke-width="0.90669" stroke-miterlimit="10"/>
<path d="M658.885 364.214H626.21V434.402H658.885V364.214Z" stroke="#CB6F03" stroke-width="0.90669" stroke-miterlimit="10"/>
<path d="M713.035 364.214H680.36V434.402H713.035V364.214Z" stroke="#CB6F03" stroke-width="0.90669" stroke-miterlimit="10"/>
<path d="M766.071 364.214H733.396V434.402H766.071V364.214Z" stroke="#CB6F03" stroke-width="0.90669" stroke-miterlimit="10"/>
<path d="M844.589 364.214H811.914V434.402H844.589V364.214Z" stroke="#CB6F03" stroke-width="0.90669" stroke-miterlimit="10"/>
<path d="M792.796 186.66V434.376" stroke="#CB6F03" stroke-width="0.90669" stroke-miterlimit="10"/>
<path d="M862.648 186.66V434.376" stroke="#CB6F03" stroke-width="0.90669" stroke-miterlimit="10"/>
<path d="M415.724 294.879C422.082 294.879 427.236 289.725 427.236 283.366C427.236 277.008 422.082 271.854 415.724 271.854C409.366 271.854 404.211 277.008 404.211 283.366C404.211 289.725 409.366 294.879 415.724 294.879Z" stroke="#CB6F03" stroke-width="0.90669" stroke-miterlimit="10"/>
<path d="M550.201 294.879C556.559 294.879 561.713 289.725 561.713 283.366C561.713 277.008 556.559 271.854 550.201 271.854C543.842 271.854 538.688 277.008 538.688 283.366C538.688 289.725 543.842 294.879 550.201 294.879Z" stroke="#CB6F03" stroke-width="0.90669" stroke-miterlimit="10"/>
<path d="M454.477 271.104H432.849V312.653H454.477V271.104Z" stroke="#CB6F03" stroke-width="0.90669" stroke-miterlimit="10"/>
<path d="M532.118 271.104H510.49V312.653H532.118V271.104Z" stroke="#CB6F03" stroke-width="0.90669" stroke-miterlimit="10"/>
<path d="M415.724 294.879V305.305" stroke="#CB6F03" stroke-width="0.90669" stroke-miterlimit="10"/>
<path d="M550.201 294.879V305.305" stroke="#CB6F03" stroke-width="0.90669" stroke-miterlimit="10"/>
<path d="M435.385 84.2622L528.392 84.2622" stroke="#CB6F03" stroke-width="0.90669" stroke-miterlimit="10"/>
<path d="M828.239 250.381C831.911 250.381 834.888 247.404 834.888 243.732C834.888 240.06 831.911 237.083 828.239 237.083C824.567 237.083 821.59 240.06 821.59 243.732C821.59 247.404 824.567 250.381 828.239 250.381Z" stroke="#CB6F03" stroke-width="0.90669" stroke-miterlimit="10"/>
<path d="M848.133 194.266H807.308V230.719H848.133V194.266Z" stroke="#CB6F03" stroke-width="0.90669" stroke-miterlimit="10"/>
<path d="M836.984 119.007H819.21V130.882H836.984V119.007Z" stroke="#CB6F03" stroke-width="0.90669" stroke-miterlimit="10"/>
<path d="M828.109 103.278V119.007" stroke="#CB6F03" stroke-width="0.90669" stroke-miterlimit="10"/>
<path d="M778.152 176.26H884.146" stroke="#CB6F03" stroke-width="0.90669" stroke-miterlimit="10"/>
<path d="M818.046 164.618C818.046 159.599 822.108 155.563 827.101 155.563C832.094 155.563 836.156 159.599 836.156 164.618" stroke="#CB6F03" stroke-width="0.90669" stroke-miterlimit="10"/>
<path d="M818.046 164.592V176.26" stroke="#CB6F03" stroke-width="0.90669" stroke-miterlimit="10"/>
<path d="M836.156 164.592V176.26" stroke="#CB6F03" stroke-width="0.90669" stroke-miterlimit="10"/>
<path d="M808.809 169.792C808.809 156.727 817.087 146.12 827.306 146.12C837.526 146.12 845.778 156.727 845.778 169.792" stroke="#CB6F03" stroke-width="0.90669" stroke-miterlimit="10"/>
<path d="M808.809 168.524H797.452" stroke="#CB6F03" stroke-width="0.90669" stroke-miterlimit="10"/>
<path d="M797.452 167.257V176.26" stroke="#CB6F03" stroke-width="0.90669" stroke-miterlimit="10"/>
<path d="M845.779 168.524H857.136" stroke="#CB6F03" stroke-width="0.90669" stroke-miterlimit="10"/>
<path d="M857.135 167.257V176.26" stroke="#CB6F03" stroke-width="0.90669" stroke-miterlimit="10"/>
<path d="M518.017 266.576C518.017 264.791 519.466 263.368 521.225 263.368C522.985 263.368 524.433 264.791 524.433 266.576" stroke="#CB6F03" stroke-width="0.90669" stroke-miterlimit="10"/>
<path d="M518.018 266.576V270.716" stroke="#CB6F03" stroke-width="0.90669" stroke-miterlimit="10"/>
<path d="M524.46 266.576V270.716" stroke="#CB6F03" stroke-width="0.90669" stroke-miterlimit="10"/>
<path d="M514.73 268.413C514.73 263.756 517.68 260.005 521.302 260.005C524.924 260.005 527.873 263.782 527.873 268.413" stroke="#CB6F03" stroke-width="0.90669" stroke-miterlimit="10"/>
<path d="M514.73 267.973H510.694" stroke="#CB6F03" stroke-width="0.90669" stroke-miterlimit="10"/>
<path d="M510.694 267.508V270.716" stroke="#CB6F03" stroke-width="0.90669" stroke-miterlimit="10"/>
<path d="M527.874 267.973H531.909" stroke="#CB6F03" stroke-width="0.90669" stroke-miterlimit="10"/>
<path d="M531.908 267.508V270.716" stroke="#CB6F03" stroke-width="0.90669" stroke-miterlimit="10"/>
<path d="M440.17 266.188C440.17 264.403 441.619 262.98 443.378 262.98C445.138 262.98 446.586 264.403 446.586 266.188" stroke="#CB6F03" stroke-width="0.90669" stroke-miterlimit="10"/>
<path d="M440.17 266.188V270.327" stroke="#CB6F03" stroke-width="0.90669" stroke-miterlimit="10"/>
<path d="M446.613 266.188V270.327" stroke="#CB6F03" stroke-width="0.90669" stroke-miterlimit="10"/>
<path d="M436.883 268.025C436.883 263.368 439.832 259.617 443.454 259.617C447.076 259.617 450.025 263.394 450.025 268.025" stroke="#CB6F03" stroke-width="0.90669" stroke-miterlimit="10"/>
<path d="M436.883 267.585H432.847" stroke="#CB6F03" stroke-width="0.90669" stroke-miterlimit="10"/>
<path d="M432.847 267.119V270.327" stroke="#CB6F03" stroke-width="0.90669" stroke-miterlimit="10"/>
<path d="M450.026 267.585H454.062" stroke="#CB6F03" stroke-width="0.90669" stroke-miterlimit="10"/>
<path d="M454.061 267.119V270.327" stroke="#CB6F03" stroke-width="0.90669" stroke-miterlimit="10"/>
<path d="M877.576 364.214L501.436 364.214" stroke="#CB6F03" stroke-width="0.90669" stroke-miterlimit="10" stroke-linecap="square"/>
<path d="M463.664 364.214L179.237 364.214" stroke="#CB6F03" stroke-width="0.90669" stroke-miterlimit="10" stroke-linecap="square"/>
<path d="M179.237 418.077L877.602 418.077" stroke="#CB6F03" stroke-width="0.90669" stroke-miterlimit="10"/>
<path d="M544.045 378.701H514.164" stroke="#CB6F03" stroke-width="0.90669" stroke-miterlimit="10"/>
<path d="M450.961 378.701H421.986" stroke="#CB6F03" stroke-width="0.90669" stroke-miterlimit="10"/>
<path d="M544.045 418.077V377.434" stroke="#CB6F03" stroke-width="0.90669" stroke-miterlimit="10"/>
<path d="M421.986 418.077V377.382" stroke="#CB6F03" stroke-width="0.90669" stroke-miterlimit="10"/>
<path d="M507.464 418.077C513.648 411.791 517.477 403.15 517.477 393.603C517.477 388.274 516.286 383.229 514.165 378.702C511.345 372.777 506.921 367.732 501.436 364.214C496.004 360.721 489.51 358.677 482.551 358.677C475.591 358.677 469.098 360.721 463.665 364.214C458.18 367.732 453.756 372.777 450.962 378.702C448.815 383.229 447.625 388.274 447.625 393.603C447.625 403.15 451.453 411.791 457.637 418.077" stroke="#CB6F03" stroke-width="0.90669" stroke-miterlimit="10"/>
<path d="M622.925 155.485H608.722V175.742H622.925V155.485Z" stroke="#CB6F03" stroke-width="0.90669" stroke-miterlimit="10"/>
<path d="M354.952 155.485H340.749V175.742H354.952V155.485Z" stroke="#CB6F03" stroke-width="0.90669" stroke-miterlimit="10"/>
<path d="M415.725 175.743V272.475" stroke="#CB6F03" stroke-width="0.90669" stroke-miterlimit="10"/>
<path d="M550.202 175.743V272.475" stroke="#CB6F03" stroke-width="0.90669" stroke-miterlimit="10"/>
<path d="M550.072 160.323H550.046H514.861" stroke="#CB6F03" stroke-width="0.90669" stroke-miterlimit="10"/>
<path d="M451.815 160.323H415.725" stroke="#CB6F03" stroke-width="0.90669" stroke-miterlimit="10"/>
<path d="M550.202 175.769H535.636" stroke="#CB6F03" stroke-width="0.90669" stroke-miterlimit="10"/>
<path d="M431.066 175.769H415.725" stroke="#CB6F03" stroke-width="0.90669" stroke-miterlimit="10"/>
<path d="M778.928 186.66L550.202 186.66" stroke="#CB6F03" stroke-width="0.90669" stroke-miterlimit="10"/>
<path d="M415.725 186.66L189.353 186.66" stroke="#CB6F03" stroke-width="0.90669" stroke-miterlimit="10"/>
<path d="M884.146 175.975V186.66H877.963L877.575 434.402L14.6436 434.402L15.8336 279.719H36.4012V228.934C36.4012 228.675 36.4012 228.442 36.427 228.209H67.7829C67.8087 228.442 67.8087 228.675 67.8087 228.934C67.8087 228.675 67.8087 228.442 67.8346 228.209H99.1645C99.1904 228.442 99.1904 228.675 99.1904 228.934V279.719H122.035V294.051H179.236V217.317L189.351 186.66V175.484L415.724 175.768V124.544C427.805 71.8182 464.103 67.3684 464.103 67.3684V51.6129L473.002 40.8246V25.4054L482.419 16.1436L492.535 24.5517L492.328 40.2813L502.677 51.0954V68.0152C533.722 73.1894 549.736 125.423 549.736 125.423L550.202 175.743L778.152 176.26L800.815 130.908H854.317L877.006 175.975H884.146Z" stroke="#CB6F03" stroke-width="0.90669" stroke-miterlimit="10"/>
<path d="M778.93 217.318L519.753 217.318" stroke="#CB6F03" stroke-width="0.90669" stroke-miterlimit="10"/>
<path d="M444.494 217.318L179.237 217.318" stroke="#CB6F03" stroke-width="0.90669" stroke-miterlimit="10"/>
<path d="M179.237 230.719L778.93 230.719" stroke="#CB6F03" stroke-width="0.90669" stroke-miterlimit="10"/>
<path d="M444.495 206.529H519.754" stroke="#CB6F03" stroke-width="0.90669" stroke-miterlimit="10"/>
<path d="M519.752 230.719V206.529" stroke="#CB6F03" stroke-width="0.90669" stroke-miterlimit="10" stroke-linecap="square"/>
<path d="M444.494 230.719V206.529" stroke="#CB6F03" stroke-width="0.90669" stroke-miterlimit="10" stroke-linecap="square"/>
<path d="M178.461 244.508L778.154 244.508" stroke="#CB6F03" stroke-width="0.90669" stroke-miterlimit="10" stroke-linecap="square"/>
<path d="M392.312 244.534C392.312 251.002 396.115 256.254 400.824 256.254C405.532 256.254 409.309 251.002 409.309 244.534" stroke="#CB6F03" stroke-width="0.90669" stroke-miterlimit="10"/>
<path d="M454.117 222.828C454.117 222.828 457.739 218.611 468.45 217.318" stroke="#CB6F03" stroke-width="0.90669" stroke-miterlimit="10" stroke-linecap="round"/>
<path d="M510.129 222.828C510.129 222.828 506.507 218.611 495.796 217.318" stroke="#CB6F03" stroke-width="0.90669" stroke-miterlimit="10" stroke-linecap="round"/>
<path d="M468.475 217.318H495.769" stroke="#CB6F03" stroke-width="0.90669" stroke-miterlimit="10"/>
<path d="M454.117 222.828V230.719" stroke="#CB6F03" stroke-width="0.90669" stroke-miterlimit="10"/>
<path d="M510.127 222.828V231.029" stroke="#CB6F03" stroke-width="0.90669" stroke-miterlimit="10"/>
<path d="M534.421 217.317C534.551 216.127 534.603 214.911 534.603 213.67C534.603 198.018 525.91 184.177 512.586 175.768C504.1 170.413 493.726 167.257 482.55 167.257C471.373 167.257 460.999 170.413 452.513 175.768C439.19 184.177 430.497 198.018 430.497 213.67C430.497 214.911 430.549 216.127 430.678 217.317" stroke="#CB6F03" stroke-width="0.90669" stroke-miterlimit="10"/>
<path d="M549.97 217.576C550.125 216.05 550.202 214.497 550.202 212.893C550.202 192.792 539.026 175.018 521.925 164.204C511.034 157.322 497.71 153.26 483.351 153.26C468.993 153.26 455.669 157.322 444.778 164.204C427.651 174.992 416.5 192.792 416.5 212.893C416.5 214.497 416.578 216.05 416.733 217.576" stroke="#CB6F03" stroke-width="0.90669" stroke-miterlimit="10"/>
<path d="M457.609 157.866V108.245C457.609 108.245 457.919 95.1025 466.922 84.2883" stroke="#CB6F03" stroke-width="0.90669" stroke-miterlimit="10"/>
<path d="M498.02 84.2883C507.023 95.1025 507.333 108.245 507.333 108.245V157.271" stroke="#CB6F03" stroke-width="0.90669" stroke-miterlimit="10"/>
<path d="M465.423 139.42C465.423 129.977 473.107 122.293 482.55 122.293C491.993 122.293 499.676 129.977 499.676 139.42" stroke="#CB6F03" stroke-width="0.90669" stroke-miterlimit="10"/>
<path d="M499.677 139.42V155.072" stroke="#CB6F03" stroke-width="0.90669" stroke-miterlimit="10"/>
<path d="M465.423 139.42V155.486" stroke="#CB6F03" stroke-width="0.90669" stroke-miterlimit="10"/>
<path d="M487.44 153.416C488.63 152.2 489.328 150.544 489.328 148.707C489.328 144.982 486.301 141.929 482.55 141.929C478.799 141.929 475.772 144.982 475.772 148.707C475.772 150.596 476.522 152.252 477.738 153.493" stroke="#CB6F03" stroke-width="0.90669" stroke-miterlimit="10"/>
<path d="M294.284 329.288V362.351" stroke="#CB6F03" stroke-width="0.90669" stroke-miterlimit="10"/>
<path d="M669.416 329.288V362.351" stroke="#CB6F03" stroke-width="0.90669" stroke-miterlimit="10"/>
<path d="M421.985 305.305V378.702" stroke="#CB6F03" stroke-width="0.90669" stroke-miterlimit="10"/>
<path d="M544.044 305.305V388.377" stroke="#CB6F03" stroke-width="0.90669" stroke-miterlimit="10"/>
</g>
<defs>
<clipPath id="clip0_524_546">
<rect width="885.439" height="435.696" fill="white"/>
</clipPath>
</defs>
</svg>
