<svg width="638" height="619" viewBox="0 0 638 619" fill="none" xmlns="http://www.w3.org/2000/svg">
<path d="M253.088 345.364C268.793 354.171 286.908 359.181 306.108 359.181C347.158 359.181 382.946 336.355 401.664 302.662M203.884 288.078C199.345 276.039 196.854 262.95 196.854 249.295C196.854 240.407 197.899 231.721 199.867 223.44C200.67 220.289 201.554 217.097 202.598 214.027C204.285 209.058 206.294 204.25 208.663 199.604C209.266 198.311 209.949 197.059 210.672 195.847C213.042 191.524 215.693 187.404 218.665 183.485C219.589 182.192 220.553 180.98 221.557 179.768C223.123 177.829 224.77 175.89 226.497 174.031C227.542 172.941 228.626 171.85 229.711 170.759C230.876 169.668 232 168.578 233.165 167.527C234.33 166.436 235.535 165.386 236.74 164.416C237.945 163.366 239.23 162.397 240.475 161.427C241.68 160.498 243.006 159.528 244.291 158.68C245.617 157.751 246.942 156.862 248.268 156.054C250.999 154.276 253.69 152.701 256.542 151.327C259.073 149.994 261.724 148.782 264.415 147.691C268.15 146.116 272.046 144.702 276.023 143.611C276.987 143.369 278.031 143.045 278.995 142.803C282.128 141.995 285.301 141.349 288.474 140.783H288.595C290.242 140.46 291.929 140.217 293.536 140.056L290.925 124.785L285.502 92.6676C262.326 96.1823 240.315 103.373 220.071 113.594C177.374 140.581 149.096 188.414 149.096 242.872C149.096 272.807 157.692 300.723 172.514 324.235M571.087 256.688C566.789 237.418 560.282 218.915 551.927 201.543C542.086 181.061 529.635 161.993 514.934 144.984C500.313 127.896 483.483 112.706 464.886 99.9395C443.718 85.3958 420.261 73.9628 395.237 66.2466C371.298 58.8131 345.913 54.854 319.523 54.854C317.274 54.854 315.065 54.854 312.815 54.9348C280.521 55.7832 249.674 62.6106 221.396 74.3264C198.1 83.9414 176.53 96.9499 157.25 112.706C140.501 126.28 125.559 141.955 112.705 159.286C99.9325 176.455 89.2482 195.281 81.014 215.36C72.3782 236.408 66.3934 258.829 63.5415 282.18C62.216 292.765 61.5332 303.47 61.5332 314.338C61.5332 326.983 62.457 339.385 64.1842 351.545C68 378.249 75.7924 403.62 87.1193 427.011C97.4422 448.584 110.697 468.541 126.362 486.317C140.822 502.719 157.331 517.343 175.406 529.544C193.962 542.189 214.327 552.41 235.937 559.843C262.165 568.893 290.282 573.821 319.563 573.821C342.057 573.821 363.827 570.913 384.633 565.499C404.636 560.288 423.675 552.652 441.469 543.078C460.749 532.695 478.583 519.848 494.569 505.022C511.68 489.226 526.622 471.006 538.953 451.008C550.28 432.748 559.318 412.992 565.785 392.066C573.457 367.543 577.594 341.405 577.594 314.338C577.594 294.502 575.425 275.231 571.167 256.688H571.087Z" stroke="#CB6F03" stroke-miterlimit="10"/>
<path d="M253.086 345.364C268.791 354.171 286.906 359.18 306.106 359.18C347.156 359.18 382.944 336.355 401.662 302.662M203.882 288.078C199.343 276.039 196.853 262.949 196.853 249.294C196.853 240.407 197.897 231.721 199.865 223.439C200.668 220.288 201.552 217.096 202.596 214.026C204.283 209.057 206.292 204.249 208.661 199.603C209.264 198.311 209.947 197.058 210.67 195.846C213.04 191.524 215.691 187.403 218.663 183.484C219.587 182.191 220.551 180.979 221.555 179.768C223.121 177.828 224.768 175.889 226.495 174.031C227.54 172.94 228.624 171.849 229.709 170.758C230.874 169.668 231.998 168.577 233.163 167.527C234.328 166.436 235.533 165.385 236.738 164.416C237.943 163.365 239.228 162.396 240.473 161.426C241.678 160.497 243.004 159.528 244.289 158.679C245.615 157.75 246.94 156.861 248.266 156.053C250.997 154.276 253.688 152.7 256.54 151.327C259.071 149.993 261.722 148.781 264.413 147.691C268.148 146.115 272.044 144.701 276.021 143.61C276.985 143.368 278.029 143.045 278.993 142.802C282.126 141.994 285.299 141.348 288.473 140.782H288.593C290.24 140.459 291.927 140.217 293.534 140.055L290.923 124.784L285.5 92.667C293.413 91.455 301.406 90.647 309.56 90.2834C310.604 90.2026 311.689 90.1622 312.773 90.1622C315.023 90.041 317.232 90.041 319.481 90.041C341.492 90.041 362.7 93.2729 382.784 99.2116C404.916 105.797 425.601 115.694 444.198 128.42C460.345 139.368 474.926 152.377 487.618 167.082C500.271 181.666 511.076 197.907 519.591 215.44C527.343 231.196 533.208 247.961 537.064 265.494H537.144C540.598 281.169 542.406 297.531 542.406 314.256C542.406 353.282 532.485 390.085 514.972 422.041V422.122C513.446 424.869 511.879 427.576 510.272 430.283C499.588 448.179 486.373 464.46 471.231 478.56C457.574 491.326 442.311 502.395 425.882 511.404C409.334 520.453 391.46 527.443 372.742 532.088C355.671 536.29 337.837 538.552 319.521 538.552C295.02 538.552 271.522 534.593 249.511 527.241C211.915 514.757 178.778 492.457 153.071 463.369C146.002 455.411 139.454 446.967 133.59 437.999V437.918C127.846 429.151 122.665 419.981 118.126 410.447C109.048 391.297 102.662 370.653 99.2477 349.04C97.4804 337.728 96.5967 326.093 96.5967 314.297C96.5967 304.399 97.1992 294.663 98.4845 285.088C100.975 265.616 105.996 246.951 113.105 229.378C120.295 211.804 129.614 195.24 140.78 180.252C152.147 164.981 165.322 151.165 180.143 139.328C192.434 129.349 205.85 120.704 220.109 113.594C177.412 140.58 149.135 188.413 149.135 242.871C149.135 272.807 157.73 300.723 172.552 324.235" stroke="#CB6F03" stroke-miterlimit="10"/>
<path d="M253.087 345.364C268.792 354.171 286.907 359.18 306.107 359.18C347.157 359.18 382.946 336.355 401.663 302.662M203.883 288.078C199.344 276.039 196.854 262.949 196.854 249.294C196.854 240.407 197.898 231.721 199.866 223.439C200.67 220.288 201.553 217.096 202.598 214.026C204.285 209.057 206.293 204.249 208.663 199.603C209.265 198.311 209.948 197.058 210.671 195.846C213.041 191.524 215.692 187.403 218.664 183.484C219.588 182.191 220.552 180.979 221.556 179.768C223.123 177.828 224.77 175.889 226.497 174.031C227.541 172.94 228.626 171.849 229.71 170.758C230.875 169.668 232 168.577 233.165 167.527C234.329 166.436 235.534 165.385 236.739 164.416C237.944 163.365 239.23 162.396 240.475 161.426C241.68 160.497 243.005 159.528 244.291 158.679C245.616 157.75 246.942 156.861 248.267 156.053C250.999 154.276 253.69 152.7 256.541 151.327C259.072 149.993 261.723 148.781 264.414 147.691C268.15 146.115 272.046 144.701 276.022 143.61C276.986 143.368 278.031 143.045 278.995 142.802C282.128 141.994 285.301 141.348 288.474 140.782H288.594C290.241 140.459 291.928 140.217 293.535 140.055L290.924 124.784L285.502 92.667C262.326 96.1817 240.314 103.373 220.07 113.594C225.372 110.2 230.996 107.089 236.82 104.342C251.762 97.2725 268.069 92.667 285.18 90.8894C290.362 90.3238 295.704 90.041 301.006 90.041C303.858 90.041 306.75 90.1218 309.521 90.2834C389.533 94.7273 452.956 161.305 452.956 242.871C452.956 258.505 450.586 273.655 446.168 287.876C445.726 289.29 445.325 290.663 444.843 292.077V292.158C441.107 303.268 436.006 313.812 429.981 323.669C409.375 356.999 376.358 381.763 337.397 391.378C325.708 394.287 313.578 395.822 301.006 395.822C287.269 395.822 273.974 394.004 261.321 390.53C238.386 384.308 217.66 372.875 200.429 357.443C200.107 357.12 199.746 356.837 199.465 356.595V356.514C189.062 347.141 179.863 336.274 172.433 324.275" stroke="#CB6F03" stroke-miterlimit="10"/>
<path d="M415.361 249.254C415.361 254.344 414.999 259.394 414.317 264.282C412.429 278.099 408.091 290.986 401.624 302.662C382.946 336.355 347.158 359.18 306.068 359.18C286.828 359.18 268.753 354.211 253.048 345.364C230.554 332.84 212.961 312.519 203.844 288.078C199.305 276.039 196.814 262.949 196.814 249.294C196.814 192.857 239.07 146.398 293.495 140.136C297.592 139.651 301.85 139.409 306.068 139.409C366.398 139.409 415.321 188.615 415.321 249.294L415.361 249.254Z" stroke="#CB6F03" stroke-miterlimit="10"/>
<path d="M430.02 323.67C439.097 340.88 444.239 360.474 444.239 381.279C444.239 449.634 389.17 505.022 321.249 505.022C253.327 505.022 198.218 449.634 198.218 381.279C198.218 373.118 199.022 365.16 200.508 357.444" stroke="#CB6F03" stroke-miterlimit="10"/>
<path d="M401.662 302.338V302.661C382.985 336.354 347.196 359.179 306.106 359.179C286.866 359.179 268.791 354.21 253.086 345.363C245.294 332.879 240.755 318.174 240.755 302.378C240.755 257.697 276.784 221.499 321.168 221.499C365.552 221.499 401.662 257.697 401.662 302.378V302.338Z" stroke="#CB6F03" stroke-miterlimit="10"/>
<path d="M285.06 90.0811L285.18 90.9294L285.501 92.707L293.535 140.095L307.553 222.59L320.727 300.197L321.169 302.661" stroke="#CB6F03" stroke-miterlimit="10"/>
<path d="M320.407 305.408C321.849 305.408 323.018 304.232 323.018 302.782C323.018 301.331 321.849 300.156 320.407 300.156C318.965 300.156 317.796 301.331 317.796 302.782C317.796 304.232 318.965 305.408 320.407 305.408Z" stroke="#CB6F03" stroke-miterlimit="10"/>
<path d="M172.471 324.275C150.58 356.271 136.562 395.377 133.55 437.958V438.039" stroke="#CB6F03" stroke-miterlimit="10"/>
<path d="M514.972 422.162V422.081C507.582 368.148 482.397 320.841 446.207 287.916" stroke="#CB6F03" stroke-miterlimit="10"/>
<path d="M261.36 390.529L221.313 453.471" stroke="#CB6F03" stroke-miterlimit="10"/>
<path d="M337.396 391.378L347.357 502.234" stroke="#CB6F03" stroke-miterlimit="10"/>
<path d="M199.505 356.514V356.595L200.228 358.776V358.857C208.583 382.895 223.806 403.539 243.527 418.567C264.856 434.929 291.406 444.544 320.246 444.544C327.677 444.544 334.947 443.857 342.016 442.645C389.131 434.484 427.29 400.186 441.348 355.181V355.1" stroke="#CB6F03" stroke-miterlimit="10"/>
<path d="M444.884 292.2V292.117" stroke="#CB6F03" stroke-miterlimit="10"/>
<path d="M292.329 141.71C297.01 141.71 300.804 137.894 300.804 133.186C300.804 128.478 297.01 124.662 292.329 124.662C287.648 124.662 283.854 128.478 283.854 133.186C283.854 137.894 287.648 141.71 292.329 141.71Z" stroke="#CB6F03" stroke-miterlimit="10"/>
<path d="M312.735 54.812V90.3229" stroke="#CB6F03" stroke-miterlimit="10"/>
<path d="M395.156 66.1646L382.785 99.2918" stroke="#CB6F03" stroke-miterlimit="10"/>
<path d="M464.846 99.8975L444.2 128.46" stroke="#CB6F03" stroke-miterlimit="10"/>
<path d="M514.973 144.983L487.619 167.122" stroke="#CB6F03" stroke-miterlimit="10"/>
<path d="M551.885 201.541L519.631 215.479" stroke="#CB6F03" stroke-miterlimit="10"/>
<path d="M571.083 256.688L537.103 265.575" stroke="#CB6F03" stroke-miterlimit="10"/>
<path d="M577.472 314.335H542.407" stroke="#CB6F03" stroke-miterlimit="10"/>
<path d="M565.703 392.064L535.779 381.156" stroke="#CB6F03" stroke-miterlimit="10"/>
<path d="M538.871 450.966L510.232 430.322" stroke="#CB6F03" stroke-miterlimit="10"/>
<path d="M494.448 505.021L471.192 478.56" stroke="#CB6F03" stroke-miterlimit="10"/>
<path d="M441.387 543.076L425.803 511.403" stroke="#CB6F03" stroke-miterlimit="10"/>
<path d="M384.511 565.497L372.702 532.127" stroke="#CB6F03" stroke-miterlimit="10"/>
<path d="M319.483 573.819V538.551" stroke="#CB6F03" stroke-miterlimit="10"/>
<path d="M235.855 559.883L249.431 527.24" stroke="#CB6F03" stroke-miterlimit="10"/>
<path d="M175.326 529.542L196.855 505.02" stroke="#CB6F03" stroke-miterlimit="10"/>
<path d="M126.323 486.316L153.034 463.41" stroke="#CB6F03" stroke-miterlimit="10"/>
<path d="M87.0396 427.051L118.088 410.487" stroke="#CB6F03" stroke-miterlimit="10"/>
<path d="M64.1025 351.543L99.2081 349.079" stroke="#CB6F03" stroke-miterlimit="10"/>
<path d="M63.4229 282.179L98.408 285.169" stroke="#CB6F03" stroke-miterlimit="10"/>
<path d="M80.9341 215.318L113.067 229.417" stroke="#CB6F03" stroke-miterlimit="10"/>
<path d="M112.624 159.203L140.74 180.332" stroke="#CB6F03" stroke-miterlimit="10"/>
<path d="M157.13 112.623L180.106 139.367" stroke="#CB6F03" stroke-miterlimit="10"/>
<path d="M221.313 74.2847L236.778 104.382" stroke="#CB6F03" stroke-miterlimit="10"/>
<path d="M1.96402 346.089C1.28119 337.767 1 329.324 1 320.8C1 312.275 1.32135 303.913 1.96402 295.51C4.57485 262.423 12.1262 230.79 23.9753 201.299C29.9601 186.351 37.0295 171.929 45.1431 158.193C100.453 64.1035 202.436 1 318.999 1C435.562 1 534.573 62.2855 590.445 154.153C598.679 167.646 605.869 181.746 612.095 196.491C628.121 234.749 636.998 276.765 636.998 320.88" stroke="#CB6F03" stroke-miterlimit="10"/>
<path d="M577.471 597.494H590.404H612.054H636.998" stroke="#CB6F03" stroke-miterlimit="10"/>
<path d="M1.96289 597.494H23.9742H45.142H61.4496" stroke="#CB6F03" stroke-miterlimit="10"/>
<path d="M61.4487 618.946V616.118V597.494V578.507V576.042" stroke="#CB6F03" stroke-miterlimit="10"/>
<path d="M577.471 618.946V597.494V578.507V576.042" stroke="#CB6F03" stroke-miterlimit="10"/>
<path d="M575.782 616.118H546.822H519.79H492.718H465.685H438.573H412.465H411.541H385.392H358.36H331.328H304.939H304.216H277.866H196.73H169.698H142.585H115.593H88.5612H61.4487H59.7617" stroke="#CB6F03" stroke-miterlimit="10"/>
<path d="M580 578.507H577.469H385.392H358.36H277.866H250.834H223.762H196.73H61.4487" stroke="#CB6F03" stroke-miterlimit="10"/>
<path d="M88.5249 578.708V616.279" stroke="#CB6F03" stroke-miterlimit="10"/>
<path d="M115.557 578.708V616.279" stroke="#CB6F03" stroke-miterlimit="10"/>
<path d="M115.557 579.84V617.451" stroke="#CB6F03" stroke-miterlimit="10"/>
<path d="M142.629 579.84V617.451" stroke="#CB6F03" stroke-miterlimit="10"/>
<path d="M142.629 578.667V616.279" stroke="#CB6F03" stroke-miterlimit="10"/>
<path d="M169.661 578.667V616.279" stroke="#CB6F03" stroke-miterlimit="10"/>
<path d="M169.661 578.667V616.279" stroke="#CB6F03" stroke-miterlimit="10"/>
<path d="M196.733 578.667V616.279" stroke="#CB6F03" stroke-miterlimit="10"/>
<path d="M196.733 576.164V613.775" stroke="#CB6F03" stroke-miterlimit="10"/>
<path d="M223.765 576.164V613.775" stroke="#CB6F03" stroke-miterlimit="10"/>
<path d="M223.765 576.164V613.775" stroke="#CB6F03" stroke-miterlimit="10"/>
<path d="M250.838 576.164V613.775" stroke="#CB6F03" stroke-miterlimit="10"/>
<path d="M250.838 577.294V614.906" stroke="#CB6F03" stroke-miterlimit="10"/>
<path d="M277.87 577.294V614.906" stroke="#CB6F03" stroke-miterlimit="10"/>
<path d="M277.87 578.667V616.279" stroke="#CB6F03" stroke-miterlimit="10"/>
<path d="M304.942 578.667V616.279" stroke="#CB6F03" stroke-miterlimit="10"/>
<path d="M304.258 578.667V616.279" stroke="#CB6F03" stroke-miterlimit="10"/>
<path d="M331.29 578.667V616.279" stroke="#CB6F03" stroke-miterlimit="10"/>
<path d="M331.29 579.84V617.451" stroke="#CB6F03" stroke-miterlimit="10"/>
<path d="M358.363 579.84V617.451" stroke="#CB6F03" stroke-miterlimit="10"/>
<path d="M358.363 577.294V614.906" stroke="#CB6F03" stroke-miterlimit="10"/>
<path d="M385.395 614.906V578.708V578.506V577.294" stroke="#CB6F03" stroke-miterlimit="10"/>
<path d="M385.395 616.279V616.117V614.905V578.708" stroke="#CB6F03" stroke-miterlimit="10"/>
<path d="M412.467 578.667V616.279" stroke="#CB6F03" stroke-miterlimit="10"/>
<path d="M411.544 578.667V616.279" stroke="#CB6F03" stroke-miterlimit="10"/>
<path d="M438.617 578.667V616.279" stroke="#CB6F03" stroke-miterlimit="10"/>
<path d="M438.617 579.84V617.451" stroke="#CB6F03" stroke-miterlimit="10"/>
<path d="M465.648 579.84V617.451" stroke="#CB6F03" stroke-miterlimit="10"/>
<path d="M465.648 581.334V618.945" stroke="#CB6F03" stroke-miterlimit="10"/>
<path d="M492.721 581.334V618.945" stroke="#CB6F03" stroke-miterlimit="10"/>
<path d="M492.721 581.334V618.945" stroke="#CB6F03" stroke-miterlimit="10"/>
<path d="M519.753 581.334V618.945" stroke="#CB6F03" stroke-miterlimit="10"/>
<path d="M519.753 579.84V617.451" stroke="#CB6F03" stroke-miterlimit="10"/>
<path d="M546.825 579.84V617.451" stroke="#CB6F03" stroke-miterlimit="10"/>
<path d="M1.96289 597.493V346.09V295.469" stroke="#CB6F03" stroke-miterlimit="10"/>
<path d="M637 597.493V320.759" stroke="#CB6F03" stroke-miterlimit="10"/>
</svg>
