<svg width="413" height="881" viewBox="0 0 413 881" fill="none" xmlns="http://www.w3.org/2000/svg">
<g clip-path="url(#clip0_524_547)">
<path d="M206.685 104.394H178.745V152.891H206.685" stroke="#CB6F03" stroke-miterlimit="10"/>
<path d="M178.744 104.425L153.672 116.357L192.468 89.7186V7.39941L199.561 15.508L206.685 0.678223" stroke="#CB6F03" stroke-miterlimit="10"/>
<path d="M178.744 152.923L158.822 164.885L153.672 167.968V116.357" stroke="#CB6F03" stroke-miterlimit="10"/>
<path d="M158.822 164.885L168.845 174.042L183 167.968H206.685" stroke="#CB6F03" stroke-miterlimit="10"/>
<path d="M148.09 450.258L173.81 440.731H206.685" stroke="#CB6F03" stroke-miterlimit="10"/>
<path d="M155.368 408.759L177.388 398.308H206.685" stroke="#CB6F03" stroke-miterlimit="10"/>
<path d="M161.752 365.411L180.657 355.792H206.685" stroke="#CB6F03" stroke-miterlimit="10"/>
<path d="M165.669 332.73L182.199 319.781H206.685" stroke="#CB6F03" stroke-miterlimit="10"/>
<path d="M169.647 286.267L183.309 276.833H206.685" stroke="#CB6F03" stroke-miterlimit="10"/>
<path d="M171.25 251.027L183.679 240.575H205.112" stroke="#CB6F03" stroke-miterlimit="10"/>
<path d="M206.685 203.701H183.71L171.25 213.259" stroke="#CB6F03" stroke-miterlimit="10"/>
<path d="M168.845 174.042C183.771 324.498 130.697 530.728 130.697 530.728L158.822 522.989C190.155 415.172 183.031 167.968 183.031 167.968" stroke="#CB6F03" stroke-miterlimit="10"/>
<path d="M206.685 521.91L158.822 522.989" stroke="#CB6F03" stroke-miterlimit="10"/>
<path d="M140.442 488.273L168.568 478.407H206.685" stroke="#CB6F03" stroke-miterlimit="10"/>
<path d="M99.2407 548.733L148.09 545.588V590.971L113.273 593.684L99.2407 594.764V548.733ZM99.2407 548.733V547.469L130.666 530.727" stroke="#CB6F03" stroke-miterlimit="10"/>
<path d="M148.09 545.588H206.685" stroke="#CB6F03" stroke-miterlimit="10"/>
<path d="M99.0557 634.012L143.804 630.188H206.685" stroke="#CB6F03" stroke-miterlimit="10"/>
<path d="M206.685 743.339V743.185" stroke="#CB6F03" stroke-miterlimit="10"/>
<path d="M206.685 104.548V104.394" stroke="#CB6F03" stroke-miterlimit="10"/>
<path d="M206.685 1.5724V0.647461" stroke="#CB6F03" stroke-miterlimit="10"/>
<path d="M206.685 167.968V168.122V203.702V203.856V276.833V276.956V319.75V319.904V355.792V355.946V398.308V398.462V440.701V440.855V478.376V478.53V521.91V522.064V545.588V545.711" stroke="#CB6F03" stroke-miterlimit="10"/>
<path d="M206.685 590.971V591.126V630.189V630.312V682.972V683.126V683.249V683.372V734.09V734.244" stroke="#CB6F03" stroke-miterlimit="10"/>
<path d="M206.685 153.046V152.892" stroke="#CB6F03" stroke-miterlimit="10"/>
<path d="M206.685 788.969V788.815" stroke="#CB6F03" stroke-miterlimit="10"/>
<path d="M206.685 590.971H148.09C148.09 590.971 133.534 734.09 126.318 734.09" stroke="#CB6F03" stroke-miterlimit="10"/>
<path d="M113.303 593.685L63.7139 734.09H206.685" stroke="#CB6F03" stroke-miterlimit="10"/>
<path d="M80.8914 685.438L137.204 682.972H206.685" stroke="#CB6F03" stroke-miterlimit="10"/>
<path d="M63.7139 734.09L1.3877 862.933C1.3877 862.933 133.657 585.237 89.4648 880.476C89.4648 880.476 124.159 740.071 206.654 743.185" stroke="#CB6F03" stroke-miterlimit="10"/>
<path d="M63.7139 855.41V759.001" stroke="#CB6F03" stroke-miterlimit="10"/>
<path d="M126.318 876.098V855.41V795.29" stroke="#CB6F03" stroke-miterlimit="10"/>
<path d="M63.7139 855.41L126.318 876.098" stroke="#CB6F03" stroke-miterlimit="10"/>
<path d="M126.318 876.098H206.685" stroke="#CB6F03" stroke-miterlimit="10"/>
<path d="M206.685 788.815H184.758V848.196V876.098H206.685" stroke="#CB6F03" stroke-miterlimit="10"/>
<path d="M126.318 848.196H184.758" stroke="#CB6F03" stroke-miterlimit="10"/>
<path d="M168.752 787.643C173.266 787.643 176.925 783.985 176.925 779.473C176.925 774.961 173.266 771.303 168.752 771.303C164.239 771.303 160.58 774.961 160.58 779.473C160.58 783.985 164.239 787.643 168.752 787.643Z" stroke="#CB6F03" stroke-miterlimit="10"/>
<path d="M169.863 801.579H143.773V827.662H169.863V801.579Z" stroke="#CB6F03" stroke-miterlimit="10"/>
<path d="M94.8307 840.272L63.7139 832.441" stroke="#CB6F03" stroke-miterlimit="10"/>
<path d="M126.318 848.196L102.325 842.153" stroke="#CB6F03" stroke-miterlimit="10"/>
<path d="M63.7139 734.09L206.685 682.972" stroke="#CB6F03" stroke-miterlimit="10"/>
<path d="M126.318 734.09L206.685 682.972" stroke="#CB6F03" stroke-miterlimit="10"/>
<path d="M206.284 153.046H234.225V104.548H206.284" stroke="#CB6F03" stroke-miterlimit="10"/>
<path d="M234.255 104.548L259.328 116.511L220.532 89.8729V7.55371L213.439 15.6623L206.315 0.83252" stroke="#CB6F03" stroke-miterlimit="10"/>
<path d="M234.255 153.046L254.178 165.039L259.328 168.123V116.511" stroke="#CB6F03" stroke-miterlimit="10"/>
<path d="M254.178 165.039L244.155 174.196L229.969 168.122H206.315" stroke="#CB6F03" stroke-miterlimit="10"/>
<path d="M264.91 450.413L239.159 440.886H206.315" stroke="#CB6F03" stroke-miterlimit="10"/>
<path d="M257.601 408.914L235.612 398.462H206.315" stroke="#CB6F03" stroke-miterlimit="10"/>
<path d="M251.217 365.565L232.343 355.946H206.315" stroke="#CB6F03" stroke-miterlimit="10"/>
<path d="M247.331 332.884L230.801 319.904H206.315" stroke="#CB6F03" stroke-miterlimit="10"/>
<path d="M243.322 286.422L229.691 276.987H206.315" stroke="#CB6F03" stroke-miterlimit="10"/>
<path d="M241.749 251.181L229.29 240.729H207.857" stroke="#CB6F03" stroke-miterlimit="10"/>
<path d="M206.315 203.855H229.29L241.749 213.413" stroke="#CB6F03" stroke-miterlimit="10"/>
<path d="M244.155 174.196C229.229 324.652 282.303 530.882 282.303 530.882L254.178 523.143C222.845 415.327 229.969 168.123 229.969 168.123" stroke="#CB6F03" stroke-miterlimit="10"/>
<path d="M206.315 522.064L254.178 523.143" stroke="#CB6F03" stroke-miterlimit="10"/>
<path d="M272.527 488.427L244.401 478.561H206.315" stroke="#CB6F03" stroke-miterlimit="10"/>
<path d="M282.303 530.882L313.728 547.623V548.887V594.918L299.696 593.839L264.879 591.126V545.742L313.728 548.887" stroke="#CB6F03" stroke-miterlimit="10"/>
<path d="M264.91 545.742H206.315" stroke="#CB6F03" stroke-miterlimit="10"/>
<path d="M313.944 634.166L269.165 630.343H206.315" stroke="#CB6F03" stroke-miterlimit="10"/>
<path d="M206.284 788.969V788.815" stroke="#CB6F03" stroke-miterlimit="10"/>
<path d="M206.284 153.046V152.892" stroke="#CB6F03" stroke-miterlimit="10"/>
<path d="M206.284 734.09V683.219V683.126V682.972V630.343V630.189V591.126V590.972" stroke="#CB6F03" stroke-miterlimit="10"/>
<path d="M206.284 545.588V522.064V521.91V478.53V478.376V440.855V440.701V398.462V398.308V355.946V355.792V319.904V319.75V276.987V276.833V203.856V203.702V168.122V167.968" stroke="#CB6F03" stroke-miterlimit="10"/>
<path d="M206.284 1.48004V0.801758" stroke="#CB6F03" stroke-miterlimit="10"/>
<path d="M206.284 104.549V104.395" stroke="#CB6F03" stroke-miterlimit="10"/>
<path d="M206.284 876.252V876.098" stroke="#CB6F03" stroke-miterlimit="10"/>
<path d="M206.315 591.126H264.91C264.91 591.126 279.466 734.244 286.682 734.244" stroke="#CB6F03" stroke-miterlimit="10"/>
<path d="M299.696 593.839L349.286 734.244H206.315" stroke="#CB6F03" stroke-miterlimit="10"/>
<path d="M332.108 685.592L275.796 683.126H206.315" stroke="#CB6F03" stroke-miterlimit="10"/>
<path d="M349.286 734.244L411.612 863.087C411.612 863.087 279.343 585.391 323.535 880.63C323.535 880.63 288.841 740.225 206.346 743.339" stroke="#CB6F03" stroke-miterlimit="10"/>
<path d="M349.255 759.156V855.565" stroke="#CB6F03" stroke-miterlimit="10"/>
<path d="M286.651 795.444V855.564V876.252" stroke="#CB6F03" stroke-miterlimit="10"/>
<path d="M349.286 855.564L286.682 876.252" stroke="#CB6F03" stroke-miterlimit="10"/>
<path d="M286.682 876.252H206.315" stroke="#CB6F03" stroke-miterlimit="10"/>
<path d="M206.284 876.252H228.211V848.35V788.969H206.284" stroke="#CB6F03" stroke-miterlimit="10"/>
<path d="M286.682 848.35H228.211" stroke="#CB6F03" stroke-miterlimit="10"/>
<path d="M244.247 787.798C248.761 787.798 252.42 784.14 252.42 779.627C252.42 775.115 248.761 771.457 244.247 771.457C239.734 771.457 236.075 775.115 236.075 779.627C236.075 784.14 239.734 787.798 244.247 787.798Z" stroke="#CB6F03" stroke-miterlimit="10"/>
<path d="M243.106 827.816H269.196V801.733H243.106V827.816Z" stroke="#CB6F03" stroke-miterlimit="10"/>
<path d="M349.255 832.595L318.138 840.426" stroke="#CB6F03" stroke-miterlimit="10"/>
<path d="M310.644 842.307L286.651 848.35" stroke="#CB6F03" stroke-miterlimit="10"/>
<path d="M349.286 734.244L206.315 683.126" stroke="#CB6F03" stroke-miterlimit="10"/>
<path d="M286.682 734.244L206.315 683.126" stroke="#CB6F03" stroke-miterlimit="10"/>
</g>
<defs>
<clipPath id="clip0_524_547">
<rect width="413" height="881" fill="white"/>
</clipPath>
</defs>
</svg>
