<svg width="589" height="301" viewBox="0 0 589 301" fill="none" xmlns="http://www.w3.org/2000/svg">
<path d="M154.558 70.6768H58.5993C58.5993 70.6768 55.3924 79.2782 46.4429 78.781L49.3017 89.8436" stroke="#C77B41" stroke-miterlimit="10"/>
<path d="M434.507 70.6768H530.466C530.466 70.6768 533.672 79.2782 542.622 78.781L539.763 89.8436" stroke="#C77B41" stroke-miterlimit="10"/>
<path d="M434.507 102.423H539.763" stroke="#C77B41" stroke-miterlimit="10"/>
<path d="M154.558 102.423H49.3013" stroke="#C77B41" stroke-miterlimit="10"/>
<path d="M91.9126 209.99C91.9126 205.292 95.7161 201.488 100.44 201.488C105.163 201.488 108.942 205.292 108.942 209.99" stroke="#C77B41" stroke-miterlimit="10"/>
<path d="M91.9126 209.991V232.613H108.917V209.991" stroke="#C77B41" stroke-miterlimit="10"/>
<path d="M478.631 209.99C478.631 205.292 482.434 201.488 487.158 201.488C491.881 201.488 495.66 205.292 495.66 209.99" stroke="#C77B41" stroke-miterlimit="10"/>
<path d="M478.656 209.991V232.613H495.635V209.991" stroke="#C77B41" stroke-miterlimit="10"/>
<path d="M49.3013 232.613H154.16" stroke="#C77B41" stroke-miterlimit="10"/>
<path d="M434.507 232.613H539.763" stroke="#C77B41" stroke-miterlimit="10"/>
<path d="M434.507 186.077H539.763" stroke="#C77B41" stroke-miterlimit="10"/>
<path d="M154.558 186.077H49.3013" stroke="#C77B41" stroke-miterlimit="10"/>
<path d="M201.543 36.1464C203.603 36.1464 205.272 34.4769 205.272 32.4174C205.272 30.358 203.603 28.6885 201.543 28.6885C199.484 28.6885 197.814 30.358 197.814 32.4174C197.814 34.4769 199.484 36.1464 201.543 36.1464Z" stroke="#C77B41" stroke-miterlimit="10"/>
<path d="M169.923 36.1464C171.983 36.1464 173.652 34.4769 173.652 32.4174C173.652 30.358 171.983 28.6885 169.923 28.6885C167.864 28.6885 166.194 30.358 166.194 32.4174C166.194 34.4769 167.864 36.1464 169.923 36.1464Z" stroke="#C77B41" stroke-miterlimit="10"/>
<path d="M237.118 36.1464C239.178 36.1464 240.847 34.4769 240.847 32.4174C240.847 30.358 239.178 28.6885 237.118 28.6885C235.059 28.6885 233.389 30.358 233.389 32.4174C233.389 34.4769 235.059 36.1464 237.118 36.1464Z" stroke="#C77B41" stroke-miterlimit="10"/>
<path d="M277.59 36.1464C279.65 36.1464 281.319 34.4769 281.319 32.4174C281.319 30.358 279.65 28.6885 277.59 28.6885C275.531 28.6885 273.861 30.358 273.861 32.4174C273.861 34.4769 275.531 36.1464 277.59 36.1464Z" stroke="#C77B41" stroke-miterlimit="10"/>
<path d="M315.773 36.1464C317.833 36.1464 319.502 34.4769 319.502 32.4174C319.502 30.358 317.833 28.6885 315.773 28.6885C313.714 28.6885 312.044 30.358 312.044 32.4174C312.044 34.4769 313.714 36.1464 315.773 36.1464Z" stroke="#C77B41" stroke-miterlimit="10"/>
<path d="M354.505 36.1464C356.565 36.1464 358.234 34.4769 358.234 32.4174C358.234 30.358 356.565 28.6885 354.505 28.6885C352.446 28.6885 350.776 30.358 350.776 32.4174C350.776 34.4769 352.446 36.1464 354.505 36.1464Z" stroke="#C77B41" stroke-miterlimit="10"/>
<path d="M389.931 36.1464C391.991 36.1464 393.66 34.4769 393.66 32.4174C393.66 30.358 391.991 28.6885 389.931 28.6885C387.872 28.6885 386.202 30.358 386.202 32.4174C386.202 34.4769 387.872 36.1464 389.931 36.1464Z" stroke="#C77B41" stroke-miterlimit="10"/>
<path d="M422.597 36.1464C424.657 36.1464 426.326 34.4769 426.326 32.4174C426.326 30.358 424.657 28.6885 422.597 28.6885C420.538 28.6885 418.868 30.358 418.868 32.4174C418.868 34.4769 420.538 36.1464 422.597 36.1464Z" stroke="#C77B41" stroke-miterlimit="10"/>
<path d="M147.748 163.604H127.14V176.655H147.748V163.604Z" stroke="#C77B41" stroke-miterlimit="10"/>
<path d="M76.6976 164.101H56.0889V177.152H76.6976V164.101Z" stroke="#C77B41" stroke-miterlimit="10"/>
<path d="M76.6973 164.1V102.423" stroke="#C77B41" stroke-miterlimit="10"/>
<path d="M56.0889 164.1V102.423" stroke="#C77B41" stroke-miterlimit="10"/>
<path d="M127.164 163.578V102.423" stroke="#C77B41" stroke-miterlimit="10"/>
<path d="M147.772 163.578V102.423" stroke="#C77B41" stroke-miterlimit="10"/>
<path d="M113.441 123.206H92.5088V163.081H113.441V123.206Z" stroke="#C77B41" stroke-linecap="round" stroke-linejoin="round"/>
<path d="M118.437 123.206H87.5117" stroke="#C77B41" stroke-linecap="round" stroke-linejoin="round"/>
<path d="M102.976 163.577V163.082" stroke="#C77B41" stroke-linecap="round" stroke-linejoin="round"/>
<path d="M87.5117 123.205L102.974 111.844" stroke="#C77B41" stroke-linecap="round" stroke-linejoin="round"/>
<path d="M118.438 123.205L102.976 111.844" stroke="#C77B41" stroke-linecap="round" stroke-linejoin="round"/>
<path d="M49.3013 177.201H154.558" stroke="#C77B41" stroke-miterlimit="10"/>
<path d="M49.3013 244.521H154.558" stroke="#C77B41" stroke-miterlimit="10"/>
<path d="M434.507 177.275H539.763" stroke="#C77B41" stroke-miterlimit="10"/>
<path d="M434.507 244.521H539.763" stroke="#C77B41" stroke-miterlimit="10"/>
<path d="M154.558 89.8687H49.3013V277.46H154.558V89.8687Z" stroke="#C77B41" stroke-miterlimit="10"/>
<path d="M539.763 89.8687H434.507V277.46H539.763V89.8687Z" stroke="#C77B41" stroke-miterlimit="10"/>
<path d="M531.856 177.277V164.574H511.248V177.277" stroke="#C77B41" stroke-miterlimit="10"/>
<path d="M460.782 163.552H440.173V176.603H460.782V163.552Z" stroke="#C77B41" stroke-miterlimit="10"/>
<path d="M460.807 163.553V101.876" stroke="#C77B41" stroke-miterlimit="10"/>
<path d="M440.197 163.553V101.876" stroke="#C77B41" stroke-miterlimit="10"/>
<path d="M511.248 164.549V103.394" stroke="#C77B41" stroke-miterlimit="10"/>
<path d="M531.856 164.549V103.394" stroke="#C77B41" stroke-miterlimit="10"/>
<path d="M497.549 122.659H476.617V162.534H497.549V122.659Z" stroke="#C77B41" stroke-linecap="round" stroke-linejoin="round"/>
<path d="M502.546 122.659H471.596" stroke="#C77B41" stroke-linecap="round" stroke-linejoin="round"/>
<path d="M487.06 163.005V162.534" stroke="#C77B41" stroke-linecap="round" stroke-linejoin="round"/>
<path d="M471.596 122.658L487.058 111.272" stroke="#C77B41" stroke-linecap="round" stroke-linejoin="round"/>
<path d="M502.547 122.658L487.06 111.272" stroke="#C77B41" stroke-linecap="round" stroke-linejoin="round"/>
<path d="M434.507 70.6772V36.147" stroke="#C77B41" stroke-miterlimit="10" stroke-linecap="square"/>
<path d="M154.56 70.6772V36.147" stroke="#C77B41" stroke-miterlimit="10" stroke-linecap="square"/>
<path d="M66.4067 101.876V164.1" stroke="#C77B41" stroke-miterlimit="10"/>
<path d="M137.454 102.523V164.101" stroke="#C77B41" stroke-miterlimit="10"/>
<path d="M450.491 101.876V164.1" stroke="#C77B41" stroke-miterlimit="10"/>
<path d="M521.538 102.523V164.573" stroke="#C77B41" stroke-miterlimit="10"/>
<path d="M154.56 277.46H434.108" stroke="#C77B41" stroke-miterlimit="10"/>
<path d="M154.56 89.8687H434.505" stroke="#C77B41" stroke-miterlimit="10"/>
<path d="M154.56 102.423H440.198" stroke="#C77B41" stroke-miterlimit="10"/>
<path d="M434.505 186.077H154.162" stroke="#C77B41" stroke-miterlimit="10"/>
<path d="M285.619 121.89C285.619 114.655 291.486 108.789 298.72 108.789C305.954 108.789 311.846 114.655 311.846 121.89" stroke="#C77B41" stroke-miterlimit="10"/>
<path d="M285.619 121.888V160.147" stroke="#C77B41" stroke-miterlimit="10"/>
<path d="M311.823 121.888V160.147" stroke="#C77B41" stroke-miterlimit="10"/>
<path d="M285.619 160.147H311.821" stroke="#C77B41" stroke-miterlimit="10" stroke-linecap="square"/>
<path d="M234.533 121.89C234.533 114.655 240.4 108.789 247.634 108.789C254.868 108.789 260.76 114.655 260.76 121.89" stroke="#C77B41" stroke-miterlimit="10"/>
<path d="M234.533 121.888V160.147" stroke="#C77B41" stroke-miterlimit="10"/>
<path d="M260.734 121.888V160.147" stroke="#C77B41" stroke-miterlimit="10"/>
<path d="M234.533 160.147H260.735" stroke="#C77B41" stroke-miterlimit="10" stroke-linecap="square"/>
<path d="M183.845 121.89C183.845 114.655 189.712 108.789 196.946 108.789C204.18 108.789 210.072 114.655 210.072 121.89" stroke="#C77B41" stroke-miterlimit="10"/>
<path d="M183.845 121.888V160.147" stroke="#C77B41" stroke-miterlimit="10"/>
<path d="M210.046 121.888V160.147" stroke="#C77B41" stroke-miterlimit="10"/>
<path d="M183.845 160.147H210.047" stroke="#C77B41" stroke-miterlimit="10" stroke-linecap="square"/>
<path d="M337.18 121.89C337.18 114.655 343.047 108.789 350.281 108.789C357.515 108.789 363.407 114.655 363.407 121.89" stroke="#C77B41" stroke-miterlimit="10"/>
<path d="M337.205 121.888V160.147" stroke="#C77B41" stroke-miterlimit="10"/>
<path d="M363.381 121.888V160.147" stroke="#C77B41" stroke-miterlimit="10"/>
<path d="M337.205 160.147H363.382" stroke="#C77B41" stroke-miterlimit="10" stroke-linecap="square"/>
<path d="M387.445 121.89C387.445 114.655 393.312 108.789 400.546 108.789C407.781 108.789 413.672 114.655 413.672 121.89" stroke="#C77B41" stroke-miterlimit="10"/>
<path d="M387.445 121.888V160.147" stroke="#C77B41" stroke-miterlimit="10"/>
<path d="M413.647 121.888V160.147" stroke="#C77B41" stroke-miterlimit="10"/>
<path d="M387.445 160.147H413.648" stroke="#C77B41" stroke-miterlimit="10" stroke-linecap="square"/>
<path d="M169.673 102.423V164.1" stroke="#C77B41" stroke-miterlimit="10"/>
<path d="M220.438 102.423V164.1" stroke="#C77B41" stroke-miterlimit="10"/>
<path d="M271.749 164.1V102.423" stroke="#C77B41" stroke-miterlimit="10"/>
<path d="M324.849 164.101V102.523" stroke="#C77B41" stroke-miterlimit="10"/>
<path d="M375.412 164.1V102.423" stroke="#C77B41" stroke-miterlimit="10"/>
<path d="M424.636 163.603V102.523" stroke="#C77B41" stroke-miterlimit="10"/>
<path d="M185.161 277.461C185.161 277.461 214.322 265.13 216.286 245.367" stroke="#C77B41" stroke-miterlimit="10"/>
<path d="M1 299.76C1 299.76 46.2448 291.183 49.3025 277.46" stroke="#C77B41" stroke-miterlimit="10"/>
<path d="M588.089 299.76C588.089 299.76 542.844 291.183 539.786 277.46" stroke="#C77B41" stroke-miterlimit="10"/>
<path d="M404.3 277.461C404.3 277.461 375.139 265.13 373.175 245.367" stroke="#C77B41" stroke-miterlimit="10"/>
<path d="M154.56 244.521H434.505" stroke="#C77B41" stroke-miterlimit="10"/>
<path d="M285.842 205.542C285.842 198.308 291.709 192.441 298.943 192.441C306.178 192.441 312.069 198.308 312.069 205.542" stroke="#C77B41" stroke-miterlimit="10"/>
<path d="M285.842 205.565V243.8" stroke="#C77B41" stroke-miterlimit="10"/>
<path d="M312.044 205.565V243.8" stroke="#C77B41" stroke-miterlimit="10"/>
<path d="M285.842 243.8H312.044" stroke="#C77B41" stroke-miterlimit="10" stroke-linecap="square"/>
<path d="M234.756 205.542C234.756 198.308 240.623 192.441 247.857 192.441C255.092 192.441 260.983 198.308 260.983 205.542" stroke="#C77B41" stroke-miterlimit="10"/>
<path d="M234.756 205.565V243.8" stroke="#C77B41" stroke-miterlimit="10"/>
<path d="M260.958 205.565V243.8" stroke="#C77B41" stroke-miterlimit="10"/>
<path d="M234.756 243.8H260.959" stroke="#C77B41" stroke-miterlimit="10" stroke-linecap="square"/>
<path d="M184.068 205.542C184.068 198.308 189.935 192.441 197.169 192.441C204.404 192.441 210.295 198.308 210.295 205.542" stroke="#C77B41" stroke-miterlimit="10"/>
<path d="M184.068 205.565V243.8" stroke="#C77B41" stroke-miterlimit="10"/>
<path d="M210.27 205.565V243.8" stroke="#C77B41" stroke-miterlimit="10"/>
<path d="M184.068 243.8H210.271" stroke="#C77B41" stroke-miterlimit="10" stroke-linecap="square"/>
<path d="M337.403 205.542C337.403 198.308 343.27 192.441 350.504 192.441C357.739 192.441 363.63 198.308 363.63 205.542" stroke="#C77B41" stroke-miterlimit="10"/>
<path d="M337.428 205.565V243.8" stroke="#C77B41" stroke-miterlimit="10"/>
<path d="M363.605 205.565V243.8" stroke="#C77B41" stroke-miterlimit="10"/>
<path d="M337.428 243.8H363.606" stroke="#C77B41" stroke-miterlimit="10" stroke-linecap="square"/>
<path d="M387.669 205.542C387.669 198.308 393.536 192.441 400.77 192.441C408.004 192.441 413.896 198.308 413.896 205.542" stroke="#C77B41" stroke-miterlimit="10"/>
<path d="M387.669 205.565V243.8" stroke="#C77B41" stroke-miterlimit="10"/>
<path d="M413.871 205.565V243.8" stroke="#C77B41" stroke-miterlimit="10"/>
<path d="M387.669 243.8H413.871" stroke="#C77B41" stroke-miterlimit="10" stroke-linecap="square"/>
<path d="M169.896 244.522V186.077" stroke="#C77B41" stroke-miterlimit="10"/>
<path d="M220.662 244.522V186.077" stroke="#C77B41" stroke-miterlimit="10"/>
<path d="M271.972 244.522V186.077" stroke="#C77B41" stroke-miterlimit="10"/>
<path d="M325.072 244.521V186.175" stroke="#C77B41" stroke-miterlimit="10"/>
<path d="M375.637 244.522V186.077" stroke="#C77B41" stroke-miterlimit="10"/>
<path d="M424.834 244.521V186.175" stroke="#C77B41" stroke-miterlimit="10"/>
<path d="M191.675 252.602H182.303V265.429H191.675V252.602Z" stroke="#C77B41" stroke-miterlimit="10"/>
<path d="M410.141 252.602H400.769V265.429H410.141V252.602Z" stroke="#C77B41" stroke-miterlimit="10"/>
<path d="M108.544 252.602H93.9014V270.177H108.544V252.602Z" stroke="#C77B41" stroke-miterlimit="10"/>
<path d="M49.3013 270.176H154.558" stroke="#C77B41" stroke-miterlimit="10"/>
<path d="M480.52 270.151H495.162V252.575H480.52V270.151Z" stroke="#C77B41" stroke-miterlimit="10"/>
<path d="M539.763 270.176H434.507" stroke="#C77B41" stroke-miterlimit="10"/>
<path d="M49.3013 98.2217H539.76" stroke="#C77B41" stroke-miterlimit="10"/>
<path d="M154.56 177.201H434.505" stroke="#C77B41" stroke-miterlimit="10"/>
<path d="M230.829 164.101H210.071" stroke="#C77B41" stroke-miterlimit="10"/>
<path d="M335.81 164.101H313.859" stroke="#C77B41" stroke-miterlimit="10"/>
<path d="M434.53 164.101H414.742" stroke="#C77B41" stroke-miterlimit="10"/>
<path d="M387.446 164.101H363.407" stroke="#C77B41" stroke-miterlimit="10"/>
<path d="M282.735 164.101H260.734" stroke="#C77B41" stroke-miterlimit="10"/>
<path d="M182.302 164.101H154.136" stroke="#C77B41" stroke-miterlimit="10"/>
<path d="M387.445 163.552V177.274" stroke="#C77B41" stroke-miterlimit="10"/>
<path d="M363.407 163.203V176.926" stroke="#C77B41" stroke-miterlimit="10"/>
<path d="M335.837 163.552V177.274" stroke="#C77B41" stroke-miterlimit="10"/>
<path d="M313.859 163.203V176.926" stroke="#C77B41" stroke-miterlimit="10"/>
<path d="M282.737 176.926V163.203" stroke="#C77B41" stroke-miterlimit="10"/>
<path d="M260.734 163.203V176.926" stroke="#C77B41" stroke-miterlimit="10"/>
<path d="M230.803 163.203V176.926" stroke="#C77B41" stroke-miterlimit="10"/>
<path d="M210.046 163.203V176.926" stroke="#C77B41" stroke-miterlimit="10"/>
<path d="M182.303 163.429V177.152" stroke="#C77B41" stroke-miterlimit="10"/>
<path d="M414.742 163.203V176.926" stroke="#C77B41" stroke-miterlimit="10"/>
<path d="M260.734 172.85H230.828" stroke="#C77B41" stroke-miterlimit="10"/>
<path d="M363.407 172.85H335.812" stroke="#C77B41" stroke-miterlimit="10"/>
<path d="M414.741 172.85H387.445" stroke="#C77B41" stroke-miterlimit="10"/>
<path d="M313.862 172.85H282.737" stroke="#C77B41" stroke-miterlimit="10"/>
<path d="M210.072 172.85H182.303" stroke="#C77B41" stroke-miterlimit="10"/>
<path d="M46.4429 78.8076H542.619" stroke="#C77B41" stroke-miterlimit="10" stroke-linecap="square"/>
<path d="M207.311 70.6768H177.255" stroke="#C77B41" stroke-miterlimit="10" stroke-linecap="square"/>
<path d="M311.475 70.6768H274.732" stroke="#C77B41" stroke-miterlimit="10" stroke-linecap="square"/>
<path d="M411.261 70.6768H378.172" stroke="#C77B41" stroke-miterlimit="10" stroke-linecap="square"/>
<path d="M434.108 70.6768H427.371" stroke="#C77B41" stroke-miterlimit="10" stroke-linecap="square"/>
<path d="M362.039 70.6768H327.583" stroke="#C77B41" stroke-miterlimit="10" stroke-linecap="square"/>
<path d="M258.596 70.6768H223.419" stroke="#C77B41" stroke-miterlimit="10" stroke-linecap="square"/>
<path d="M161.147 70.6768H154.56" stroke="#C77B41" stroke-miterlimit="10" stroke-linecap="square"/>
<path d="M164.628 64.4863C166.687 64.4863 168.357 62.8167 168.357 60.7573C168.357 58.6978 166.687 57.0283 164.628 57.0283C162.568 57.0283 160.899 58.6978 160.899 60.7573C160.899 62.8167 162.568 64.4863 164.628 64.4863Z" stroke="#C77B41" stroke-miterlimit="10"/>
<path d="M174.322 64.4863C176.381 64.4863 178.051 62.8167 178.051 60.7573C178.051 58.6978 176.381 57.0283 174.322 57.0283C172.262 57.0283 170.593 58.6978 170.593 60.7573C170.593 62.8167 172.262 64.4863 174.322 64.4863Z" stroke="#C77B41" stroke-miterlimit="10"/>
<path d="M161.146 77.663V66.2026" stroke="#C77B41" stroke-miterlimit="10"/>
<path d="M177.281 77.663V66.2026" stroke="#C77B41" stroke-miterlimit="10"/>
<path d="M161.146 66.2026H177.279" stroke="#C77B41" stroke-miterlimit="10" stroke-linecap="square"/>
<path d="M210.791 64.4863C212.85 64.4863 214.52 62.8167 214.52 60.7573C214.52 58.6978 212.85 57.0283 210.791 57.0283C208.732 57.0283 207.062 58.6978 207.062 60.7573C207.062 62.8167 208.732 64.4863 210.791 64.4863Z" stroke="#C77B41" stroke-miterlimit="10"/>
<path d="M220.487 64.4863C222.547 64.4863 224.216 62.8167 224.216 60.7573C224.216 58.6978 222.547 57.0283 220.487 57.0283C218.428 57.0283 216.758 58.6978 216.758 60.7573C216.758 62.8167 218.428 64.4863 220.487 64.4863Z" stroke="#C77B41" stroke-miterlimit="10"/>
<path d="M207.311 77.663V66.2026" stroke="#C77B41" stroke-miterlimit="10"/>
<path d="M223.419 77.663V66.2026" stroke="#C77B41" stroke-miterlimit="10"/>
<path d="M207.311 66.2026H223.42" stroke="#C77B41" stroke-miterlimit="10" stroke-linecap="square"/>
<path d="M262.077 64.4863C264.136 64.4863 265.806 62.8167 265.806 60.7573C265.806 58.6978 264.136 57.0283 262.077 57.0283C260.017 57.0283 258.348 58.6978 258.348 60.7573C258.348 62.8167 260.017 64.4863 262.077 64.4863Z" stroke="#C77B41" stroke-miterlimit="10"/>
<path d="M271.773 64.4863C273.832 64.4863 275.502 62.8167 275.502 60.7573C275.502 58.6978 273.832 57.0283 271.773 57.0283C269.713 57.0283 268.044 58.6978 268.044 60.7573C268.044 62.8167 269.713 64.4863 271.773 64.4863Z" stroke="#C77B41" stroke-miterlimit="10"/>
<path d="M258.597 77.663V66.2026" stroke="#C77B41" stroke-miterlimit="10"/>
<path d="M274.732 77.663V66.2026" stroke="#C77B41" stroke-miterlimit="10"/>
<path d="M258.597 66.2026H274.731" stroke="#C77B41" stroke-miterlimit="10" stroke-linecap="square"/>
<path d="M314.956 64.4863C317.015 64.4863 318.684 62.8167 318.684 60.7573C318.684 58.6978 317.015 57.0283 314.956 57.0283C312.896 57.0283 311.227 58.6978 311.227 60.7573C311.227 62.8167 312.896 64.4863 314.956 64.4863Z" stroke="#C77B41" stroke-miterlimit="10"/>
<path d="M324.649 64.4863C326.709 64.4863 328.378 62.8167 328.378 60.7573C328.378 58.6978 326.709 57.0283 324.649 57.0283C322.59 57.0283 320.92 58.6978 320.92 60.7573C320.92 62.8167 322.59 64.4863 324.649 64.4863Z" stroke="#C77B41" stroke-miterlimit="10"/>
<path d="M311.473 77.663V66.2026" stroke="#C77B41" stroke-miterlimit="10"/>
<path d="M327.583 77.663V66.2026" stroke="#C77B41" stroke-miterlimit="10"/>
<path d="M311.473 66.2026H327.582" stroke="#C77B41" stroke-miterlimit="10" stroke-linecap="square"/>
<path d="M365.544 64.4863C367.603 64.4863 369.273 62.8167 369.273 60.7573C369.273 58.6978 367.603 57.0283 365.544 57.0283C363.484 57.0283 361.815 58.6978 361.815 60.7573C361.815 62.8167 363.484 64.4863 365.544 64.4863Z" stroke="#C77B41" stroke-miterlimit="10"/>
<path d="M375.238 64.4863C377.297 64.4863 378.967 62.8167 378.967 60.7573C378.967 58.6978 377.297 57.0283 375.238 57.0283C373.178 57.0283 371.509 58.6978 371.509 60.7573C371.509 62.8167 373.178 64.4863 375.238 64.4863Z" stroke="#C77B41" stroke-miterlimit="10"/>
<path d="M362.063 77.663V66.2026" stroke="#C77B41" stroke-miterlimit="10"/>
<path d="M378.172 77.663V66.2026" stroke="#C77B41" stroke-miterlimit="10"/>
<path d="M362.063 66.2026H378.173" stroke="#C77B41" stroke-miterlimit="10" stroke-linecap="square"/>
<path d="M414.741 64.4863C416.8 64.4863 418.47 62.8167 418.47 60.7573C418.47 58.6978 416.8 57.0283 414.741 57.0283C412.681 57.0283 411.012 58.6978 411.012 60.7573C411.012 62.8167 412.681 64.4863 414.741 64.4863Z" stroke="#C77B41" stroke-miterlimit="10"/>
<path d="M424.437 64.4863C426.496 64.4863 428.166 62.8167 428.166 60.7573C428.166 58.6978 426.496 57.0283 424.437 57.0283C422.378 57.0283 420.708 58.6978 420.708 60.7573C420.708 62.8167 422.378 64.4863 424.437 64.4863Z" stroke="#C77B41" stroke-miterlimit="10"/>
<path d="M411.261 77.663V66.2026" stroke="#C77B41" stroke-miterlimit="10"/>
<path d="M427.371 77.663V66.2026" stroke="#C77B41" stroke-miterlimit="10"/>
<path d="M411.261 66.2026H427.37" stroke="#C77B41" stroke-miterlimit="10" stroke-linecap="square"/>
<path d="M450.491 70.6772V44.5744L457.626 36.147H434.506H154.138H132.211L137.457 43.2072V70.6772" stroke="#C77B41" stroke-miterlimit="10"/>
<path d="M447.008 13.7485H434.529V36.1721H447.008V13.7485Z" stroke="#C77B41" stroke-miterlimit="10"/>
<path d="M154.011 13.7485H141.532V36.1721H154.011V13.7485Z" stroke="#C77B41" stroke-miterlimit="10"/>
<path d="M197.789 32.4424H173.65" stroke="#C77B41" stroke-miterlimit="10"/>
<path d="M273.861 32.4424H240.848" stroke="#C77B41" stroke-miterlimit="10"/>
<path d="M350.777 32.4424H319.503" stroke="#C77B41" stroke-miterlimit="10"/>
<path d="M418.868 32.4424H393.661" stroke="#C77B41" stroke-miterlimit="10"/>
<path d="M434.108 32.4424H426.327" stroke="#C77B41" stroke-miterlimit="10"/>
<path d="M386.203 32.4424H358.235" stroke="#C77B41" stroke-miterlimit="10"/>
<path d="M312.047 32.4424H281.32" stroke="#C77B41" stroke-miterlimit="10"/>
<path d="M233.389 32.4424H205.248" stroke="#C77B41" stroke-miterlimit="10"/>
<path d="M166.194 32.4424H154.56" stroke="#C77B41" stroke-miterlimit="10"/>
<path d="M169.922 28.6884V24.9346" stroke="#C77B41" stroke-miterlimit="10"/>
<path d="M201.543 28.6884V24.9346" stroke="#C77B41" stroke-miterlimit="10"/>
<path d="M237.118 28.6875V24.9585" stroke="#C77B41" stroke-miterlimit="10"/>
<path d="M277.591 28.6875V24.9585" stroke="#C77B41" stroke-miterlimit="10"/>
<path d="M315.774 28.6884V24.9346" stroke="#C77B41" stroke-miterlimit="10"/>
<path d="M354.506 28.6884V24.9346" stroke="#C77B41" stroke-miterlimit="10"/>
<path d="M389.932 28.6884V24.9346" stroke="#C77B41" stroke-miterlimit="10"/>
<path d="M422.598 28.6875V24.9585" stroke="#C77B41" stroke-miterlimit="10"/>
<path d="M440.769 13.7475V0" stroke="#C77B41" stroke-miterlimit="10"/>
<path d="M147.772 13.7475V0" stroke="#C77B41" stroke-miterlimit="10"/>
<path d="M78.8863 48.3267H66.4067V70.7502H78.8863V48.3267Z" stroke="#C77B41" stroke-miterlimit="10"/>
<path d="M72.647 48.3275V34.5801" stroke="#C77B41" stroke-miterlimit="10"/>
<path d="M523.727 48.3267H511.248V70.7502H523.727V48.3267Z" stroke="#C77B41" stroke-miterlimit="10"/>
<path d="M517.488 48.3275V34.5801" stroke="#C77B41" stroke-miterlimit="10"/>
<path d="M202.588 43.0332H183.347V62.2747H202.588V43.0332Z" stroke="#C77B41" stroke-miterlimit="10"/>
<path d="M250.642 43.0332H231.4V62.2747H250.642V43.0332Z" stroke="#C77B41" stroke-miterlimit="10"/>
<path d="M303.94 43.0332H284.699V62.2747H303.94V43.0332Z" stroke="#C77B41" stroke-miterlimit="10"/>
<path d="M354.432 43.0332H335.19V62.2747H354.432V43.0332Z" stroke="#C77B41" stroke-miterlimit="10"/>
<path d="M404.325 43.0332H385.084V62.2747H404.325V43.0332Z" stroke="#C77B41" stroke-miterlimit="10"/>
<path d="M587.666 299.759H1" stroke="#C77B41" stroke-miterlimit="10"/>
<path d="M195.579 271.569H393.015" stroke="#C77B41" stroke-miterlimit="10"/>
<path d="M205.869 264.533H384.238" stroke="#C77B41" stroke-miterlimit="10"/>
<path d="M211.488 257.621H376.433" stroke="#C77B41" stroke-miterlimit="10"/>
<path d="M214.521 251.234H373.45" stroke="#C77B41" stroke-miterlimit="10"/>
</svg>
