<svg width="727" height="676" viewBox="0 0 727 676" fill="none" xmlns="http://www.w3.org/2000/svg">
<path d="M326.195 170.985C326.195 170.985 420.494 102.93 440.405 102.93" stroke="#CB6F03" stroke-miterlimit="10"/>
<path d="M724.684 599.472V630.556" stroke="#CB6F03" stroke-miterlimit="10"/>
<path d="M690.786 599.472L691.276 637.023" stroke="#CB6F03" stroke-miterlimit="10"/>
<path d="M417.51 532.576L417.643 662.978C417.643 662.978 440.316 679.746 469.982 662.978V532.755" stroke="#CB6F03" stroke-miterlimit="10"/>
<path d="M323.789 100.7C323.789 100.7 278.221 16.1442 207.129 12.9332C136.037 9.72221 92.5621 40.7617 92.5621 40.7617C92.5621 40.7617 146.549 292.288 149.177 323.328C151.805 354.367 137.329 372.563 137.329 372.563L4.3208 564.151C4.3208 564.151 281.873 559.112 337.999 518.796" stroke="#CB6F03" stroke-miterlimit="10"/>
<path d="M580.896 216.563C580.896 216.563 612.745 209.918 645.663 239.307C678.581 268.697 686.51 305.088 686.51 305.088C686.51 305.088 708.915 330.775 716.799 331.846L724.684 599.427H538.98L544.949 540.649" stroke="#CB6F03" stroke-miterlimit="10"/>
<path d="M444.815 530.124L185.837 553.314C185.837 553.314 253.633 367.746 253.633 353.252C253.633 338.758 275.147 49.5474 275.147 49.5474" stroke="#CB6F03" stroke-miterlimit="10"/>
<path d="M54.5662 562.501L4.3208 652.141C4.3208 652.141 11.8933 665.119 29.4435 662.621L65.9695 562.456C65.9695 562.456 180.982 372.072 179.645 353.208C178.309 334.343 127.529 24.0825 127.529 24.0825" stroke="#CB6F03" stroke-miterlimit="10"/>
<path d="M29.4435 662.666C43.8311 678.721 60.6687 662.978 60.6687 662.978L91.7603 560.628C91.7603 560.628 193.098 370.601 193.098 354.68C193.098 338.758 153.632 16.9917 153.632 16.9917" stroke="#CB6F03" stroke-miterlimit="10"/>
<path d="M459.158 49.5029H412.743" stroke="#CB6F03" stroke-miterlimit="10"/>
<path d="M595.462 85.3141L544.949 540.738L337.999 518.841L322.854 73.0053C322.854 73.0053 354.836 -7.67049 459.158 3.25576C563.48 14.2266 595.462 85.3141 595.462 85.3141Z" stroke="#CB6F03" stroke-miterlimit="10"/>
<path d="M462.231 196.093L461.118 142.71" stroke="#CB6F03" stroke-miterlimit="10"/>
<path d="M465.661 357.177L464.503 303.794" stroke="#CB6F03" stroke-miterlimit="10"/>
<path d="M463.969 276.635L462.811 223.252" stroke="#CB6F03" stroke-miterlimit="10"/>
<path d="M460.272 102.93L459.158 49.5029" stroke="#CB6F03" stroke-miterlimit="10"/>
<path d="M468.557 493.376L467.398 440.439" stroke="#CB6F03" stroke-miterlimit="10"/>
<path d="M467.176 430.093L466.062 376.666" stroke="#CB6F03" stroke-miterlimit="10"/>
<path d="M415.817 196.093L414.703 142.71" stroke="#CB6F03" stroke-miterlimit="10"/>
<path d="M413.857 102.93L412.743 50.1719" stroke="#CB6F03" stroke-miterlimit="10"/>
<path d="M420.806 430.093L419.647 376.666" stroke="#CB6F03" stroke-miterlimit="10"/>
<path d="M419.247 357.177L418.089 303.794" stroke="#CB6F03" stroke-miterlimit="10"/>
<path d="M422.142 494L421.028 440.439" stroke="#CB6F03" stroke-miterlimit="10"/>
<path d="M417.554 276.635L416.396 223.252" stroke="#CB6F03" stroke-miterlimit="10"/>
<path d="M461.073 102.93H413.857" stroke="#CB6F03" stroke-miterlimit="10"/>
<path d="M461.118 142.71H413.278" stroke="#CB6F03" stroke-miterlimit="10"/>
<path d="M462.41 196.093H414.391" stroke="#CB6F03" stroke-miterlimit="10"/>
<path d="M462.81 223.252H414.748" stroke="#CB6F03" stroke-miterlimit="10"/>
<path d="M464.102 276.635H415.817" stroke="#CB6F03" stroke-miterlimit="10"/>
<path d="M464.815 303.794H417.599" stroke="#CB6F03" stroke-miterlimit="10"/>
<path d="M465.929 357.177H418.534" stroke="#CB6F03" stroke-miterlimit="10"/>
<path d="M467.488 376.666H419.647" stroke="#CB6F03" stroke-miterlimit="10"/>
<path d="M468.601 430.093H420.761" stroke="#CB6F03" stroke-miterlimit="10"/>
<path d="M468.869 440.439H420.984" stroke="#CB6F03" stroke-miterlimit="10"/>
<path d="M469.982 493.822H423.567" stroke="#CB6F03" stroke-miterlimit="10"/>
<path d="M542.945 149.757L541.341 200.865" stroke="#CB6F03" stroke-miterlimit="10"/>
<path d="M537.867 312.312L536.486 354.68" stroke="#CB6F03" stroke-miterlimit="10"/>
<path d="M533.234 458.992L531.764 506.532" stroke="#CB6F03" stroke-miterlimit="10"/>
<path d="M535.64 382.24L534.125 430.316" stroke="#CB6F03" stroke-miterlimit="10"/>
<path d="M540.183 237.256L539.025 273.959" stroke="#CB6F03" stroke-miterlimit="10"/>
<path d="M503.613 201.4V149.043" stroke="#CB6F03" stroke-miterlimit="10"/>
<path d="M503.613 353.52V311.866" stroke="#CB6F03" stroke-miterlimit="10"/>
<path d="M503.613 504.748V459.928" stroke="#CB6F03" stroke-miterlimit="10"/>
<path d="M503.613 428.889V382.775" stroke="#CB6F03" stroke-miterlimit="10"/>
<path d="M503.613 274.093V237.702" stroke="#CB6F03" stroke-miterlimit="10"/>
<path d="M503.613 114.882V56.4598C503.613 56.4598 534.259 51.0636 545.573 65.959L544.058 115.016" stroke="#CB6F03" stroke-miterlimit="10"/>
<path d="M343.255 226.106L341.473 177.719" stroke="#CB6F03" stroke-miterlimit="10"/>
<path d="M349.001 380.992L347.175 332.604" stroke="#CB6F03" stroke-miterlimit="10"/>
<path d="M353.767 510.456L351.985 462.024" stroke="#CB6F03" stroke-miterlimit="10"/>
<path d="M351.985 453.818L349.625 398.206" stroke="#CB6F03" stroke-miterlimit="10"/>
<path d="M346.284 307.674V307.63L344.458 259.242" stroke="#CB6F03" stroke-miterlimit="10"/>
<path d="M339.825 133.791L338.043 85.3587L337.999 84.333" stroke="#CB6F03" stroke-miterlimit="10"/>
<path d="M392.877 495.873L390.783 447.932" stroke="#CB6F03" stroke-miterlimit="10"/>
<path d="M380.538 212.192L378.489 164.295" stroke="#CB6F03" stroke-miterlimit="10"/>
<path d="M387.264 366.765L385.171 318.868" stroke="#CB6F03" stroke-miterlimit="10"/>
<path d="M390.204 434.775L388.066 384.292" stroke="#CB6F03" stroke-miterlimit="10"/>
<path d="M384.102 293.582L382.008 245.64" stroke="#CB6F03" stroke-miterlimit="10"/>
<path d="M374.436 72.1582V72.2028L376.529 120.1" stroke="#CB6F03" stroke-miterlimit="10"/>
<path d="M353.723 510.456L392.877 495.873" stroke="#CB6F03" stroke-miterlimit="10"/>
<path d="M351.941 462.024L390.783 447.932" stroke="#CB6F03" stroke-miterlimit="10"/>
<path d="M536.753 346.295C554.348 347.366 565.662 353.966 563.88 370.021" stroke="#CB6F03" stroke-miterlimit="10"/>
<path d="M503.613 348.882C453.278 357.534 389.759 383.667 389.759 383.667L388.021 384.292L349.58 398.206" stroke="#CB6F03" stroke-miterlimit="10"/>
<path d="M718.982 406.278C636.665 328.1 568.78 326.093 568.78 326.093C564.682 316.014 553.19 312.58 537.822 313.294" stroke="#CB6F03" stroke-miterlimit="10"/>
<path d="M346.64 381.884L349.001 381.036L387.309 366.765C387.309 366.765 400.182 360.031 419.158 351.379" stroke="#CB6F03" stroke-miterlimit="10"/>
<path d="M503.613 319.314C491.096 322.703 477.911 327.163 465.127 331.98" stroke="#CB6F03" stroke-miterlimit="10"/>
<path d="M344.858 333.451L385.661 318.689" stroke="#CB6F03" stroke-miterlimit="10"/>
<path d="M345.616 307.897L384.77 293.314" stroke="#CB6F03" stroke-miterlimit="10"/>
<path d="M343.834 259.465L382.676 245.417" stroke="#CB6F03" stroke-miterlimit="10"/>
<path d="M380.538 212.192L343.255 226.107" stroke="#CB6F03" stroke-miterlimit="10"/>
<path d="M460.049 92.4497C474.704 85.2696 489.448 79.5166 503.613 76.1719" stroke="#CB6F03" stroke-miterlimit="10"/>
<path d="M545.261 74.9678C561.698 78.9369 582.767 93.1187 592.388 112.741" stroke="#CB6F03" stroke-miterlimit="10"/>
<path d="M378.489 164.295L341.473 177.719" stroke="#CB6F03" stroke-miterlimit="10"/>
<path d="M338.756 134.192L377.91 119.609" stroke="#CB6F03" stroke-miterlimit="10"/>
<path d="M336.974 85.7601L375.816 71.6675" stroke="#CB6F03" stroke-miterlimit="10"/>
<path d="M503.613 114.882C512.521 112.919 527.087 111.136 544.014 115.015" stroke="#CB6F03" stroke-miterlimit="10"/>
<path d="M503.613 149.043C514.259 147.839 529.938 146.947 542.945 149.712" stroke="#CB6F03" stroke-miterlimit="10"/>
<path d="M503.613 201.4C513.546 200.151 527.934 199.036 541.341 200.909" stroke="#CB6F03" stroke-miterlimit="10"/>
<path d="M503.613 237.702C513.68 236.676 528.112 235.739 540.183 237.256" stroke="#CB6F03" stroke-miterlimit="10"/>
<path d="M503.613 274.093C512.655 272.71 525.617 271.729 539.025 273.959" stroke="#CB6F03" stroke-miterlimit="10"/>
<path d="M503.613 311.866C511.764 309.949 524.192 308.521 537.867 312.312" stroke="#CB6F03" stroke-miterlimit="10"/>
<path d="M503.613 353.52C513.145 353.074 526.375 352.895 536.486 354.679" stroke="#CB6F03" stroke-miterlimit="10"/>
<path d="M503.613 382.776C511.096 381.036 522.41 379.698 535.64 382.285" stroke="#CB6F03" stroke-miterlimit="10"/>
<path d="M503.613 428.889C512.655 428.309 524.949 428.131 534.125 430.271" stroke="#CB6F03" stroke-miterlimit="10"/>
<path d="M503.613 459.928C512.076 458.724 524.281 457.52 533.234 458.947" stroke="#CB6F03" stroke-miterlimit="10"/>
<path d="M503.613 504.748C510.918 504.079 521.43 503.901 531.764 506.487" stroke="#CB6F03" stroke-miterlimit="10"/>
<path d="M29.4435 564.151C29.4435 564.151 159.467 375.016 164.857 345.403C170.247 315.791 107.974 32.1099 107.974 32.1099" stroke="#CB6F03" stroke-miterlimit="10"/>
<path d="M111.271 559.424C111.271 559.424 209.222 365.873 209.222 353.921C209.222 341.969 179.69 12.7104 179.69 12.7104" stroke="#CB6F03" stroke-miterlimit="10"/>
<path d="M135.191 557.774C135.191 557.774 221.383 363.643 221.383 357.221V14.6724" stroke="#CB6F03" stroke-miterlimit="10"/>
<path d="M154.077 556.258C154.077 556.258 236.127 369.084 236.127 357.177C236.127 345.27 248.109 24.0381 248.109 24.0381" stroke="#CB6F03" stroke-miterlimit="10"/>
<path d="M209.267 550.683C209.267 550.683 271.361 366.274 271.361 353.208C271.361 340.141 296.261 62.5249 296.261 62.5249" stroke="#CB6F03" stroke-miterlimit="10"/>
<path d="M237.775 548.631C237.775 548.631 288.778 353.431 288.778 345.403C288.778 337.376 314.123 85.314 314.123 85.314" stroke="#CB6F03" stroke-miterlimit="10"/>
<path d="M275.949 540.247C275.949 540.247 315.192 362.439 315.37 342.817C315.504 323.194 326.818 188.244 326.818 188.244" stroke="#CB6F03" stroke-miterlimit="10"/>
<path d="M296.261 535.52L326.774 353.52L331.317 321.455" stroke="#CB6F03" stroke-miterlimit="10"/>
<path d="M319.157 528.34L331.317 330.508" stroke="#CB6F03" stroke-miterlimit="10"/>
<path d="M97.1947 62.5696C97.1947 62.5696 203.654 -28.7203 323.789 100.745C323.789 100.745 302.72 332.648 302.72 342.861C302.72 353.074 260.893 542.299 260.893 542.299" stroke="#CB6F03" stroke-miterlimit="10"/>
<path d="M116.571 154.529C116.571 154.529 174.077 72.9163 325.749 158.587" stroke="#CB6F03" stroke-miterlimit="10"/>
<path d="M129.979 219.774C129.979 219.774 202.541 147.75 327.575 212.192" stroke="#CB6F03" stroke-miterlimit="10"/>
<path d="M329.179 259.242C205.748 205.681 139.912 269.589 139.912 269.589" stroke="#CB6F03" stroke-miterlimit="10"/>
<path d="M149.177 323.328C149.177 323.328 302.497 310.662 329.179 293.582" stroke="#CB6F03" stroke-miterlimit="10"/>
<path d="M29.4435 527.938C29.4435 527.938 313.99 522.141 337.999 506.889" stroke="#CB6F03" stroke-miterlimit="10"/>
<path d="M76.66 459.928C76.66 459.928 279.602 438.209 336.44 473.664" stroke="#CB6F03" stroke-miterlimit="10"/>
<path d="M124.589 390.937C124.589 390.937 295.816 371.716 333.901 398.206" stroke="#CB6F03" stroke-miterlimit="10"/>
<path d="M420.405 142.71C442.989 122.775 472.521 103.465 503.613 101.681" stroke="#CB6F03" stroke-miterlimit="10"/>
<path d="M544.192 110.467C558.223 117.781 574.749 134.192 587.979 152.923" stroke="#CB6F03" stroke-miterlimit="10"/>
<path d="M414.792 147.75C395.995 165.277 382.943 182.179 379.424 186.906C378.801 187.753 378.444 188.244 378.444 188.244" stroke="#CB6F03" stroke-miterlimit="10"/>
<path d="M461.341 154.261C509.136 128.35 557.956 123.89 584.326 185.39" stroke="#CB6F03" stroke-miterlimit="10"/>
<path d="M415.594 185.033C368.556 222.048 331.273 266.734 331.273 266.734" stroke="#CB6F03" stroke-miterlimit="10"/>
<path d="M443.3 223.252C481.608 202.916 532.388 191.276 579.426 229.585" stroke="#CB6F03" stroke-miterlimit="10"/>
<path d="M416.752 239.798C398.756 252.686 386.462 264.995 383.032 268.563C382.364 269.232 382.052 269.589 382.052 269.589" stroke="#CB6F03" stroke-miterlimit="10"/>
<path d="M463.345 247.825C506.285 219.506 553.769 202.158 578.402 239.307C578.402 239.307 637.601 248.137 662.055 276.635C686.51 305.132 661.61 295.098 717.2 345.359" stroke="#CB6F03" stroke-miterlimit="10"/>
<path d="M424.77 276.635C399.024 297.952 379.558 317.976 375.326 322.436C374.747 323.06 374.436 323.328 374.436 323.328" stroke="#CB6F03" stroke-miterlimit="10"/>
<path d="M718.091 376.666C676.176 338.134 661.298 316.951 661.298 316.951C612.211 268.251 572.344 293.582 572.344 293.582C558.669 280.247 542.589 274.093 525.706 272.666C518.446 272.086 511.052 272.354 503.613 273.335C475.327 276.992 446.686 290.728 424.815 303.75" stroke="#CB6F03" stroke-miterlimit="10"/>
<path d="M418.178 307.853C398.846 319.938 386.24 330.508 386.24 330.508" stroke="#CB6F03" stroke-miterlimit="10"/>
<path d="M466.151 379.074C506.241 369.976 549.359 366.899 561.564 391.204C561.564 391.204 570.651 370.645 720.363 452.347" stroke="#CB6F03" stroke-miterlimit="10"/>
<path d="M419.959 392.141C401.607 398.206 389.046 403.379 389.046 403.379" stroke="#CB6F03" stroke-miterlimit="10"/>
<path d="M503.613 401.506C492.12 401.907 479.604 404.004 466.73 407.17" stroke="#CB6F03" stroke-miterlimit="10"/>
<path d="M534.882 406.144C545.261 410.515 553.145 418.23 557.199 430.271C557.199 430.271 670.073 446.594 721.209 481.112" stroke="#CB6F03" stroke-miterlimit="10"/>
<path d="M420.583 422.021C375.104 439.592 336.039 462.113 336.039 462.113" stroke="#CB6F03" stroke-miterlimit="10"/>
<path d="M467.621 448.69C510.428 447.441 554.927 451.053 552.611 471.88C552.611 471.88 646.465 471.613 722.189 513.801" stroke="#CB6F03" stroke-miterlimit="10"/>
<path d="M421.251 451.722C403.79 453.328 391.808 454.978 391.808 454.978" stroke="#CB6F03" stroke-miterlimit="10"/>
<path d="M444.815 530.124C444.815 530.124 519.738 483.386 547.711 515.897" stroke="#CB6F03" stroke-miterlimit="10"/>
<path d="M104.054 647.28C109.266 660.525 113.453 670.426 113.453 670.426C113.453 670.426 107.128 676.089 97.3283 672.611C95.4575 671.942 93.5421 669.534 91.5822 665.966" stroke="#CB6F03" stroke-miterlimit="10"/>
<path d="M94.1212 620.611C88.9986 605.939 84.8115 591.935 84.4997 584.532C84.3661 581.633 84.8561 579.76 86.1033 579.27" stroke="#CB6F03" stroke-miterlimit="10"/>
<path d="M75.1901 615.125C75.1901 615.125 78.7981 630.868 83.6089 645.897" stroke="#CB6F03" stroke-miterlimit="10"/>
<path d="M193.098 552.511C193.098 552.511 153.632 662.22 154.077 665.966C154.523 669.712 179.289 670.381 179.289 670.381C179.289 670.381 193.098 620.254 206.283 584.354C213.632 564.285 220.848 548.587 225.303 548.587" stroke="#CB6F03" stroke-miterlimit="10"/>
<path d="M231.628 547.918C231.628 547.918 220.091 630.913 248.154 662.978C248.154 662.978 240.849 667.973 233.053 666.011C225.258 664.048 205.392 624.357 209.267 573.784" stroke="#CB6F03" stroke-miterlimit="10"/>
<path d="M156.304 657.938C156.304 657.938 137.551 570.083 147.44 559.469C147.44 559.469 98.5756 656.199 97.1947 663.023C95.8139 669.846 79.5554 663.023 79.5554 663.023C76.7046 651.071 123.387 559.469 123.387 559.469" stroke="#CB6F03" stroke-miterlimit="10"/>
<path d="M171.182 614.323C171.182 614.323 156.794 575.88 165.213 555.276" stroke="#CB6F03" stroke-miterlimit="10"/>
<path d="M154.79 662.978H110.335" stroke="#CB6F03" stroke-miterlimit="10"/>
<path d="M417.643 662.978H248.109" stroke="#CB6F03" stroke-miterlimit="10"/>
<path d="M557.199 662.978H469.982" stroke="#CB6F03" stroke-miterlimit="10"/>
<path d="M229.134 662.978H181.383" stroke="#CB6F03" stroke-miterlimit="10"/>
<path d="M79.5553 662.978H60.6687" stroke="#CB6F03" stroke-miterlimit="10"/>
<path d="M724.684 630.556L557.199 662.978" stroke="#CB6F03" stroke-miterlimit="10"/>
<path d="M640.941 599.918V647.28" stroke="#CB6F03" stroke-miterlimit="10"/>
<path d="M614.215 599.472L615.596 651.65" stroke="#CB6F03" stroke-miterlimit="10"/>
<path d="M668.425 599.472L668.558 641.393" stroke="#CB6F03" stroke-miterlimit="10"/>
<path d="M541.742 572.625L469.982 573.294" stroke="#CB6F03" stroke-miterlimit="10"/>
<path d="M417.554 573.784L229.445 575.568" stroke="#CB6F03" stroke-miterlimit="10"/>
<path d="M564.059 359.719C564.059 359.719 582.722 332.738 719.65 428.487" stroke="#CB6F03" stroke-miterlimit="10"/>
<path d="M544.949 540.693C544.949 540.693 642.857 519.108 723.347 555.276" stroke="#CB6F03" stroke-miterlimit="10"/>
<path d="M557.199 612.717H469.982" stroke="#CB6F03" stroke-miterlimit="10"/>
<path d="M417.554 612.717H230.604" stroke="#CB6F03" stroke-miterlimit="10"/>
<path d="M557.199 662.978V599.472" stroke="#CB6F03" stroke-miterlimit="10"/>
</svg>
